{"glyphs":{"0":{"ha":913,"x_min":78,"x_max":835,"o":"m 443 -14 q 172 105 265 -14 q 78 428 78 224 q 132 673 78 572 q 276 824 186 774 q 475 875 365 875 q 744 762 654 875 q 835 442 835 649 q 783 195 835 299 q 642 39 731 92 q 443 -14 553 -14 m 457 69 q 585 159 544 69 q 626 426 626 249 q 588 703 626 615 q 458 792 550 792 q 286 443 286 792 q 327 163 286 257 q 457 69 368 69 z "},"1":{"ha":636,"x_min":51,"x_max":610,"o":"m 247 681 q 163 659 224 672 q 67 642 101 646 l 51 739 q 208 794 126 754 q 340 876 289 833 l 342 876 l 451 861 l 451 97 l 610 82 l 610 0 l 81 0 l 81 82 l 247 96 l 247 681 z "},"2":{"ha":840,"x_min":53,"x_max":799,"o":"m 53 75 q 369 326 246 189 q 493 592 493 464 q 451 701 493 660 q 332 742 408 742 q 210 715 260 742 q 114 644 161 688 l 61 721 q 141 792 89 756 q 263 852 193 828 q 403 876 332 876 q 573 842 504 876 q 675 750 642 807 q 708 624 708 693 q 581 356 708 490 q 256 108 453 221 l 658 146 l 711 263 l 799 244 l 758 0 l 82 0 l 53 75 z "},"3":{"ha":786,"x_min":64,"x_max":731,"o":"m 235 -222 q 147 -216 194 -222 q 68 -201 99 -210 l 68 -99 q 193 -117 126 -117 q 362 -85 290 -117 q 471 1 433 -53 q 508 121 508 56 q 456 258 508 210 q 299 310 403 307 l 215 289 l 186 374 q 299 408 243 383 q 424 499 379 444 q 468 617 468 554 q 426 718 468 686 q 318 750 383 750 q 203 729 257 750 q 113 678 150 708 l 64 763 q 195 839 104 801 q 381 876 286 876 q 595 820 513 876 q 678 650 678 764 q 600 474 678 550 q 410 357 522 397 q 451 358 424 358 q 652 296 575 358 q 729 129 729 233 q 670 -51 731 29 q 497 -176 610 -131 q 235 -222 385 -222 z "},"4":{"ha":918,"x_min":42,"x_max":889,"o":"m 544 0 l 86 0 l 42 72 q 436 946 161 299 l 478 946 l 635 865 l 281 190 l 219 100 l 546 119 l 560 379 l 711 392 l 711 131 l 889 140 l 889 0 l 711 0 l 711 -222 l 544 -222 l 544 0 z "},"5":{"ha":850,"x_min":118,"x_max":767,"o":"m 125 -126 q 206 -129 178 -129 q 380 -90 301 -129 q 504 16 458 -51 q 550 165 550 83 q 500 315 550 269 q 356 361 450 361 q 255 349 310 361 q 164 319 200 336 l 118 351 l 185 864 l 614 864 l 628 890 l 724 890 l 694 717 l 314 717 l 257 428 q 353 465 297 449 q 474 481 410 481 q 691 407 615 481 q 767 199 767 333 q 697 -17 767 79 q 502 -169 626 -114 q 222 -224 378 -224 q 125 -214 169 -224 l 125 -126 z "},"6":{"ha":932,"x_min":96,"x_max":846,"o":"m 471 -17 q 268 40 353 -17 q 140 196 183 97 q 96 418 96 294 q 183 744 96 596 q 407 983 271 892 q 681 1092 543 1074 l 721 1017 q 472 863 572 972 q 331 611 371 754 q 421 667 365 644 q 549 690 476 690 q 766 605 686 690 q 846 371 846 519 q 801 179 846 268 q 672 37 757 90 q 471 -17 588 -17 m 481 585 q 378 560 424 585 q 310 507 333 536 q 306 428 306 468 q 344 164 303 260 q 478 68 385 68 q 599 144 557 68 q 642 332 642 219 q 599 524 642 464 q 481 585 556 585 z "},"7":{"ha":825,"x_min":54,"x_max":788,"o":"m 206 -194 q 556 613 346 94 l 610 743 l 242 738 l 171 533 l 54 556 l 89 864 l 751 864 l 788 818 l 568 189 l 414 -250 l 206 -194 z "},"8":{"ha":890,"x_min":75,"x_max":819,"o":"m 75 253 q 128 401 75 333 q 283 513 181 468 q 163 624 206 563 q 119 778 119 686 q 165 922 119 861 q 286 1014 210 982 q 454 1046 363 1046 q 622 1017 551 1046 q 731 935 693 988 q 768 814 768 882 q 721 674 768 738 q 585 567 674 611 q 757 436 694 504 q 819 268 819 368 q 770 118 819 182 q 634 19 721 54 q 439 -15 547 -15 q 181 51 286 -15 q 75 253 75 117 m 293 821 q 322 738 293 775 q 392 674 350 701 q 510 607 435 647 q 590 685 561 639 q 618 783 618 731 q 574 918 618 871 q 453 965 531 965 q 340 927 386 965 q 293 821 293 889 m 622 232 q 594 315 622 279 q 526 376 567 350 q 411 442 485 403 q 353 472 372 461 q 270 390 301 439 q 239 283 239 342 q 294 129 239 188 q 444 71 349 71 q 531 91 490 71 q 597 147 572 111 q 622 232 622 183 z "},"9":{"ha":918,"x_min":79,"x_max":831,"o":"m 458 876 q 663 822 579 876 q 789 672 747 767 q 831 453 831 576 q 749 117 831 268 q 538 -126 668 -33 q 267 -236 407 -218 l 226 -161 q 468 -7 375 -115 q 597 250 561 101 q 510 192 563 215 q 392 169 457 169 q 229 211 300 169 q 119 328 158 253 q 79 503 79 403 q 124 690 79 604 q 256 826 169 775 q 458 876 342 876 m 449 275 q 550 300 504 275 q 617 356 596 325 q 622 443 619 385 q 583 701 622 610 q 447 792 543 792 q 326 718 369 792 q 283 539 283 644 q 328 340 283 404 q 449 275 372 275 z "},"\u0000":{"ha":0,"x_min":0,"x_max":0,"o":""},"\r":{"ha":329,"x_min":0,"x_max":0,"o":""}," ":{"ha":329,"x_min":0,"x_max":0,"o":""},"A":{"ha":975,"x_min":-24,"x_max":993,"o":"m 379 1038 l 592 1038 l 913 97 l 993 83 l 993 0 l 583 0 l 583 83 l 688 97 l 633 278 l 274 278 l 219 96 l 332 83 l 332 0 l -22 0 l -24 83 l 60 97 l 379 1038 m 475 803 l 450 911 l 424 801 l 300 375 l 606 375 l 475 803 z "},"Á":{"ha":975,"x_min":-24,"x_max":993,"o":"m 379 1038 l 592 1038 l 913 97 l 993 83 l 993 0 l 583 0 l 583 83 l 688 97 l 633 278 l 274 278 l 219 96 l 332 83 l 332 0 l -22 0 l -24 83 l 60 97 l 379 1038 m 475 803 l 450 911 l 424 801 l 300 375 l 606 375 l 475 803 m 371 1157 l 551 1364 l 692 1276 q 576 1173 644 1222 q 458 1104 507 1124 l 371 1157 z "},"Ă":{"ha":975,"x_min":-24,"x_max":993,"o":"m 379 1038 l 592 1038 l 913 97 l 993 83 l 993 0 l 583 0 l 583 83 l 688 97 l 633 278 l 274 278 l 219 96 l 332 83 l 332 0 l -22 0 l -24 83 l 60 97 l 379 1038 m 475 803 l 450 911 l 424 801 l 300 375 l 606 375 l 475 803 m 482 1108 q 344 1138 401 1108 q 259 1217 288 1168 q 231 1328 231 1267 q 232 1358 231 1349 l 329 1358 q 331 1342 329 1349 q 483 1235 354 1235 q 636 1342 613 1235 q 638 1358 638 1349 l 735 1358 q 736 1329 736 1349 q 706 1218 736 1268 q 619 1138 676 1168 q 482 1108 561 1108 z "},"Ắ":{"ha":975,"x_min":-24,"x_max":993,"o":"m 379 1038 l 592 1038 l 913 97 l 993 83 l 993 0 l 583 0 l 583 83 l 688 97 l 633 278 l 274 278 l 219 96 l 332 83 l 332 0 l -22 0 l -24 83 l 60 97 l 379 1038 m 475 803 l 450 911 l 424 801 l 300 375 l 606 375 l 475 803 m 417 1224 l 546 1365 l 635 1292 q 572 1226 613 1260 q 478 1164 531 1192 l 417 1224 m 483 1013 q 334 1047 389 1013 q 279 1142 279 1082 q 282 1183 279 1174 l 360 1183 l 360 1168 q 392 1128 360 1144 q 483 1113 424 1113 q 577 1128 543 1113 q 611 1167 611 1144 q 610 1183 611 1179 l 685 1183 q 688 1143 688 1164 q 634 1047 688 1082 q 483 1013 581 1013 z "},"Ặ":{"ha":975,"x_min":-24,"x_max":993,"o":"m 379 1038 l 592 1038 l 913 97 l 993 83 l 993 0 l 583 0 l 583 83 l 688 97 l 633 278 l 274 278 l 219 96 l 332 83 l 332 0 l -22 0 l -24 83 l 60 97 l 379 1038 m 475 803 l 450 911 l 424 801 l 300 375 l 606 375 l 475 803 m 482 1108 q 344 1138 401 1108 q 259 1217 288 1168 q 231 1328 231 1267 q 232 1358 231 1349 l 329 1358 q 331 1342 329 1349 q 483 1235 354 1235 q 636 1342 613 1235 q 638 1358 638 1349 l 735 1358 q 736 1329 736 1349 q 706 1218 736 1268 q 619 1138 676 1168 q 482 1108 561 1108 m 463 -301 q 390 -272 418 -301 q 361 -200 361 -243 q 392 -116 361 -150 q 476 -82 424 -82 q 555 -111 526 -82 q 583 -182 583 -140 q 553 -268 583 -235 q 464 -301 522 -301 l 463 -301 z "},"Ằ":{"ha":975,"x_min":-24,"x_max":993,"o":"m 379 1038 l 592 1038 l 913 97 l 993 83 l 993 0 l 583 0 l 583 83 l 688 97 l 633 278 l 274 278 l 219 96 l 332 83 l 332 0 l -22 0 l -24 83 l 60 97 l 379 1038 m 475 803 l 450 911 l 424 801 l 300 375 l 606 375 l 475 803 m 500 1157 q 406 1222 446 1188 q 344 1286 365 1256 l 432 1360 l 560 1218 l 500 1157 m 483 1013 q 334 1047 389 1013 q 279 1142 279 1082 q 282 1183 279 1174 l 360 1183 l 360 1168 q 392 1128 360 1144 q 483 1113 424 1113 q 577 1128 543 1113 q 611 1167 611 1144 q 610 1183 611 1179 l 685 1183 q 688 1143 688 1164 q 634 1047 688 1082 q 483 1013 581 1013 z "},"Ẳ":{"ha":975,"x_min":-24,"x_max":993,"o":"m 379 1038 l 592 1038 l 913 97 l 993 83 l 993 0 l 583 0 l 583 83 l 688 97 l 633 278 l 274 278 l 219 96 l 332 83 l 332 0 l -22 0 l -24 83 l 60 97 l 379 1038 m 475 803 l 450 911 l 424 801 l 300 375 l 606 375 l 475 803 m 444 1144 q 431 1172 431 1156 q 436 1189 431 1182 q 454 1207 442 1196 q 473 1226 467 1218 q 479 1246 479 1235 q 465 1272 479 1263 q 426 1282 451 1282 q 361 1268 390 1282 l 357 1356 q 391 1363 360 1360 q 442 1365 422 1365 q 551 1341 511 1365 q 590 1268 590 1317 q 580 1231 590 1246 q 547 1201 569 1215 q 521 1158 521 1178 q 524 1146 521 1154 l 444 1144 m 483 1013 q 338 1047 389 1013 q 286 1142 286 1082 q 289 1183 286 1174 l 367 1183 l 367 1168 q 395 1128 367 1144 q 483 1113 424 1113 q 574 1128 543 1113 q 604 1167 604 1144 q 603 1183 604 1179 l 678 1183 q 681 1143 681 1164 q 631 1047 681 1082 q 483 1013 581 1013 z "},"Ẵ":{"ha":975,"x_min":-24,"x_max":993,"o":"m 379 1038 l 592 1038 l 913 97 l 993 83 l 993 0 l 583 0 l 583 83 l 688 97 l 633 278 l 274 278 l 219 96 l 332 83 l 332 0 l -22 0 l -24 83 l 60 97 l 379 1038 m 475 803 l 450 911 l 424 801 l 300 375 l 606 375 l 475 803 m 282 1246 q 299 1298 283 1271 q 342 1344 314 1325 q 407 1363 371 1363 q 455 1353 436 1363 q 496 1326 474 1344 q 527 1306 515 1313 q 557 1299 539 1299 q 597 1307 585 1299 q 617 1329 608 1315 q 632 1350 626 1343 l 679 1317 q 635 1235 671 1268 q 549 1201 600 1201 q 503 1212 522 1203 q 463 1239 485 1221 q 428 1262 442 1254 q 397 1269 415 1269 q 365 1258 378 1269 q 342 1233 353 1247 q 328 1214 332 1219 l 282 1246 m 483 1013 q 338 1047 389 1013 q 286 1142 286 1082 q 289 1183 286 1174 l 367 1183 l 367 1168 q 397 1128 367 1144 q 483 1113 428 1113 q 574 1128 543 1113 q 604 1167 604 1144 q 603 1183 604 1179 l 678 1183 q 681 1143 681 1164 q 631 1047 681 1082 q 483 1013 581 1013 z "},"Ǎ":{"ha":975,"x_min":-24,"x_max":993,"o":"m 379 1038 l 592 1038 l 913 97 l 993 83 l 993 0 l 583 0 l 583 83 l 688 97 l 633 278 l 274 278 l 219 96 l 332 83 l 332 0 l -22 0 l -24 83 l 60 97 l 379 1038 m 475 803 l 450 911 l 424 801 l 300 375 l 606 375 l 475 803 m 485 1238 l 667 1365 l 733 1311 l 547 1119 l 422 1119 l 233 1311 l 303 1365 l 485 1238 z "},"Â":{"ha":975,"x_min":-24,"x_max":993,"o":"m 379 1038 l 592 1038 l 913 97 l 993 83 l 993 0 l 583 0 l 583 83 l 688 97 l 633 278 l 274 278 l 219 96 l 332 83 l 332 0 l -22 0 l -24 83 l 60 97 l 379 1038 m 475 803 l 450 911 l 424 801 l 300 375 l 606 375 l 475 803 m 547 1363 l 747 1161 l 679 1107 l 485 1243 l 289 1107 l 222 1160 l 424 1363 l 547 1363 z "},"Ấ":{"ha":975,"x_min":-24,"x_max":993,"o":"m 379 1038 l 592 1038 l 913 97 l 993 83 l 993 0 l 583 0 l 583 83 l 688 97 l 633 278 l 274 278 l 219 96 l 332 83 l 332 0 l -22 0 l -24 83 l 60 97 l 379 1038 m 475 803 l 450 911 l 424 801 l 300 375 l 606 375 l 475 803 m 710 1224 l 839 1365 l 928 1292 q 865 1226 906 1260 q 771 1164 824 1192 l 710 1224 m 546 1329 l 724 1129 l 667 1075 l 483 1214 l 297 1075 l 242 1129 l 421 1329 l 546 1329 z "},"Ậ":{"ha":975,"x_min":-24,"x_max":993,"o":"m 463 -301 q 390 -272 418 -301 q 361 -200 361 -243 q 392 -116 361 -150 q 476 -82 424 -82 q 555 -111 526 -82 q 583 -182 583 -140 q 553 -268 583 -235 q 464 -301 522 -301 l 463 -301 m 379 1038 l 592 1038 l 913 97 l 993 83 l 993 0 l 583 0 l 583 83 l 688 97 l 633 278 l 274 278 l 219 96 l 332 83 l 332 0 l -22 0 l -24 83 l 60 97 l 379 1038 m 475 803 l 450 911 l 424 801 l 300 375 l 606 375 l 475 803 m 547 1363 l 747 1161 l 679 1107 l 485 1243 l 289 1107 l 222 1160 l 424 1363 l 547 1363 z "},"Ầ":{"ha":975,"x_min":-24,"x_max":993,"o":"m 379 1038 l 592 1038 l 913 97 l 993 83 l 993 0 l 583 0 l 583 83 l 688 97 l 633 278 l 274 278 l 219 96 l 332 83 l 332 0 l -22 0 l -24 83 l 60 97 l 379 1038 m 475 803 l 450 911 l 424 801 l 300 375 l 606 375 l 475 803 m 846 1163 q 751 1227 792 1193 q 690 1292 711 1261 l 778 1365 l 910 1224 l 846 1163 m 546 1307 l 724 1125 l 667 1071 l 483 1196 l 297 1069 l 242 1125 l 421 1307 l 546 1307 z "},"Ẩ":{"ha":975,"x_min":-24,"x_max":993,"o":"m 379 1038 l 592 1038 l 913 97 l 993 83 l 993 0 l 583 0 l 583 83 l 688 97 l 633 278 l 274 278 l 219 96 l 332 83 l 332 0 l -22 0 l -24 83 l 60 97 l 379 1038 m 475 803 l 450 911 l 424 801 l 300 375 l 606 375 l 475 803 m 785 1082 q 763 1133 763 1114 q 771 1160 763 1150 q 797 1186 779 1171 q 823 1209 814 1199 q 832 1236 832 1219 q 819 1269 832 1256 q 776 1285 806 1283 q 745 1281 763 1285 q 717 1271 728 1276 l 713 1356 q 742 1363 715 1360 q 785 1365 768 1365 q 933 1256 933 1365 q 919 1201 933 1221 q 878 1160 906 1182 l 853 1138 q 840 1110 840 1125 q 843 1094 840 1106 l 785 1082 m 546 1307 l 724 1125 l 667 1071 l 483 1196 l 297 1069 l 242 1125 l 421 1307 l 546 1307 z "},"Ẫ":{"ha":975,"x_min":-24,"x_max":993,"o":"m 379 1038 l 592 1038 l 913 97 l 993 83 l 993 0 l 583 0 l 583 83 l 688 97 l 633 278 l 274 278 l 219 96 l 332 83 l 332 0 l -22 0 l -24 83 l 60 97 l 379 1038 m 475 803 l 450 911 l 424 801 l 300 375 l 606 375 l 475 803 m 281 1344 q 298 1397 282 1369 q 343 1444 314 1425 q 411 1464 372 1464 q 465 1452 440 1464 q 521 1418 490 1440 q 565 1391 550 1399 q 599 1383 581 1383 q 645 1394 631 1383 q 681 1435 660 1406 l 728 1401 q 681 1321 719 1353 q 588 1289 643 1289 q 538 1300 561 1289 q 482 1332 515 1311 q 440 1359 458 1350 q 403 1368 422 1368 q 364 1353 381 1368 q 326 1313 347 1339 l 281 1344 m 544 1256 l 733 1128 l 685 1071 l 483 1158 l 278 1069 l 233 1128 l 421 1256 l 544 1256 z "},"Ä":{"ha":975,"x_min":-24,"x_max":993,"o":"m 379 1038 l 592 1038 l 913 97 l 993 83 l 993 0 l 583 0 l 583 83 l 688 97 l 633 278 l 274 278 l 219 96 l 332 83 l 332 0 l -22 0 l -24 83 l 60 97 l 379 1038 m 475 803 l 450 911 l 424 801 l 300 375 l 606 375 l 475 803 m 293 1124 q 229 1153 254 1124 q 204 1222 204 1182 q 231 1306 204 1274 q 311 1339 258 1339 l 313 1339 q 385 1310 360 1339 q 410 1240 410 1282 q 381 1156 410 1189 q 294 1124 351 1124 l 293 1124 m 646 1124 q 582 1153 607 1124 q 557 1222 557 1183 q 584 1306 557 1274 q 664 1339 611 1339 l 665 1339 q 738 1310 714 1339 q 763 1240 763 1282 q 733 1156 763 1188 q 646 1124 704 1124 z "},"Ạ":{"ha":975,"x_min":-24,"x_max":993,"o":"m 379 1038 l 592 1038 l 913 97 l 993 83 l 993 0 l 583 0 l 583 83 l 688 97 l 633 278 l 274 278 l 219 96 l 332 83 l 332 0 l -22 0 l -24 83 l 60 97 l 379 1038 m 475 803 l 450 911 l 424 801 l 300 375 l 606 375 l 475 803 m 463 -301 q 390 -272 418 -301 q 361 -200 361 -243 q 392 -116 361 -150 q 476 -82 424 -82 q 555 -111 526 -82 q 583 -182 583 -140 q 553 -268 583 -235 q 464 -301 522 -301 l 463 -301 z "},"À":{"ha":975,"x_min":-24,"x_max":993,"o":"m 379 1038 l 592 1038 l 913 97 l 993 83 l 993 0 l 583 0 l 583 83 l 688 97 l 633 278 l 274 278 l 219 96 l 332 83 l 332 0 l -22 0 l -24 83 l 60 97 l 379 1038 m 475 803 l 450 911 l 424 801 l 300 375 l 606 375 l 475 803 m 510 1104 q 384 1176 458 1124 q 269 1276 310 1228 l 403 1364 l 590 1157 l 510 1104 z "},"Ả":{"ha":975,"x_min":-24,"x_max":993,"o":"m 379 1038 l 592 1038 l 913 97 l 993 83 l 993 0 l 583 0 l 583 83 l 688 97 l 633 278 l 274 278 l 219 96 l 332 83 l 332 0 l -22 0 l -24 83 l 60 97 l 379 1038 m 475 803 l 450 911 l 424 801 l 300 375 l 606 375 l 475 803 m 449 1078 q 433 1103 440 1088 q 426 1136 426 1119 q 435 1158 426 1149 q 461 1178 444 1167 q 488 1200 479 1190 q 497 1225 497 1210 q 480 1261 497 1250 q 422 1272 463 1272 q 387 1268 406 1272 q 357 1256 368 1264 l 354 1344 q 402 1360 374 1354 q 456 1365 431 1365 q 632 1251 632 1365 q 612 1196 632 1217 q 549 1147 592 1175 q 524 1101 524 1133 q 526 1078 524 1086 l 449 1078 z "},"Ā":{"ha":975,"x_min":-24,"x_max":993,"o":"m 379 1038 l 592 1038 l 913 97 l 993 83 l 993 0 l 583 0 l 583 83 l 688 97 l 633 278 l 274 278 l 219 96 l 332 83 l 332 0 l -22 0 l -24 83 l 60 97 l 379 1038 m 475 803 l 450 911 l 424 801 l 300 375 l 606 375 l 475 803 m 701 1171 l 265 1171 l 265 1292 l 701 1292 l 701 1171 z "},"Ą":{"ha":969,"x_min":-24,"x_max":993,"o":"m 379 1038 l 592 1038 l 913 97 l 993 83 l 993 0 l 932 0 q 825 -72 867 -25 q 783 -161 783 -118 q 812 -217 783 -197 q 886 -236 840 -236 q 978 -215 932 -236 l 978 -301 q 902 -335 950 -322 q 810 -347 854 -347 q 667 -311 725 -347 q 610 -211 610 -275 q 671 -90 610 -151 q 817 0 732 -28 l 583 0 l 583 83 l 688 97 l 633 278 l 274 278 l 219 96 l 332 83 l 332 0 l -22 0 l -24 83 l 60 97 l 379 1038 m 476 803 l 450 911 l 425 801 l 300 375 l 606 375 l 476 803 z "},"Å":{"ha":975,"x_min":-24,"x_max":993,"o":"m -24 83 l 60 97 l 375 1025 q 277 1086 308 1044 q 246 1186 246 1128 q 313 1318 246 1271 q 486 1365 381 1365 q 663 1317 604 1365 q 721 1190 721 1269 q 687 1090 721 1131 q 594 1031 653 1049 l 913 97 l 993 83 l 993 0 l 583 0 l 583 83 l 688 97 l 633 278 l 274 278 l 219 96 l 332 83 l 332 0 l -22 0 l -24 83 m 367 1190 q 395 1114 367 1144 q 483 1083 424 1083 q 600 1182 600 1083 q 573 1261 600 1231 q 485 1292 546 1292 q 367 1190 367 1292 m 606 375 l 475 803 l 450 911 l 424 801 l 300 375 l 606 375 z "},"Ǻ":{"ha":975,"x_min":-24,"x_max":993,"o":"m -24 83 l 60 97 l 358 969 q 280 1021 308 983 q 251 1108 251 1058 q 299 1208 251 1171 q 422 1253 346 1246 l 508 1364 l 654 1322 q 609 1276 628 1292 q 569 1250 590 1260 q 673 1203 632 1240 q 714 1107 714 1165 q 688 1019 714 1056 q 614 969 663 982 l 913 97 l 993 83 l 993 0 l 583 0 l 583 83 l 688 97 l 633 278 l 274 278 l 219 96 l 332 83 l 332 0 l -22 0 l -24 83 m 368 1107 q 399 1054 368 1076 q 483 1032 431 1032 q 568 1054 539 1032 q 597 1108 597 1076 q 567 1163 597 1140 q 482 1186 538 1186 q 398 1163 428 1186 q 368 1107 368 1140 m 606 375 l 475 803 l 450 911 l 424 801 l 300 375 l 606 375 z "},"Ã":{"ha":975,"x_min":-24,"x_max":993,"o":"m 379 1038 l 592 1038 l 913 97 l 993 83 l 993 0 l 583 0 l 583 83 l 688 97 l 633 278 l 274 278 l 219 96 l 332 83 l 332 0 l -22 0 l -24 83 l 60 97 l 379 1038 m 475 803 l 450 911 l 424 801 l 300 375 l 606 375 l 475 803 m 585 1122 q 519 1135 544 1122 q 461 1176 494 1149 q 421 1207 438 1197 q 383 1217 404 1217 q 332 1195 350 1217 q 300 1133 314 1174 l 222 1181 q 285 1294 243 1253 q 389 1335 328 1335 q 456 1320 429 1335 q 515 1278 483 1306 q 556 1248 540 1257 q 590 1239 571 1239 q 672 1324 644 1239 l 750 1276 q 585 1122 706 1122 z "},"Æ":{"ha":1301,"x_min":-117,"x_max":1296,"o":"m 556 290 l 222 290 l 147 97 l 253 82 l 253 0 l -117 0 l -117 82 l -17 97 l 339 929 l 158 947 l 158 1032 l 1183 1032 l 1204 796 l 1107 796 l 1060 938 l 758 950 l 758 575 l 950 581 l 972 693 l 1061 693 l 1061 357 l 972 357 l 951 476 l 758 481 l 758 88 l 1097 106 l 1183 283 l 1296 253 l 1249 0 l 443 0 l 443 82 l 556 97 l 556 290 m 556 940 l 471 940 l 399 751 l 260 390 l 556 390 l 556 940 z "},"Ǽ":{"ha":1301,"x_min":-117,"x_max":1296,"o":"m 556 290 l 222 290 l 147 97 l 253 82 l 253 0 l -117 0 l -117 82 l -17 97 l 339 929 l 158 947 l 158 1032 l 1183 1032 l 1204 796 l 1107 796 l 1060 938 l 758 950 l 758 575 l 950 581 l 972 693 l 1061 693 l 1061 357 l 972 357 l 951 476 l 758 481 l 758 88 l 1097 106 l 1183 283 l 1296 253 l 1249 0 l 443 0 l 443 82 l 556 97 l 556 290 m 556 940 l 471 940 l 399 751 l 260 390 l 556 390 l 556 940 m 539 1157 l 719 1364 l 860 1276 q 744 1173 813 1222 q 626 1104 675 1124 l 539 1157 z "},"B":{"ha":979,"x_min":54,"x_max":935,"o":"m 164 928 l 56 946 l 56 1032 l 263 1032 q 385 1038 310 1032 q 428 1040 403 1039 q 486 1042 453 1042 q 780 983 696 1042 q 864 807 864 924 q 802 635 864 704 q 640 551 740 567 q 856 489 778 553 q 935 311 935 425 q 833 79 935 167 q 494 -8 732 -8 q 379 -4 432 -8 q 332 -2 365 -4 q 264 0 299 0 l 54 0 l 54 83 l 164 97 l 164 928 m 365 582 q 428 581 381 581 l 493 581 q 619 633 578 581 q 661 782 661 686 q 618 915 661 874 q 475 957 575 957 q 365 951 449 957 l 365 582 m 365 92 q 488 79 397 79 q 658 135 606 79 q 711 296 711 190 q 663 441 711 397 q 511 485 615 485 q 365 482 394 485 l 365 92 z "},"Ḃ":{"ha":979,"x_min":54,"x_max":935,"o":"m 164 928 l 56 946 l 56 1032 l 263 1032 q 385 1038 310 1032 q 428 1040 403 1039 q 486 1042 453 1042 q 780 983 696 1042 q 864 807 864 924 q 802 635 864 704 q 640 551 740 567 q 856 489 778 553 q 935 311 935 425 q 833 79 935 167 q 494 -8 732 -8 q 379 -4 432 -8 q 332 -2 365 -4 q 264 0 299 0 l 54 0 l 54 83 l 164 97 l 164 928 m 365 582 q 428 581 381 581 l 493 581 q 619 633 578 581 q 661 782 661 686 q 618 915 661 874 q 475 957 575 957 q 365 951 449 957 l 365 582 m 365 92 q 488 79 397 79 q 658 135 606 79 q 711 296 711 190 q 663 441 711 397 q 511 485 615 485 q 365 482 394 485 l 365 92 m 481 1135 q 406 1163 435 1135 q 378 1232 378 1190 q 408 1314 378 1282 q 493 1346 439 1346 q 573 1317 543 1346 q 603 1247 603 1289 q 572 1165 603 1196 q 481 1135 542 1135 z "},"Ḅ":{"ha":979,"x_min":54,"x_max":935,"o":"m 164 928 l 56 946 l 56 1032 l 263 1032 q 385 1038 310 1032 q 428 1040 403 1039 q 486 1042 453 1042 q 780 983 696 1042 q 864 807 864 924 q 802 635 864 704 q 640 551 740 567 q 856 489 778 553 q 935 311 935 425 q 833 79 935 167 q 494 -8 732 -8 q 379 -4 432 -8 q 332 -2 365 -4 q 264 0 299 0 l 54 0 l 54 83 l 164 97 l 164 928 m 365 582 q 428 581 381 581 l 493 581 q 619 633 578 581 q 661 782 661 686 q 618 915 661 874 q 475 957 575 957 q 365 951 449 957 l 365 582 m 365 92 q 488 79 397 79 q 658 135 606 79 q 711 296 711 190 q 663 441 711 397 q 511 485 615 485 q 365 482 394 485 l 365 92 m 481 -301 q 408 -272 436 -301 q 379 -200 379 -243 q 410 -116 379 -150 q 494 -82 442 -82 q 573 -111 544 -82 q 601 -182 601 -140 q 571 -268 601 -235 q 482 -301 540 -301 l 481 -301 z "},"C":{"ha":914,"x_min":40,"x_max":868,"o":"m 526 -15 q 165 126 290 -15 q 40 511 40 267 q 106 792 40 672 q 288 978 172 913 q 549 1043 403 1043 q 667 1035 610 1043 q 801 1015 724 1028 q 865 1006 860 1006 l 850 719 l 722 719 l 679 918 q 626 943 664 933 q 531 953 589 953 q 341 844 413 953 q 269 528 269 735 q 338 201 269 328 q 536 75 406 75 q 633 87 599 75 q 690 121 667 99 l 751 264 l 868 253 l 840 38 q 783 27 811 35 q 747 18 754 19 q 644 -6 692 3 q 526 -15 596 -15 z "},"Ć":{"ha":914,"x_min":40,"x_max":868,"o":"m 526 -15 q 165 126 290 -15 q 40 511 40 267 q 106 792 40 672 q 288 978 172 913 q 549 1043 403 1043 q 667 1035 610 1043 q 801 1015 724 1028 q 865 1006 860 1006 l 850 719 l 722 719 l 679 918 q 626 943 664 933 q 531 953 589 953 q 341 844 413 953 q 269 528 269 735 q 338 201 269 328 q 536 75 406 75 q 633 87 599 75 q 690 121 667 99 l 751 264 l 868 253 l 840 38 q 783 27 811 35 q 747 18 754 19 q 644 -6 692 3 q 526 -15 596 -15 m 408 1157 l 589 1364 l 729 1276 q 613 1173 682 1222 q 496 1104 544 1124 l 408 1157 z "},"Č":{"ha":914,"x_min":40,"x_max":868,"o":"m 526 -15 q 165 126 290 -15 q 40 511 40 267 q 106 792 40 672 q 288 978 172 913 q 549 1043 403 1043 q 667 1035 610 1043 q 801 1015 724 1028 q 865 1006 860 1006 l 850 719 l 722 719 l 679 918 q 626 943 664 933 q 531 953 589 953 q 341 844 413 953 q 269 528 269 735 q 338 201 269 328 q 536 75 406 75 q 633 87 599 75 q 690 121 667 99 l 751 264 l 868 253 l 840 38 q 783 27 811 35 q 747 18 754 19 q 644 -6 692 3 q 526 -15 596 -15 m 522 1238 l 704 1365 l 771 1311 l 585 1119 l 460 1119 l 271 1311 l 340 1365 l 522 1238 z "},"Ç":{"ha":914,"x_min":40,"x_max":868,"o":"m 526 -15 q 165 126 290 -15 q 40 511 40 267 q 106 792 40 672 q 288 978 172 913 q 549 1043 403 1043 q 667 1035 610 1043 q 801 1015 724 1028 q 865 1006 860 1006 l 850 719 l 722 719 l 679 918 q 626 943 664 933 q 531 953 589 953 q 341 844 413 953 q 269 528 269 735 q 338 201 269 328 q 536 75 406 75 q 633 87 599 75 q 690 121 667 99 l 751 264 l 868 253 l 840 38 q 783 27 811 35 q 747 18 754 19 q 644 -6 692 3 q 526 -15 596 -15 m 447 -349 q 396 -342 424 -349 q 349 -328 368 -336 l 350 -212 q 408 -222 378 -222 q 485 -204 463 -222 q 507 -126 507 -186 q 492 -53 507 -92 q 463 3 476 -15 l 522 10 l 550 3 q 613 -78 582 -24 q 644 -192 644 -132 q 595 -313 644 -278 q 447 -349 546 -349 z "},"Ĉ":{"ha":914,"x_min":40,"x_max":868,"o":"m 526 -15 q 165 126 290 -15 q 40 511 40 267 q 106 792 40 672 q 288 978 172 913 q 549 1043 403 1043 q 667 1035 610 1043 q 801 1015 724 1028 q 865 1006 860 1006 l 850 719 l 722 719 l 679 918 q 626 943 664 933 q 531 953 589 953 q 341 844 413 953 q 269 528 269 735 q 338 201 269 328 q 536 75 406 75 q 633 87 599 75 q 690 121 667 99 l 751 264 l 868 253 l 840 38 q 783 27 811 35 q 747 18 754 19 q 644 -6 692 3 q 526 -15 596 -15 m 585 1363 l 785 1161 l 717 1107 l 522 1243 l 326 1107 l 260 1160 l 461 1363 l 585 1363 z "},"Ċ":{"ha":914,"x_min":40,"x_max":868,"o":"m 526 -15 q 165 126 290 -15 q 40 511 40 267 q 106 792 40 672 q 288 978 172 913 q 549 1043 403 1043 q 667 1035 610 1043 q 801 1015 724 1028 q 865 1006 860 1006 l 850 719 l 722 719 l 679 918 q 626 943 664 933 q 531 953 589 953 q 341 844 413 953 q 269 528 269 735 q 338 201 269 328 q 536 75 406 75 q 633 87 599 75 q 690 121 667 99 l 751 264 l 868 253 l 840 38 q 783 27 811 35 q 747 18 754 19 q 644 -6 692 3 q 526 -15 596 -15 m 511 1135 q 437 1163 465 1135 q 408 1232 408 1190 q 439 1314 408 1282 q 524 1346 469 1346 q 603 1317 574 1346 q 633 1247 633 1289 q 603 1165 633 1196 q 511 1135 572 1135 z "},"D":{"ha":1057,"x_min":54,"x_max":1017,"o":"m 164 928 l 60 946 l 60 1032 l 263 1032 q 386 1038 308 1032 q 441 1040 404 1039 q 507 1042 478 1042 q 890 914 763 1042 q 1017 551 1017 786 q 953 260 1017 388 q 774 60 890 132 q 501 -11 657 -11 q 375 -6 461 -11 q 265 0 294 0 l 54 0 l 54 83 l 164 97 l 164 928 m 365 93 q 497 81 413 81 q 715 192 636 83 q 794 519 794 301 q 717 840 794 726 q 475 953 639 953 q 409 949 440 953 q 365 943 378 944 l 365 93 z "},"Ǳ":{"ha":1967,"x_min":54,"x_max":1926,"o":"m 164 928 l 60 946 l 60 1032 l 263 1032 q 386 1038 308 1032 q 441 1040 404 1039 q 507 1042 478 1042 q 890 914 763 1042 q 1017 551 1017 786 q 953 260 1017 388 q 774 60 890 132 q 501 -11 657 -11 q 375 -6 461 -11 q 265 0 294 0 l 54 0 l 54 83 l 164 97 l 164 928 m 365 93 q 497 81 413 81 q 715 192 636 83 q 794 519 794 301 q 717 840 794 726 q 475 953 639 953 q 409 949 440 953 q 365 943 378 944 l 365 93 m 1683 954 l 1322 935 l 1247 747 l 1144 761 l 1176 1035 l 1881 1035 l 1914 961 l 1411 181 l 1315 85 l 1743 113 l 1821 328 l 1926 307 l 1894 0 l 1131 0 l 1088 74 l 1601 858 l 1683 954 z "},"Ǆ":{"ha":1967,"x_min":54,"x_max":1926,"o":"m 164 928 l 60 946 l 60 1032 l 263 1032 q 386 1038 308 1032 q 441 1040 404 1039 q 507 1042 478 1042 q 890 914 763 1042 q 1017 551 1017 786 q 953 260 1017 388 q 774 60 890 132 q 501 -11 657 -11 q 375 -6 461 -11 q 265 0 294 0 l 54 0 l 54 83 l 164 97 l 164 928 m 365 93 q 497 81 413 81 q 715 192 636 83 q 794 519 794 301 q 717 840 794 726 q 475 953 639 953 q 409 949 440 953 q 365 943 378 944 l 365 93 m 1683 954 l 1322 935 l 1247 747 l 1144 761 l 1176 1035 l 1881 1035 l 1914 961 l 1411 181 l 1315 85 l 1743 113 l 1821 328 l 1926 307 l 1894 0 l 1131 0 l 1088 74 l 1601 858 l 1683 954 m 1569 1238 l 1751 1365 l 1818 1311 l 1632 1119 l 1507 1119 l 1318 1311 l 1388 1365 l 1569 1238 z "},"Ð":{"ha":1057,"x_min":54,"x_max":1017,"o":"m 164 928 l 60 946 l 60 1032 l 263 1032 q 386 1038 308 1032 q 441 1040 404 1039 q 507 1042 478 1042 q 890 914 763 1042 q 1017 551 1017 786 q 953 260 1017 388 q 774 60 890 132 q 501 -11 657 -11 q 375 -6 461 -11 q 265 0 294 0 l 54 0 l 54 83 l 164 97 l 164 492 l 65 492 l 65 579 l 164 579 l 164 928 m 578 492 l 365 492 l 365 93 q 497 81 413 81 q 715 192 636 83 q 794 519 794 301 q 717 840 794 726 q 475 953 639 953 q 409 949 440 953 q 365 943 378 944 l 365 579 l 578 579 l 578 492 z "},"Ď":{"ha":1057,"x_min":54,"x_max":1017,"o":"m 164 928 l 60 946 l 60 1032 l 263 1032 q 386 1038 308 1032 q 441 1040 404 1039 q 507 1042 478 1042 q 890 914 763 1042 q 1017 551 1017 786 q 953 260 1017 388 q 774 60 890 132 q 501 -11 657 -11 q 375 -6 461 -11 q 265 0 294 0 l 54 0 l 54 83 l 164 97 l 164 928 m 365 93 q 497 81 413 81 q 715 192 636 83 q 794 519 794 301 q 717 840 794 726 q 475 953 639 953 q 409 949 440 953 q 365 943 378 944 l 365 93 m 531 1238 l 713 1365 l 779 1311 l 593 1119 l 468 1119 l 279 1311 l 349 1365 l 531 1238 z "},"Đ":{"ha":1057,"x_min":54,"x_max":1017,"o":"m 164 928 l 60 946 l 60 1032 l 263 1032 q 386 1038 308 1032 q 441 1040 404 1039 q 507 1042 478 1042 q 890 914 763 1042 q 1017 551 1017 786 q 953 260 1017 388 q 774 60 890 132 q 501 -11 657 -11 q 375 -6 461 -11 q 265 0 294 0 l 54 0 l 54 83 l 164 97 l 164 492 l 65 492 l 65 579 l 164 579 l 164 928 m 578 492 l 365 492 l 365 93 q 497 81 413 81 q 715 192 636 83 q 794 519 794 301 q 717 840 794 726 q 475 953 639 953 q 409 949 440 953 q 365 943 378 944 l 365 579 l 578 579 l 578 492 z "},"Ḋ":{"ha":1057,"x_min":54,"x_max":1017,"o":"m 164 928 l 60 946 l 60 1032 l 263 1032 q 386 1038 308 1032 q 441 1040 404 1039 q 507 1042 478 1042 q 890 914 763 1042 q 1017 551 1017 786 q 953 260 1017 388 q 774 60 890 132 q 501 -11 657 -11 q 375 -6 461 -11 q 265 0 294 0 l 54 0 l 54 83 l 164 97 l 164 928 m 365 93 q 497 81 413 81 q 715 192 636 83 q 794 519 794 301 q 717 840 794 726 q 475 953 639 953 q 409 949 440 953 q 365 943 378 944 l 365 93 m 519 1135 q 445 1163 474 1135 q 417 1232 417 1190 q 447 1314 417 1282 q 532 1346 478 1346 q 612 1317 582 1346 q 642 1247 642 1289 q 611 1165 642 1196 q 519 1135 581 1135 z "},"Ḍ":{"ha":1057,"x_min":54,"x_max":1017,"o":"m 164 928 l 60 946 l 60 1032 l 263 1032 q 386 1038 308 1032 q 441 1040 404 1039 q 507 1042 478 1042 q 890 914 763 1042 q 1017 551 1017 786 q 953 260 1017 388 q 774 60 890 132 q 501 -11 657 -11 q 375 -6 461 -11 q 265 0 294 0 l 54 0 l 54 83 l 164 97 l 164 928 m 365 93 q 497 81 413 81 q 715 192 636 83 q 794 519 794 301 q 717 840 794 726 q 475 953 639 953 q 409 949 440 953 q 365 943 378 944 l 365 93 m 519 -301 q 447 -272 475 -301 q 418 -200 418 -243 q 449 -116 418 -150 q 533 -82 481 -82 q 612 -111 583 -82 q 640 -182 640 -140 q 610 -268 640 -235 q 521 -301 579 -301 l 519 -301 z "},"ǲ":{"ha":1832,"x_min":54,"x_max":1790,"o":"m 164 928 l 60 946 l 60 1032 l 263 1032 q 386 1038 308 1032 q 441 1040 404 1039 q 507 1042 478 1042 q 890 914 763 1042 q 1017 551 1017 786 q 953 260 1017 388 q 774 60 890 132 q 501 -11 657 -11 q 375 -6 461 -11 q 265 0 294 0 l 54 0 l 54 83 l 164 97 l 164 928 m 365 93 q 497 81 413 81 q 715 192 636 83 q 794 519 794 301 q 717 840 794 726 q 475 953 639 953 q 409 949 440 953 q 365 943 378 944 l 365 93 m 1272 672 l 1240 536 l 1140 536 l 1140 772 l 1753 772 l 1785 700 l 1415 188 l 1318 88 l 1629 103 l 1696 263 l 1790 251 l 1768 0 l 1124 0 l 1089 76 l 1468 578 l 1568 682 l 1272 672 z "},"ǅ":{"ha":1832,"x_min":54,"x_max":1790,"o":"m 164 928 l 60 946 l 60 1032 l 263 1032 q 386 1038 308 1032 q 441 1040 404 1039 q 507 1042 478 1042 q 890 914 763 1042 q 1017 551 1017 786 q 953 260 1017 388 q 774 60 890 132 q 501 -11 657 -11 q 375 -6 461 -11 q 265 0 294 0 l 54 0 l 54 83 l 164 97 l 164 928 m 365 93 q 497 81 413 81 q 715 192 636 83 q 794 519 794 301 q 717 840 794 726 q 475 953 639 953 q 409 949 440 953 q 365 943 378 944 l 365 93 m 1272 672 l 1240 536 l 1140 536 l 1140 772 l 1753 772 l 1785 700 l 1415 188 l 1318 88 l 1629 103 l 1696 263 l 1790 251 l 1768 0 l 1124 0 l 1089 76 l 1468 578 l 1568 682 l 1272 672 m 1465 1021 l 1668 1208 l 1733 1156 l 1526 883 l 1406 883 l 1200 1156 l 1267 1207 l 1465 1021 z "},"E":{"ha":910,"x_min":53,"x_max":889,"o":"m 164 928 l 53 946 l 53 1032 l 793 1032 l 811 799 l 714 799 l 668 936 l 368 949 l 368 575 l 561 579 l 583 693 l 672 693 l 672 357 l 583 357 l 561 476 l 368 481 l 368 89 l 704 106 l 785 283 l 889 254 l 853 0 l 54 0 l 54 83 l 164 97 l 164 928 z "},"É":{"ha":910,"x_min":53,"x_max":889,"o":"m 164 928 l 53 946 l 53 1032 l 793 1032 l 811 799 l 714 799 l 668 936 l 368 949 l 368 575 l 561 579 l 583 693 l 672 693 l 672 357 l 583 357 l 561 476 l 368 481 l 368 89 l 704 106 l 785 283 l 889 254 l 853 0 l 54 0 l 54 83 l 164 97 l 164 928 m 361 1157 l 542 1364 l 682 1276 q 566 1173 635 1222 q 449 1104 497 1124 l 361 1157 z "},"Ĕ":{"ha":910,"x_min":53,"x_max":889,"o":"m 164 928 l 53 946 l 53 1032 l 793 1032 l 811 799 l 714 799 l 668 936 l 368 949 l 368 575 l 561 579 l 583 693 l 672 693 l 672 357 l 583 357 l 561 476 l 368 481 l 368 89 l 704 106 l 785 283 l 889 254 l 853 0 l 54 0 l 54 83 l 164 97 l 164 928 m 472 1108 q 335 1138 392 1108 q 249 1217 278 1168 q 221 1328 221 1267 q 222 1358 221 1349 l 319 1358 q 321 1342 319 1349 q 474 1235 344 1235 q 626 1342 603 1235 q 628 1358 628 1349 l 725 1358 q 726 1329 726 1349 q 697 1218 726 1268 q 609 1138 667 1168 q 472 1108 551 1108 z "},"Ě":{"ha":910,"x_min":53,"x_max":889,"o":"m 164 928 l 53 946 l 53 1032 l 793 1032 l 811 799 l 714 799 l 668 936 l 368 949 l 368 575 l 561 579 l 583 693 l 672 693 l 672 357 l 583 357 l 561 476 l 368 481 l 368 89 l 704 106 l 785 283 l 889 254 l 853 0 l 54 0 l 54 83 l 164 97 l 164 928 m 475 1238 l 657 1365 l 724 1311 l 538 1119 l 413 1119 l 224 1311 l 293 1365 l 475 1238 z "},"Ȩ":{"ha":910,"x_min":53,"x_max":889,"o":"m 397 -349 q 345 -342 374 -349 q 299 -328 317 -336 l 299 -212 q 358 -222 326 -222 q 435 -204 413 -222 q 457 -126 457 -186 q 443 -58 457 -93 q 414 0 429 -22 l 54 0 l 54 83 l 164 97 l 164 928 l 53 946 l 53 1032 l 793 1032 l 811 799 l 714 799 l 668 936 l 368 949 l 368 575 l 561 579 l 583 693 l 672 693 l 672 357 l 583 357 l 561 476 l 368 481 l 368 89 l 704 106 l 785 283 l 889 254 l 853 0 l 503 0 q 565 -82 535 -29 q 594 -192 594 -135 q 545 -313 594 -278 q 397 -349 496 -349 z "},"Ê":{"ha":910,"x_min":53,"x_max":889,"o":"m 164 928 l 53 946 l 53 1032 l 793 1032 l 811 799 l 714 799 l 668 936 l 368 949 l 368 575 l 561 579 l 583 693 l 672 693 l 672 357 l 583 357 l 561 476 l 368 481 l 368 89 l 704 106 l 785 283 l 889 254 l 853 0 l 54 0 l 54 83 l 164 97 l 164 928 m 538 1363 l 738 1161 l 669 1107 l 475 1243 l 279 1107 l 213 1160 l 414 1363 l 538 1363 z "},"Ế":{"ha":910,"x_min":53,"x_max":918,"o":"m 164 928 l 53 946 l 53 1032 l 793 1032 l 811 799 l 714 799 l 668 936 l 368 949 l 368 575 l 561 579 l 583 693 l 672 693 l 672 357 l 583 357 l 561 476 l 368 481 l 368 89 l 704 106 l 785 283 l 889 254 l 853 0 l 54 0 l 54 83 l 164 97 l 164 928 m 700 1224 l 829 1365 l 918 1292 q 855 1226 896 1260 q 761 1164 814 1192 l 700 1224 m 536 1329 l 714 1129 l 657 1075 l 474 1214 l 288 1075 l 232 1129 l 411 1329 l 536 1329 z "},"Ệ":{"ha":910,"x_min":53,"x_max":889,"o":"m 164 928 l 53 946 l 53 1032 l 793 1032 l 811 799 l 714 799 l 668 936 l 368 949 l 368 575 l 561 579 l 583 693 l 672 693 l 672 357 l 583 357 l 561 476 l 368 481 l 368 89 l 704 106 l 785 283 l 889 254 l 853 0 l 54 0 l 54 83 l 164 97 l 164 928 m 446 -301 q 373 -272 401 -301 q 344 -200 344 -243 q 376 -116 344 -150 q 460 -82 407 -82 q 538 -111 510 -82 q 567 -182 567 -140 q 536 -268 567 -235 q 447 -301 506 -301 l 446 -301 m 538 1363 l 738 1161 l 669 1107 l 475 1243 l 279 1107 l 213 1160 l 414 1363 l 538 1363 z "},"Ề":{"ha":910,"x_min":53,"x_max":900,"o":"m 164 928 l 53 946 l 53 1032 l 793 1032 l 811 799 l 714 799 l 668 936 l 368 949 l 368 575 l 561 579 l 583 693 l 672 693 l 672 357 l 583 357 l 561 476 l 368 481 l 368 89 l 704 106 l 785 283 l 889 254 l 853 0 l 54 0 l 54 83 l 164 97 l 164 928 m 836 1163 q 742 1227 782 1193 q 681 1292 701 1261 l 768 1365 l 900 1224 l 836 1163 m 536 1307 l 714 1125 l 657 1071 l 474 1196 l 288 1069 l 232 1125 l 411 1307 l 536 1307 z "},"Ể":{"ha":910,"x_min":53,"x_max":924,"o":"m 164 928 l 53 946 l 53 1032 l 793 1032 l 811 799 l 714 799 l 668 936 l 368 949 l 368 575 l 561 579 l 583 693 l 672 693 l 672 357 l 583 357 l 561 476 l 368 481 l 368 89 l 704 106 l 785 283 l 889 254 l 853 0 l 54 0 l 54 83 l 164 97 l 164 928 m 775 1082 q 753 1133 753 1114 q 761 1160 753 1150 q 788 1186 769 1171 q 813 1209 804 1199 q 822 1236 822 1219 q 809 1269 822 1256 q 767 1285 796 1283 q 735 1281 753 1285 q 707 1271 718 1276 l 703 1356 q 732 1363 706 1360 q 775 1365 758 1365 q 924 1256 924 1365 q 910 1201 924 1221 q 868 1160 896 1182 l 843 1138 q 831 1110 831 1125 q 833 1094 831 1106 l 775 1082 m 536 1307 l 714 1125 l 657 1071 l 474 1196 l 288 1069 l 232 1125 l 411 1307 l 536 1307 z "},"Ễ":{"ha":910,"x_min":53,"x_max":889,"o":"m 164 928 l 53 946 l 53 1032 l 793 1032 l 811 799 l 714 799 l 668 936 l 368 949 l 368 575 l 561 579 l 583 693 l 672 693 l 672 357 l 583 357 l 561 476 l 368 481 l 368 89 l 704 106 l 785 283 l 889 254 l 853 0 l 54 0 l 54 83 l 164 97 l 164 928 m 271 1344 q 288 1397 272 1369 q 333 1444 304 1425 q 401 1464 363 1464 q 456 1452 431 1464 q 511 1418 481 1440 q 556 1391 540 1399 q 589 1383 571 1383 q 635 1394 621 1383 q 671 1435 650 1406 l 718 1401 q 672 1321 710 1353 q 578 1289 633 1289 q 528 1300 551 1289 q 472 1332 506 1311 q 431 1359 449 1350 q 393 1368 413 1368 q 354 1353 371 1368 q 317 1313 338 1339 l 271 1344 m 535 1256 l 724 1128 l 675 1071 l 474 1158 l 268 1069 l 224 1128 l 411 1256 l 535 1256 z "},"Ë":{"ha":910,"x_min":53,"x_max":889,"o":"m 164 928 l 53 946 l 53 1032 l 793 1032 l 811 799 l 714 799 l 668 936 l 368 949 l 368 575 l 561 579 l 583 693 l 672 693 l 672 357 l 583 357 l 561 476 l 368 481 l 368 89 l 704 106 l 785 283 l 889 254 l 853 0 l 54 0 l 54 83 l 164 97 l 164 928 m 283 1124 q 219 1153 244 1124 q 194 1222 194 1182 q 222 1306 194 1274 q 301 1339 249 1339 l 303 1339 q 375 1310 350 1339 q 400 1240 400 1282 q 371 1156 400 1189 q 285 1124 342 1124 l 283 1124 m 636 1124 q 572 1153 597 1124 q 547 1222 547 1183 q 574 1306 547 1274 q 654 1339 601 1339 l 656 1339 q 728 1310 704 1339 q 753 1240 753 1282 q 724 1156 753 1188 q 636 1124 694 1124 z "},"Ė":{"ha":910,"x_min":53,"x_max":889,"o":"m 164 928 l 53 946 l 53 1032 l 793 1032 l 811 799 l 714 799 l 668 936 l 368 949 l 368 575 l 561 579 l 583 693 l 672 693 l 672 357 l 583 357 l 561 476 l 368 481 l 368 89 l 704 106 l 785 283 l 889 254 l 853 0 l 54 0 l 54 83 l 164 97 l 164 928 m 464 1135 q 390 1163 418 1135 q 361 1232 361 1190 q 392 1314 361 1282 q 476 1346 422 1346 q 556 1317 526 1346 q 586 1247 586 1289 q 556 1165 586 1196 q 464 1135 525 1135 z "},"Ẹ":{"ha":910,"x_min":53,"x_max":889,"o":"m 164 928 l 53 946 l 53 1032 l 793 1032 l 811 799 l 714 799 l 668 936 l 368 949 l 368 575 l 561 579 l 583 693 l 672 693 l 672 357 l 583 357 l 561 476 l 368 481 l 368 89 l 704 106 l 785 283 l 889 254 l 853 0 l 54 0 l 54 83 l 164 97 l 164 928 m 446 -301 q 373 -272 401 -301 q 344 -200 344 -243 q 376 -116 344 -150 q 460 -82 407 -82 q 538 -111 510 -82 q 567 -182 567 -140 q 536 -268 567 -235 q 447 -301 506 -301 l 446 -301 z "},"È":{"ha":910,"x_min":53,"x_max":889,"o":"m 164 928 l 53 946 l 53 1032 l 793 1032 l 811 799 l 714 799 l 668 936 l 368 949 l 368 575 l 561 579 l 583 693 l 672 693 l 672 357 l 583 357 l 561 476 l 368 481 l 368 89 l 704 106 l 785 283 l 889 254 l 853 0 l 54 0 l 54 83 l 164 97 l 164 928 m 500 1104 q 374 1176 449 1124 q 260 1276 300 1228 l 393 1364 l 581 1157 l 500 1104 z "},"Ẻ":{"ha":910,"x_min":53,"x_max":889,"o":"m 164 928 l 53 946 l 53 1032 l 793 1032 l 811 799 l 714 799 l 668 936 l 368 949 l 368 575 l 561 579 l 583 693 l 672 693 l 672 357 l 583 357 l 561 476 l 368 481 l 368 89 l 704 106 l 785 283 l 889 254 l 853 0 l 54 0 l 54 83 l 164 97 l 164 928 m 439 1078 q 424 1103 431 1088 q 417 1136 417 1119 q 426 1158 417 1149 q 451 1178 435 1167 q 478 1200 469 1190 q 488 1225 488 1210 q 470 1261 488 1250 q 413 1272 453 1272 q 377 1268 396 1272 q 347 1256 358 1264 l 344 1344 q 392 1360 364 1354 q 446 1365 421 1365 q 622 1251 622 1365 q 602 1196 622 1217 q 539 1147 582 1175 q 514 1101 514 1133 q 517 1078 514 1086 l 439 1078 z "},"Ē":{"ha":910,"x_min":53,"x_max":889,"o":"m 164 928 l 53 946 l 53 1032 l 793 1032 l 811 799 l 714 799 l 668 936 l 368 949 l 368 575 l 561 579 l 583 693 l 672 693 l 672 357 l 583 357 l 561 476 l 368 481 l 368 89 l 704 106 l 785 283 l 889 254 l 853 0 l 54 0 l 54 83 l 164 97 l 164 928 m 692 1171 l 256 1171 l 256 1292 l 692 1292 l 692 1171 z "},"Ę":{"ha":910,"x_min":53,"x_max":889,"o":"m 164 928 l 53 946 l 53 1032 l 793 1032 l 811 799 l 714 799 l 668 936 l 368 949 l 368 575 l 561 579 l 583 693 l 672 693 l 672 357 l 583 357 l 561 476 l 368 481 l 368 89 l 704 106 l 785 283 l 889 254 l 853 0 l 840 0 q 754 -37 796 -10 q 688 -97 713 -64 q 663 -157 663 -131 q 688 -216 663 -196 q 756 -236 713 -236 q 847 -215 800 -236 l 847 -301 q 772 -335 819 -322 q 681 -347 725 -347 q 549 -312 599 -347 q 499 -211 499 -276 q 554 -92 499 -150 q 700 0 610 -33 l 54 0 l 54 83 l 164 97 l 164 928 z "},"Ẽ":{"ha":910,"x_min":53,"x_max":889,"o":"m 164 928 l 53 946 l 53 1032 l 793 1032 l 811 799 l 714 799 l 668 936 l 368 949 l 368 575 l 561 579 l 583 693 l 672 693 l 672 357 l 583 357 l 561 476 l 368 481 l 368 89 l 704 106 l 785 283 l 889 254 l 853 0 l 54 0 l 54 83 l 164 97 l 164 928 m 575 1122 q 510 1135 535 1122 q 451 1176 485 1149 q 411 1207 428 1197 q 374 1217 394 1217 q 322 1195 340 1217 q 290 1133 304 1174 l 213 1181 q 276 1294 233 1253 q 379 1335 318 1335 q 447 1320 419 1335 q 506 1278 474 1306 q 546 1248 531 1257 q 581 1239 561 1239 q 663 1324 635 1239 l 740 1276 q 575 1122 696 1122 z "},"F":{"ha":864,"x_min":50,"x_max":831,"o":"m 164 928 l 50 946 l 50 1032 l 817 1032 l 831 781 l 719 781 l 668 933 l 368 949 l 368 556 l 575 560 l 601 682 l 690 682 l 690 329 l 603 329 l 575 454 l 368 460 l 368 97 l 581 83 l 581 0 l 57 0 l 57 83 l 164 97 l 164 928 z "},"Ḟ":{"ha":864,"x_min":50,"x_max":831,"o":"m 164 928 l 50 946 l 50 1032 l 817 1032 l 831 781 l 719 781 l 668 933 l 368 949 l 368 556 l 575 560 l 601 682 l 690 682 l 690 329 l 603 329 l 575 454 l 368 460 l 368 97 l 581 83 l 581 0 l 57 0 l 57 83 l 164 97 l 164 928 m 457 1135 q 383 1163 411 1135 q 354 1232 354 1190 q 385 1314 354 1282 q 469 1346 415 1346 q 549 1317 519 1346 q 579 1247 579 1289 q 549 1165 579 1196 q 457 1135 518 1135 z "},"G":{"ha":1033,"x_min":49,"x_max":1007,"o":"m 536 -15 q 273 52 383 -15 q 106 238 163 119 q 49 504 49 356 q 115 797 49 675 q 301 982 181 919 q 583 1044 422 1044 q 924 1001 735 1044 l 908 743 l 768 743 l 731 921 q 678 947 717 935 q 576 958 639 958 q 363 848 440 958 q 285 529 285 738 q 351 199 285 325 q 554 74 418 74 q 658 88 610 74 q 732 124 707 101 l 732 422 l 585 436 l 585 529 l 1007 529 l 1007 436 l 933 424 l 933 56 q 828 32 904 54 q 676 -3 739 8 q 536 -15 613 -15 z "},"Ǵ":{"ha":1033,"x_min":49,"x_max":1007,"o":"m 536 -15 q 273 52 383 -15 q 106 238 163 119 q 49 504 49 356 q 115 797 49 675 q 301 982 181 919 q 583 1044 422 1044 q 924 1001 735 1044 l 908 743 l 768 743 l 731 921 q 678 947 717 935 q 576 958 639 958 q 363 848 440 958 q 285 529 285 738 q 351 199 285 325 q 554 74 418 74 q 658 88 610 74 q 732 124 707 101 l 732 422 l 585 436 l 585 529 l 1007 529 l 1007 436 l 933 424 l 933 56 q 828 32 904 54 q 676 -3 739 8 q 536 -15 613 -15 m 446 1157 l 626 1364 l 767 1276 q 651 1173 719 1222 q 533 1104 582 1124 l 446 1157 z "},"Ğ":{"ha":1033,"x_min":49,"x_max":1007,"o":"m 536 -15 q 273 52 383 -15 q 106 238 163 119 q 49 504 49 356 q 115 797 49 675 q 301 982 181 919 q 583 1044 422 1044 q 924 1001 735 1044 l 908 743 l 768 743 l 731 921 q 678 947 717 935 q 576 958 639 958 q 363 848 440 958 q 285 529 285 738 q 351 199 285 325 q 554 74 418 74 q 658 88 610 74 q 732 124 707 101 l 732 422 l 585 436 l 585 529 l 1007 529 l 1007 436 l 933 424 l 933 56 q 828 32 904 54 q 676 -3 739 8 q 536 -15 613 -15 m 557 1108 q 419 1138 476 1108 q 334 1217 363 1168 q 306 1328 306 1267 q 307 1358 306 1349 l 404 1358 q 406 1342 404 1349 q 558 1235 429 1235 q 711 1342 688 1235 q 713 1358 713 1349 l 810 1358 q 811 1329 811 1349 q 781 1218 811 1268 q 694 1138 751 1168 q 557 1108 636 1108 z "},"Ǧ":{"ha":1033,"x_min":49,"x_max":1007,"o":"m 536 -15 q 273 52 383 -15 q 106 238 163 119 q 49 504 49 356 q 115 797 49 675 q 301 982 181 919 q 583 1044 422 1044 q 924 1001 735 1044 l 908 743 l 768 743 l 731 921 q 678 947 717 935 q 576 958 639 958 q 363 848 440 958 q 285 529 285 738 q 351 199 285 325 q 554 74 418 74 q 658 88 610 74 q 732 124 707 101 l 732 422 l 585 436 l 585 529 l 1007 529 l 1007 436 l 933 424 l 933 56 q 828 32 904 54 q 676 -3 739 8 q 536 -15 613 -15 m 560 1238 l 742 1365 l 808 1311 l 622 1119 l 497 1119 l 308 1311 l 378 1365 l 560 1238 z "},"Ĝ":{"ha":1033,"x_min":49,"x_max":1007,"o":"m 536 -15 q 273 52 383 -15 q 106 238 163 119 q 49 504 49 356 q 115 797 49 675 q 301 982 181 919 q 583 1044 422 1044 q 924 1001 735 1044 l 908 743 l 768 743 l 731 921 q 678 947 717 935 q 576 958 639 958 q 363 848 440 958 q 285 529 285 738 q 351 199 285 325 q 554 74 418 74 q 658 88 610 74 q 732 124 707 101 l 732 422 l 585 436 l 585 529 l 1007 529 l 1007 436 l 933 424 l 933 56 q 828 32 904 54 q 676 -3 739 8 q 536 -15 613 -15 m 622 1363 l 822 1161 l 754 1107 l 560 1243 l 364 1107 l 297 1160 l 499 1363 l 622 1363 z "},"Ģ":{"ha":1033,"x_min":49,"x_max":1007,"o":"m 536 -15 q 273 52 383 -15 q 106 238 163 119 q 49 504 49 356 q 115 797 49 675 q 301 982 181 919 q 583 1044 422 1044 q 924 1001 735 1044 l 908 743 l 768 743 l 731 921 q 678 947 717 935 q 576 958 639 958 q 363 848 440 958 q 285 529 285 738 q 351 199 285 325 q 554 74 418 74 q 658 88 610 74 q 732 124 707 101 l 732 422 l 585 436 l 585 529 l 1007 529 l 1007 436 l 933 424 l 933 56 q 828 32 904 54 q 676 -3 739 8 q 536 -15 613 -15 m 622 -178 q 601 -270 622 -226 q 553 -343 581 -314 q 508 -379 525 -372 l 507 -379 l 444 -357 l 443 -347 q 470 -312 460 -339 q 481 -257 481 -285 q 474 -228 481 -237 q 453 -207 467 -218 q 424 -146 424 -186 q 453 -87 424 -106 q 517 -68 483 -68 l 521 -68 q 594 -97 567 -68 q 622 -178 622 -125 z "},"Ġ":{"ha":1033,"x_min":49,"x_max":1007,"o":"m 536 -15 q 273 52 383 -15 q 106 238 163 119 q 49 504 49 356 q 115 797 49 675 q 301 982 181 919 q 583 1044 422 1044 q 924 1001 735 1044 l 908 743 l 768 743 l 731 921 q 678 947 717 935 q 576 958 639 958 q 363 848 440 958 q 285 529 285 738 q 351 199 285 325 q 554 74 418 74 q 658 88 610 74 q 732 124 707 101 l 732 422 l 585 436 l 585 529 l 1007 529 l 1007 436 l 933 424 l 933 56 q 828 32 904 54 q 676 -3 739 8 q 536 -15 613 -15 m 549 1135 q 474 1163 503 1135 q 446 1232 446 1190 q 476 1314 446 1282 q 561 1346 507 1346 q 641 1317 611 1346 q 671 1247 671 1289 q 640 1165 671 1196 q 549 1135 610 1135 z "},"Ḡ":{"ha":1033,"x_min":49,"x_max":1007,"o":"m 536 -15 q 273 52 383 -15 q 106 238 163 119 q 49 504 49 356 q 115 797 49 675 q 301 982 181 919 q 583 1044 422 1044 q 924 1001 735 1044 l 908 743 l 768 743 l 731 921 q 678 947 717 935 q 576 958 639 958 q 363 848 440 958 q 285 529 285 738 q 351 199 285 325 q 554 74 418 74 q 658 88 610 74 q 732 124 707 101 l 732 422 l 585 436 l 585 529 l 1007 529 l 1007 436 l 933 424 l 933 56 q 828 32 904 54 q 676 -3 739 8 q 536 -15 613 -15 m 776 1171 l 340 1171 l 340 1292 l 776 1292 l 776 1171 z "},"H":{"ha":1160,"x_min":60,"x_max":1100,"o":"m 165 928 l 63 946 l 63 1032 l 485 1032 l 485 946 l 368 928 l 368 579 l 790 579 l 790 928 l 683 946 l 683 1032 l 1100 1032 l 1100 946 l 994 928 l 994 97 l 1100 83 l 1100 0 l 682 0 l 682 83 l 790 97 l 790 474 l 368 474 l 368 97 l 485 83 l 485 0 l 60 0 l 60 83 l 165 97 l 165 928 z "},"Ħ":{"ha":1160,"x_min":36,"x_max":1135,"o":"m 165 928 l 63 946 l 63 1032 l 483 1032 l 483 946 l 368 928 l 368 769 l 792 769 l 792 928 l 683 946 l 683 1032 l 1100 1032 l 1100 946 l 994 928 l 994 769 l 1135 769 l 1135 688 l 994 688 l 994 97 l 1100 82 l 1100 0 l 683 0 l 683 82 l 790 99 l 792 407 l 368 407 l 367 97 l 485 83 l 485 0 l 60 0 l 60 83 l 165 97 l 165 688 l 36 688 l 36 769 l 165 769 l 165 928 m 368 688 l 368 511 l 792 511 l 792 688 l 368 688 z "},"Ĥ":{"ha":1160,"x_min":60,"x_max":1100,"o":"m 165 928 l 63 946 l 63 1032 l 485 1032 l 485 946 l 368 928 l 368 579 l 790 579 l 790 928 l 683 946 l 683 1032 l 1100 1032 l 1100 946 l 994 928 l 994 97 l 1100 83 l 1100 0 l 682 0 l 682 83 l 790 97 l 790 474 l 368 474 l 368 97 l 485 83 l 485 0 l 60 0 l 60 83 l 165 97 l 165 928 m 653 1363 l 853 1161 l 785 1107 l 590 1243 l 394 1107 l 328 1160 l 529 1363 l 653 1363 z "},"Ḥ":{"ha":1160,"x_min":60,"x_max":1100,"o":"m 165 928 l 63 946 l 63 1032 l 485 1032 l 485 946 l 368 928 l 368 579 l 790 579 l 790 928 l 683 946 l 683 1032 l 1100 1032 l 1100 946 l 994 928 l 994 97 l 1100 83 l 1100 0 l 682 0 l 682 83 l 790 97 l 790 474 l 368 474 l 368 97 l 485 83 l 485 0 l 60 0 l 60 83 l 165 97 l 165 928 m 574 -301 q 501 -272 529 -301 q 472 -200 472 -243 q 503 -116 472 -150 q 588 -82 535 -82 q 666 -111 638 -82 q 694 -182 694 -140 q 664 -268 694 -235 q 575 -301 633 -301 l 574 -301 z "},"I":{"ha":571,"x_min":64,"x_max":508,"o":"m 182 928 l 64 946 l 64 1032 l 508 1032 l 508 946 l 386 928 l 386 97 l 508 82 l 508 0 l 64 0 l 64 83 l 182 97 l 182 928 z "},"Ĳ":{"ha":1114,"x_min":64,"x_max":1075,"o":"m 182 928 l 64 946 l 64 1032 l 508 1032 l 508 946 l 386 928 l 386 97 l 508 82 l 508 0 l 64 0 l 64 83 l 182 97 l 182 928 m 553 -189 q 656 -125 608 -171 q 726 -10 704 -79 q 749 103 742 38 q 756 289 756 169 l 756 926 l 631 946 l 631 1032 l 1075 1032 l 1075 946 l 958 928 l 958 382 q 955 152 958 233 q 940 22 951 71 q 821 -165 911 -90 q 599 -261 731 -239 l 553 -189 z "},"Í":{"ha":571,"x_min":64,"x_max":508,"o":"m 182 928 l 64 946 l 64 1032 l 508 1032 l 508 946 l 386 928 l 386 97 l 508 82 l 508 0 l 64 0 l 64 83 l 182 97 l 182 928 m 174 1157 l 354 1364 l 494 1276 q 378 1173 447 1222 q 261 1104 310 1124 l 174 1157 z "},"Ĭ":{"ha":571,"x_min":33,"x_max":539,"o":"m 182 928 l 64 946 l 64 1032 l 508 1032 l 508 946 l 386 928 l 386 97 l 508 82 l 508 0 l 64 0 l 64 83 l 182 97 l 182 928 m 285 1108 q 147 1138 204 1108 q 62 1217 90 1168 q 33 1328 33 1267 q 35 1358 33 1349 l 132 1358 q 133 1342 132 1349 q 286 1235 157 1235 q 439 1342 415 1235 q 440 1358 440 1349 l 538 1358 q 539 1329 539 1349 q 509 1218 539 1268 q 422 1138 479 1168 q 285 1108 364 1108 z "},"Ǐ":{"ha":571,"x_min":36,"x_max":536,"o":"m 182 928 l 64 946 l 64 1032 l 508 1032 l 508 946 l 386 928 l 386 97 l 508 82 l 508 0 l 64 0 l 64 83 l 182 97 l 182 928 m 288 1238 l 469 1365 l 536 1311 l 350 1119 l 225 1119 l 36 1311 l 106 1365 l 288 1238 z "},"Î":{"ha":571,"x_min":25,"x_max":550,"o":"m 182 928 l 64 946 l 64 1032 l 508 1032 l 508 946 l 386 928 l 386 97 l 508 82 l 508 0 l 64 0 l 64 83 l 182 97 l 182 928 m 350 1363 l 550 1161 l 482 1107 l 288 1243 l 92 1107 l 25 1160 l 226 1363 l 350 1363 z "},"Ï":{"ha":571,"x_min":7,"x_max":565,"o":"m 182 928 l 64 946 l 64 1032 l 508 1032 l 508 946 l 386 928 l 386 97 l 508 82 l 508 0 l 64 0 l 64 83 l 182 97 l 182 928 m 96 1124 q 32 1153 57 1124 q 7 1222 7 1182 q 34 1306 7 1274 q 114 1339 61 1339 l 115 1339 q 188 1310 163 1339 q 213 1240 213 1282 q 183 1156 213 1189 q 97 1124 154 1124 l 96 1124 m 449 1124 q 385 1153 410 1124 q 360 1222 360 1183 q 387 1306 360 1274 q 467 1339 414 1339 l 468 1339 q 541 1310 517 1339 q 565 1240 565 1282 q 536 1156 565 1188 q 449 1124 507 1124 z "},"İ":{"ha":571,"x_min":64,"x_max":508,"o":"m 182 928 l 64 946 l 64 1032 l 508 1032 l 508 946 l 386 928 l 386 97 l 508 82 l 508 0 l 64 0 l 64 83 l 182 97 l 182 928 m 276 1135 q 202 1163 231 1135 q 174 1232 174 1190 q 204 1314 174 1282 q 289 1346 235 1346 q 369 1317 339 1346 q 399 1247 399 1289 q 368 1165 399 1196 q 276 1135 338 1135 z "},"Ị":{"ha":571,"x_min":64,"x_max":508,"o":"m 182 928 l 64 946 l 64 1032 l 508 1032 l 508 946 l 386 928 l 386 97 l 508 82 l 508 0 l 64 0 l 64 83 l 182 97 l 182 928 m 276 -301 q 203 -272 232 -301 q 175 -200 175 -243 q 206 -116 175 -150 q 290 -82 238 -82 q 369 -111 340 -82 q 397 -182 397 -140 q 367 -268 397 -235 q 278 -301 336 -301 l 276 -301 z "},"Ì":{"ha":571,"x_min":64,"x_max":508,"o":"m 182 928 l 64 946 l 64 1032 l 508 1032 l 508 946 l 386 928 l 386 97 l 508 82 l 508 0 l 64 0 l 64 83 l 182 97 l 182 928 m 313 1104 q 187 1176 261 1124 q 72 1276 113 1228 l 206 1364 l 393 1157 l 313 1104 z "},"Ỉ":{"ha":571,"x_min":64,"x_max":508,"o":"m 182 928 l 64 946 l 64 1032 l 508 1032 l 508 946 l 386 928 l 386 97 l 508 82 l 508 0 l 64 0 l 64 83 l 182 97 l 182 928 m 251 1078 q 236 1103 243 1088 q 229 1136 229 1119 q 238 1158 229 1149 q 264 1178 247 1167 q 291 1200 282 1190 q 300 1225 300 1210 q 283 1261 300 1250 q 225 1272 265 1272 q 190 1268 208 1272 q 160 1256 171 1264 l 157 1344 q 205 1360 176 1354 q 258 1365 233 1365 q 435 1251 435 1365 q 415 1196 435 1217 q 351 1147 394 1175 q 326 1101 326 1133 q 329 1078 326 1086 l 251 1078 z "},"Ī":{"ha":571,"x_min":64,"x_max":508,"o":"m 182 928 l 64 946 l 64 1032 l 508 1032 l 508 946 l 386 928 l 386 97 l 508 82 l 508 0 l 64 0 l 64 83 l 182 97 l 182 928 m 504 1171 l 68 1171 l 68 1292 l 504 1292 l 504 1171 z "},"Į":{"ha":572,"x_min":65,"x_max":510,"o":"m 183 928 l 65 946 l 65 1032 l 510 1032 l 510 946 l 389 928 l 389 97 l 510 82 l 510 0 l 447 0 q 342 -72 385 -25 q 299 -157 299 -118 q 326 -216 299 -196 q 401 -236 353 -236 q 492 -215 444 -236 l 492 -301 q 415 -335 464 -322 q 322 -347 367 -347 q 188 -312 240 -347 q 136 -211 136 -276 q 192 -94 136 -153 q 328 0 247 -35 l 65 0 l 65 83 l 183 97 l 183 928 z "},"Ĩ":{"ha":571,"x_min":25,"x_max":553,"o":"m 182 928 l 64 946 l 64 1032 l 508 1032 l 508 946 l 386 928 l 386 97 l 508 82 l 508 0 l 64 0 l 64 83 l 182 97 l 182 928 m 388 1122 q 322 1135 347 1122 q 264 1176 297 1149 q 224 1207 240 1197 q 186 1217 207 1217 q 135 1195 153 1217 q 103 1133 117 1174 l 25 1181 q 88 1294 46 1253 q 192 1335 131 1335 q 259 1320 232 1335 q 318 1278 286 1306 q 358 1248 343 1257 q 393 1239 374 1239 q 475 1324 447 1239 l 553 1276 q 388 1122 508 1122 z "},"J":{"ha":543,"x_min":-18,"x_max":504,"o":"m -18 -189 q 85 -125 38 -171 q 156 -10 133 -79 q 178 103 171 38 q 185 289 185 169 l 185 926 l 60 946 l 60 1032 l 504 1032 l 504 946 l 388 928 l 388 382 q 384 152 388 233 q 369 22 381 71 q 250 -165 340 -90 q 28 -261 160 -239 l -18 -189 z "},"Ĵ":{"ha":543,"x_min":-18,"x_max":544,"o":"m -18 -189 q 85 -125 38 -171 q 156 -10 133 -79 q 178 103 171 38 q 185 289 185 169 l 185 926 l 60 946 l 60 1032 l 504 1032 l 504 946 l 388 928 l 388 382 q 384 152 388 233 q 369 22 381 71 q 250 -165 340 -90 q 28 -261 160 -239 l -18 -189 m 344 1363 l 544 1161 l 476 1107 l 282 1243 l 86 1107 l 19 1160 l 221 1363 l 344 1363 z "},"K":{"ha":1036,"x_min":56,"x_max":1040,"o":"m 792 0 q 738 53 771 0 q 644 224 704 107 q 558 385 593 324 q 492 486 524 446 l 368 344 l 368 97 l 488 82 l 488 0 l 56 0 l 56 83 l 165 97 l 165 928 l 57 946 l 57 1032 l 475 1032 l 475 946 l 368 928 l 368 475 l 733 928 l 619 946 l 619 1032 l 994 1032 l 994 946 l 879 928 l 610 625 q 713 499 658 581 q 844 288 767 418 q 931 148 901 192 q 975 97 960 104 l 1040 82 l 1040 0 l 792 0 z "},"Ķ":{"ha":1036,"x_min":56,"x_max":1040,"o":"m 792 0 q 738 53 771 0 q 644 224 704 107 q 558 385 593 324 q 492 486 524 446 l 368 344 l 368 97 l 488 82 l 488 0 l 56 0 l 56 83 l 165 97 l 165 928 l 57 946 l 57 1032 l 475 1032 l 475 946 l 368 928 l 368 475 l 733 928 l 619 946 l 619 1032 l 994 1032 l 994 946 l 879 928 l 610 625 q 713 499 658 581 q 844 288 767 418 q 931 148 901 192 q 975 97 960 104 l 1040 82 l 1040 0 l 792 0 m 672 -178 q 651 -270 672 -226 q 603 -343 631 -314 q 558 -379 575 -372 l 557 -379 l 494 -357 l 493 -347 q 520 -312 510 -339 q 531 -257 531 -285 q 524 -228 531 -237 q 503 -207 517 -218 q 474 -146 474 -186 q 503 -87 474 -106 q 567 -68 533 -68 l 571 -68 q 644 -97 617 -68 q 672 -178 672 -125 z "},"L":{"ha":886,"x_min":56,"x_max":867,"o":"m 165 928 l 58 946 l 58 1032 l 503 1032 l 503 946 l 369 928 l 369 99 l 667 111 l 754 371 l 867 356 l 824 0 l 56 0 l 56 83 l 165 97 l 165 928 z "},"Ǉ":{"ha":1429,"x_min":56,"x_max":1390,"o":"m 165 928 l 58 946 l 58 1032 l 503 1032 l 503 946 l 369 928 l 369 99 l 667 111 l 754 371 l 867 356 l 824 0 l 56 0 l 56 83 l 165 97 l 165 928 m 868 -189 q 972 -125 924 -171 q 1042 -10 1019 -79 q 1064 103 1057 38 q 1071 289 1071 169 l 1071 926 l 946 946 l 946 1032 l 1390 1032 l 1390 946 l 1274 928 l 1274 382 q 1270 152 1274 233 q 1256 22 1267 71 q 1136 -165 1226 -90 q 914 -261 1046 -239 l 868 -189 z "},"Ĺ":{"ha":886,"x_min":56,"x_max":867,"o":"m 165 928 l 58 946 l 58 1032 l 503 1032 l 503 946 l 369 928 l 369 99 l 667 111 l 754 371 l 867 356 l 824 0 l 56 0 l 56 83 l 165 97 l 165 928 m 163 1157 l 343 1364 l 483 1276 q 367 1173 436 1222 q 250 1104 299 1124 l 163 1157 z "},"Ľ":{"ha":886,"x_min":56,"x_max":867,"o":"m 165 928 l 58 946 l 58 1032 l 503 1032 l 503 946 l 369 928 l 369 99 l 667 111 l 754 371 l 867 356 l 824 0 l 56 0 l 56 83 l 165 97 l 165 928 m 656 833 l 651 847 q 660 993 660 897 q 642 1117 660 1076 l 649 1144 l 797 1144 q 810 1039 810 1114 q 796 929 810 986 q 763 832 782 872 l 656 833 z "},"Ļ":{"ha":886,"x_min":56,"x_max":867,"o":"m 165 928 l 58 946 l 58 1032 l 503 1032 l 503 946 l 369 928 l 369 99 l 667 111 l 754 371 l 867 356 l 824 0 l 56 0 l 56 83 l 165 97 l 165 928 m 564 -178 q 543 -270 564 -226 q 494 -343 522 -314 q 450 -379 467 -372 l 449 -379 l 386 -357 l 385 -347 q 412 -312 401 -339 q 422 -257 422 -285 q 415 -228 422 -237 q 394 -207 408 -218 q 365 -146 365 -186 q 395 -87 365 -106 q 458 -68 425 -68 l 463 -68 q 536 -97 508 -68 q 564 -178 564 -125 z "},"Ŀ":{"ha":1050,"x_min":56,"x_max":1021,"o":"m 165 928 l 58 946 l 58 1032 l 503 1032 l 503 946 l 369 928 l 369 99 l 667 111 l 754 371 l 867 356 l 824 0 l 56 0 l 56 83 l 165 97 l 165 928 m 893 474 q 818 503 850 474 q 786 579 786 533 q 823 663 786 631 q 913 696 860 696 q 992 665 963 696 q 1021 590 1021 633 q 985 506 1021 538 q 893 474 949 474 z "},"Ḷ":{"ha":886,"x_min":56,"x_max":867,"o":"m 165 928 l 58 946 l 58 1032 l 503 1032 l 503 946 l 369 928 l 369 99 l 667 111 l 754 371 l 867 356 l 824 0 l 56 0 l 56 83 l 165 97 l 165 928 m 449 -301 q 376 -272 404 -301 q 347 -200 347 -243 q 378 -116 347 -150 q 463 -82 410 -82 q 541 -111 513 -82 q 569 -182 569 -140 q 539 -268 569 -235 q 450 -301 508 -301 l 449 -301 z "},"ǈ":{"ha":1344,"x_min":56,"x_max":1244,"o":"m 165 928 l 58 946 l 58 1032 l 503 1032 l 503 946 l 369 928 l 369 99 l 667 111 l 754 371 l 867 356 l 824 0 l 56 0 l 56 83 l 165 97 l 165 928 m 1117 899 q 1038 928 1067 899 q 1010 1003 1010 957 q 1043 1090 1010 1056 q 1132 1125 1076 1125 q 1216 1095 1188 1125 q 1244 1021 1244 1065 q 1212 932 1244 965 q 1118 899 1179 899 l 1117 899 m 939 760 l 1190 790 l 1193 790 l 1231 763 l 1231 13 q 1190 -174 1231 -96 q 1088 -294 1150 -253 q 963 -337 1026 -335 q 878 -332 893 -337 l 868 -253 q 940 -237 904 -253 q 1016 -143 993 -215 q 1039 51 1039 -71 l 1038 638 l 939 664 l 939 760 z "},"Ł":{"ha":885,"x_min":32,"x_max":867,"o":"m 165 928 l 58 946 l 58 1032 l 503 1032 l 503 946 l 369 928 l 369 667 l 621 774 l 621 674 l 369 569 l 369 99 l 667 111 l 754 371 l 867 356 l 824 0 l 56 0 l 56 83 l 165 97 l 165 492 l 32 436 l 32 529 l 165 585 l 165 928 z "},"M":{"ha":1413,"x_min":4,"x_max":1408,"o":"m 222 928 l 72 946 l 72 1032 l 506 1032 l 671 435 l 710 272 l 743 435 l 907 1032 l 1336 1032 l 1336 946 l 1185 928 l 1296 99 l 1408 83 l 1408 0 l 965 0 l 965 83 l 1088 97 l 1026 706 l 1000 960 l 949 746 l 747 43 l 600 43 l 394 710 l 324 960 l 303 706 l 250 97 l 390 83 l 390 0 l 4 0 l 4 83 l 121 97 l 222 928 z "},"Ḿ":{"ha":1413,"x_min":4,"x_max":1408,"o":"m 222 928 l 72 946 l 72 1032 l 506 1032 l 671 435 l 710 272 l 743 435 l 907 1032 l 1336 1032 l 1336 946 l 1185 928 l 1296 99 l 1408 83 l 1408 0 l 965 0 l 965 83 l 1088 97 l 1026 706 l 1000 960 l 949 746 l 747 43 l 600 43 l 394 710 l 324 960 l 303 706 l 250 97 l 390 83 l 390 0 l 4 0 l 4 83 l 121 97 l 222 928 m 599 1157 l 779 1364 l 919 1276 q 803 1173 872 1222 q 686 1104 735 1124 l 599 1157 z "},"Ṁ":{"ha":1413,"x_min":4,"x_max":1408,"o":"m 222 928 l 72 946 l 72 1032 l 506 1032 l 671 435 l 710 272 l 743 435 l 907 1032 l 1336 1032 l 1336 946 l 1185 928 l 1296 99 l 1408 83 l 1408 0 l 965 0 l 965 83 l 1088 97 l 1026 706 l 1000 960 l 949 746 l 747 43 l 600 43 l 394 710 l 324 960 l 303 706 l 250 97 l 390 83 l 390 0 l 4 0 l 4 83 l 121 97 l 222 928 m 701 1135 q 627 1163 656 1135 q 599 1232 599 1190 q 629 1314 599 1282 q 714 1346 660 1346 q 794 1317 764 1346 q 824 1247 824 1289 q 793 1165 824 1196 q 701 1135 763 1135 z "},"N":{"ha":1115,"x_min":56,"x_max":1088,"o":"m 165 928 l 56 946 l 56 1032 l 371 1032 l 785 407 l 863 249 l 863 928 l 743 946 l 743 1032 l 1088 1032 l 1088 946 l 981 928 l 981 0 l 813 0 l 381 657 l 283 840 l 283 97 l 424 83 l 424 0 l 56 0 l 56 83 l 165 97 l 165 928 z "},"Ǌ":{"ha":1658,"x_min":56,"x_max":1619,"o":"m 165 928 l 56 946 l 56 1032 l 371 1032 l 785 407 l 863 249 l 863 928 l 743 946 l 743 1032 l 1088 1032 l 1088 946 l 981 928 l 981 0 l 813 0 l 381 657 l 283 840 l 283 97 l 424 83 l 424 0 l 56 0 l 56 83 l 165 97 l 165 928 m 1097 -189 q 1201 -125 1153 -171 q 1271 -10 1249 -79 q 1293 103 1286 38 q 1300 289 1300 169 l 1300 926 l 1175 946 l 1175 1032 l 1619 1032 l 1619 946 l 1503 928 l 1503 382 q 1499 152 1503 233 q 1485 22 1496 71 q 1365 -165 1456 -90 q 1143 -261 1275 -239 l 1097 -189 z "},"Ń":{"ha":1115,"x_min":56,"x_max":1088,"o":"m 165 928 l 56 946 l 56 1032 l 371 1032 l 785 407 l 863 249 l 863 928 l 743 946 l 743 1032 l 1088 1032 l 1088 946 l 981 928 l 981 0 l 813 0 l 381 657 l 283 840 l 283 97 l 424 83 l 424 0 l 56 0 l 56 83 l 165 97 l 165 928 m 467 1157 l 647 1364 l 788 1276 q 672 1173 740 1222 q 554 1104 603 1124 l 467 1157 z "},"Ň":{"ha":1115,"x_min":56,"x_max":1088,"o":"m 165 928 l 56 946 l 56 1032 l 371 1032 l 785 407 l 863 249 l 863 928 l 743 946 l 743 1032 l 1088 1032 l 1088 946 l 981 928 l 981 0 l 813 0 l 381 657 l 283 840 l 283 97 l 424 83 l 424 0 l 56 0 l 56 83 l 165 97 l 165 928 m 581 1238 l 763 1365 l 829 1311 l 643 1119 l 518 1119 l 329 1311 l 399 1365 l 581 1238 z "},"Ņ":{"ha":1115,"x_min":56,"x_max":1088,"o":"m 165 928 l 56 946 l 56 1032 l 371 1032 l 785 407 l 863 249 l 863 928 l 743 946 l 743 1032 l 1088 1032 l 1088 946 l 981 928 l 981 0 l 813 0 l 381 657 l 283 840 l 283 97 l 424 83 l 424 0 l 56 0 l 56 83 l 165 97 l 165 928 m 664 -178 q 643 -270 664 -226 q 594 -343 622 -314 q 550 -379 567 -372 l 549 -379 l 486 -357 l 485 -347 q 512 -312 501 -339 q 522 -257 522 -285 q 515 -228 522 -237 q 494 -207 508 -218 q 465 -146 465 -186 q 495 -87 465 -106 q 558 -68 525 -68 l 563 -68 q 636 -97 608 -68 q 664 -178 664 -125 z "},"Ṅ":{"ha":1115,"x_min":56,"x_max":1088,"o":"m 165 928 l 56 946 l 56 1032 l 371 1032 l 785 407 l 863 249 l 863 928 l 743 946 l 743 1032 l 1088 1032 l 1088 946 l 981 928 l 981 0 l 813 0 l 381 657 l 283 840 l 283 97 l 424 83 l 424 0 l 56 0 l 56 83 l 165 97 l 165 928 m 569 1135 q 495 1163 524 1135 q 467 1232 467 1190 q 497 1314 467 1282 q 582 1346 528 1346 q 662 1317 632 1346 q 692 1247 692 1289 q 661 1165 692 1196 q 569 1135 631 1135 z "},"Ṇ":{"ha":1115,"x_min":56,"x_max":1088,"o":"m 165 928 l 56 946 l 56 1032 l 371 1032 l 785 407 l 863 249 l 863 928 l 743 946 l 743 1032 l 1088 1032 l 1088 946 l 981 928 l 981 0 l 813 0 l 381 657 l 283 840 l 283 97 l 424 83 l 424 0 l 56 0 l 56 83 l 165 97 l 165 928 m 549 -301 q 476 -272 504 -301 q 447 -200 447 -243 q 478 -116 447 -150 q 563 -82 510 -82 q 641 -111 613 -82 q 669 -182 669 -140 q 639 -268 669 -235 q 550 -301 608 -301 l 549 -301 z "},"Ŋ":{"ha":1103,"x_min":53,"x_max":1096,"o":"m 171 935 l 53 956 l 53 1032 l 369 1032 l 769 407 l 865 222 l 865 928 l 743 947 l 743 1032 l 1096 1032 l 1096 947 l 982 928 l 982 265 q 964 67 982 147 q 921 -58 946 -12 q 863 -143 896 -103 q 610 -276 760 -257 l 568 -210 q 761 -60 699 -158 q 794 4 779 -36 l 371 671 l 289 832 l 289 97 l 419 82 l 419 0 l 53 0 l 53 82 l 171 97 l 171 935 z "},"ǋ":{"ha":1574,"x_min":56,"x_max":1474,"o":"m 165 928 l 56 946 l 56 1032 l 371 1032 l 785 407 l 863 249 l 863 928 l 743 946 l 743 1032 l 1088 1032 l 1088 946 l 981 928 l 981 0 l 813 0 l 381 657 l 283 840 l 283 97 l 424 83 l 424 0 l 56 0 l 56 83 l 165 97 l 165 928 m 1346 899 q 1267 928 1296 899 q 1239 1003 1239 957 q 1272 1090 1239 1056 q 1361 1125 1306 1125 q 1445 1095 1417 1125 q 1474 1021 1474 1065 q 1441 932 1474 965 q 1347 899 1408 899 l 1346 899 m 1168 760 l 1419 790 l 1422 790 l 1460 763 l 1460 13 q 1419 -174 1460 -96 q 1317 -294 1379 -253 q 1192 -337 1256 -335 q 1107 -332 1122 -337 l 1097 -253 q 1169 -237 1133 -253 q 1245 -143 1222 -215 q 1268 51 1268 -71 l 1267 638 l 1168 664 l 1168 760 z "},"Ñ":{"ha":1115,"x_min":56,"x_max":1088,"o":"m 165 928 l 56 946 l 56 1032 l 371 1032 l 785 407 l 863 249 l 863 928 l 743 946 l 743 1032 l 1088 1032 l 1088 946 l 981 928 l 981 0 l 813 0 l 381 657 l 283 840 l 283 97 l 424 83 l 424 0 l 56 0 l 56 83 l 165 97 l 165 928 m 681 1122 q 615 1135 640 1122 q 557 1176 590 1149 q 517 1207 533 1197 q 479 1217 500 1217 q 428 1195 446 1217 q 396 1133 410 1174 l 318 1181 q 381 1294 339 1253 q 485 1335 424 1335 q 552 1320 525 1335 q 611 1278 579 1306 q 651 1248 636 1257 q 686 1239 667 1239 q 768 1324 740 1239 l 846 1276 q 681 1122 801 1122 z "},"O":{"ha":1011,"x_min":42,"x_max":971,"o":"m 493 -15 q 154 126 267 -15 q 42 513 42 268 q 101 793 42 672 q 267 979 160 914 q 513 1044 374 1044 q 856 909 742 1044 q 971 531 971 774 q 910 245 971 369 q 742 53 850 121 q 493 -15 633 -15 m 507 960 q 329 847 393 960 q 265 514 265 735 q 327 183 265 296 q 504 69 389 69 q 681 188 617 69 q 744 531 744 307 q 683 853 744 747 q 507 960 622 960 z "},"Ó":{"ha":1011,"x_min":42,"x_max":971,"o":"m 493 -15 q 154 126 267 -15 q 42 513 42 268 q 101 793 42 672 q 267 979 160 914 q 513 1044 374 1044 q 856 909 742 1044 q 971 531 971 774 q 910 245 971 369 q 742 53 850 121 q 493 -15 633 -15 m 507 960 q 329 847 393 960 q 265 514 265 735 q 327 183 265 296 q 504 69 389 69 q 681 188 617 69 q 744 531 744 307 q 683 853 744 747 q 507 960 622 960 m 399 1157 l 579 1364 l 719 1276 q 603 1173 672 1222 q 486 1104 535 1124 l 399 1157 z "},"Ŏ":{"ha":1011,"x_min":42,"x_max":971,"o":"m 493 -15 q 154 126 267 -15 q 42 513 42 268 q 101 793 42 672 q 267 979 160 914 q 513 1044 374 1044 q 856 909 742 1044 q 971 531 971 774 q 910 245 971 369 q 742 53 850 121 q 493 -15 633 -15 m 507 960 q 329 847 393 960 q 265 514 265 735 q 327 183 265 296 q 504 69 389 69 q 681 188 617 69 q 744 531 744 307 q 683 853 744 747 q 507 960 622 960 m 510 1108 q 372 1138 429 1108 q 287 1217 315 1168 q 258 1328 258 1267 q 260 1358 258 1349 l 357 1358 q 358 1342 357 1349 q 511 1235 382 1235 q 664 1342 640 1235 q 665 1358 665 1349 l 763 1358 q 764 1329 764 1349 q 734 1218 764 1268 q 647 1138 704 1168 q 510 1108 589 1108 z "},"Ǒ":{"ha":1011,"x_min":42,"x_max":971,"o":"m 493 -15 q 154 126 267 -15 q 42 513 42 268 q 101 793 42 672 q 267 979 160 914 q 513 1044 374 1044 q 856 909 742 1044 q 971 531 971 774 q 910 245 971 369 q 742 53 850 121 q 493 -15 633 -15 m 507 960 q 329 847 393 960 q 265 514 265 735 q 327 183 265 296 q 504 69 389 69 q 681 188 617 69 q 744 531 744 307 q 683 853 744 747 q 507 960 622 960 m 513 1238 l 694 1365 l 761 1311 l 575 1119 l 450 1119 l 261 1311 l 331 1365 l 513 1238 z "},"Ô":{"ha":1011,"x_min":42,"x_max":971,"o":"m 493 -15 q 154 126 267 -15 q 42 513 42 268 q 101 793 42 672 q 267 979 160 914 q 513 1044 374 1044 q 856 909 742 1044 q 971 531 971 774 q 910 245 971 369 q 742 53 850 121 q 493 -15 633 -15 m 507 960 q 329 847 393 960 q 265 514 265 735 q 327 183 265 296 q 504 69 389 69 q 681 188 617 69 q 744 531 744 307 q 683 853 744 747 q 507 960 622 960 m 575 1363 l 775 1161 l 707 1107 l 513 1243 l 317 1107 l 250 1160 l 451 1363 l 575 1363 z "},"Ố":{"ha":1011,"x_min":42,"x_max":971,"o":"m 493 -15 q 154 126 267 -15 q 42 513 42 268 q 101 793 42 672 q 267 979 160 914 q 513 1044 374 1044 q 856 909 742 1044 q 971 531 971 774 q 910 245 971 369 q 742 53 850 121 q 493 -15 633 -15 m 507 960 q 329 847 393 960 q 265 514 265 735 q 327 183 265 296 q 504 69 389 69 q 681 188 617 69 q 744 531 744 307 q 683 853 744 747 q 507 960 622 960 m 738 1224 l 867 1365 l 956 1292 q 892 1226 933 1260 q 799 1164 851 1192 l 738 1224 m 574 1329 l 751 1129 l 694 1075 l 511 1214 l 325 1075 l 269 1129 l 449 1329 l 574 1329 z "},"Ộ":{"ha":1011,"x_min":42,"x_max":971,"o":"m 493 -15 q 154 126 267 -15 q 42 513 42 268 q 101 793 42 672 q 267 979 160 914 q 513 1044 374 1044 q 856 909 742 1044 q 971 531 971 774 q 910 245 971 369 q 742 53 850 121 q 493 -15 633 -15 m 507 960 q 329 847 393 960 q 265 514 265 735 q 327 183 265 296 q 504 69 389 69 q 681 188 617 69 q 744 531 744 307 q 683 853 744 747 q 507 960 622 960 m 496 -301 q 423 -272 451 -301 q 394 -200 394 -243 q 426 -116 394 -150 q 510 -82 457 -82 q 588 -111 560 -82 q 617 -182 617 -140 q 586 -268 617 -235 q 497 -301 556 -301 l 496 -301 m 575 1363 l 775 1161 l 707 1107 l 513 1243 l 317 1107 l 250 1160 l 451 1363 l 575 1363 z "},"Ồ":{"ha":1011,"x_min":42,"x_max":971,"o":"m 493 -15 q 154 126 267 -15 q 42 513 42 268 q 101 793 42 672 q 267 979 160 914 q 513 1044 374 1044 q 856 909 742 1044 q 971 531 971 774 q 910 245 971 369 q 742 53 850 121 q 493 -15 633 -15 m 507 960 q 329 847 393 960 q 265 514 265 735 q 327 183 265 296 q 504 69 389 69 q 681 188 617 69 q 744 531 744 307 q 683 853 744 747 q 507 960 622 960 m 874 1163 q 779 1227 819 1193 q 718 1292 739 1261 l 806 1365 l 938 1224 l 874 1163 m 574 1307 l 751 1125 l 694 1071 l 511 1196 l 325 1069 l 269 1125 l 449 1307 l 574 1307 z "},"Ổ":{"ha":1011,"x_min":42,"x_max":971,"o":"m 493 -15 q 154 126 267 -15 q 42 513 42 268 q 101 793 42 672 q 267 979 160 914 q 513 1044 374 1044 q 856 909 742 1044 q 971 531 971 774 q 910 245 971 369 q 742 53 850 121 q 493 -15 633 -15 m 507 960 q 329 847 393 960 q 265 514 265 735 q 327 183 265 296 q 504 69 389 69 q 681 188 617 69 q 744 531 744 307 q 683 853 744 747 q 507 960 622 960 m 813 1082 q 790 1133 790 1114 q 799 1160 790 1150 q 825 1186 807 1171 q 851 1209 842 1199 q 860 1236 860 1219 q 847 1269 860 1256 q 804 1285 833 1283 q 773 1281 790 1285 q 744 1271 756 1276 l 740 1356 q 769 1363 743 1360 q 813 1365 796 1365 q 961 1256 961 1365 q 947 1201 961 1221 q 906 1160 933 1182 l 881 1138 q 868 1110 868 1125 q 871 1094 868 1106 l 813 1082 m 574 1307 l 751 1125 l 694 1071 l 511 1196 l 325 1069 l 269 1125 l 449 1307 l 574 1307 z "},"Ỗ":{"ha":1011,"x_min":42,"x_max":971,"o":"m 493 -15 q 154 126 267 -15 q 42 513 42 268 q 101 793 42 672 q 267 979 160 914 q 513 1044 374 1044 q 856 909 742 1044 q 971 531 971 774 q 910 245 971 369 q 742 53 850 121 q 493 -15 633 -15 m 507 960 q 329 847 393 960 q 265 514 265 735 q 327 183 265 296 q 504 69 389 69 q 681 188 617 69 q 744 531 744 307 q 683 853 744 747 q 507 960 622 960 m 308 1344 q 326 1397 310 1369 q 371 1444 342 1425 q 439 1464 400 1464 q 493 1452 468 1464 q 549 1418 518 1440 q 593 1391 578 1399 q 626 1383 608 1383 q 673 1394 658 1383 q 708 1435 688 1406 l 756 1401 q 709 1321 747 1353 q 615 1289 671 1289 q 566 1300 589 1289 q 510 1332 543 1311 q 468 1359 486 1350 q 431 1368 450 1368 q 392 1353 408 1368 q 354 1313 375 1339 l 308 1344 m 572 1256 l 761 1128 l 713 1071 l 511 1158 l 306 1069 l 261 1128 l 449 1256 l 572 1256 z "},"Ö":{"ha":1011,"x_min":42,"x_max":971,"o":"m 493 -15 q 154 126 267 -15 q 42 513 42 268 q 101 793 42 672 q 267 979 160 914 q 513 1044 374 1044 q 856 909 742 1044 q 971 531 971 774 q 910 245 971 369 q 742 53 850 121 q 493 -15 633 -15 m 507 960 q 329 847 393 960 q 265 514 265 735 q 327 183 265 296 q 504 69 389 69 q 681 188 617 69 q 744 531 744 307 q 683 853 744 747 q 507 960 622 960 m 321 1124 q 257 1153 282 1124 q 232 1222 232 1182 q 259 1306 232 1274 q 339 1339 286 1339 l 340 1339 q 413 1310 388 1339 q 438 1240 438 1282 q 408 1156 438 1189 q 322 1124 379 1124 l 321 1124 m 674 1124 q 610 1153 635 1124 q 585 1222 585 1183 q 612 1306 585 1274 q 692 1339 639 1339 l 693 1339 q 766 1310 742 1339 q 790 1240 790 1282 q 761 1156 790 1188 q 674 1124 732 1124 z "},"Ọ":{"ha":1011,"x_min":42,"x_max":971,"o":"m 493 -15 q 154 126 267 -15 q 42 513 42 268 q 101 793 42 672 q 267 979 160 914 q 513 1044 374 1044 q 856 909 742 1044 q 971 531 971 774 q 910 245 971 369 q 742 53 850 121 q 493 -15 633 -15 m 507 960 q 329 847 393 960 q 265 514 265 735 q 327 183 265 296 q 504 69 389 69 q 681 188 617 69 q 744 531 744 307 q 683 853 744 747 q 507 960 622 960 m 496 -301 q 423 -272 451 -301 q 394 -200 394 -243 q 426 -116 394 -150 q 510 -82 457 -82 q 588 -111 560 -82 q 617 -182 617 -140 q 586 -268 617 -235 q 497 -301 556 -301 l 496 -301 z "},"Ò":{"ha":1011,"x_min":42,"x_max":971,"o":"m 493 -15 q 154 126 267 -15 q 42 513 42 268 q 101 793 42 672 q 267 979 160 914 q 513 1044 374 1044 q 856 909 742 1044 q 971 531 971 774 q 910 245 971 369 q 742 53 850 121 q 493 -15 633 -15 m 507 960 q 329 847 393 960 q 265 514 265 735 q 327 183 265 296 q 504 69 389 69 q 681 188 617 69 q 744 531 744 307 q 683 853 744 747 q 507 960 622 960 m 538 1104 q 412 1176 486 1124 q 297 1276 338 1228 l 431 1364 l 618 1157 l 538 1104 z "},"Ỏ":{"ha":1011,"x_min":42,"x_max":971,"o":"m 493 -15 q 154 126 267 -15 q 42 513 42 268 q 101 793 42 672 q 267 979 160 914 q 513 1044 374 1044 q 856 909 742 1044 q 971 531 971 774 q 910 245 971 369 q 742 53 850 121 q 493 -15 633 -15 m 507 960 q 329 847 393 960 q 265 514 265 735 q 327 183 265 296 q 504 69 389 69 q 681 188 617 69 q 744 531 744 307 q 683 853 744 747 q 507 960 622 960 m 476 1078 q 461 1103 468 1088 q 454 1136 454 1119 q 463 1158 454 1149 q 489 1178 472 1167 q 516 1200 507 1190 q 525 1225 525 1210 q 508 1261 525 1250 q 450 1272 490 1272 q 415 1268 433 1272 q 385 1256 396 1264 l 382 1344 q 430 1360 401 1354 q 483 1365 458 1365 q 660 1251 660 1365 q 640 1196 660 1217 q 576 1147 619 1175 q 551 1101 551 1133 q 554 1078 551 1086 l 476 1078 z "},"Ơ":{"ha":1011,"x_min":42,"x_max":1025,"o":"m 1025 1172 q 976 1011 1025 1075 q 844 922 928 947 q 971 531 971 792 q 910 245 971 369 q 742 53 850 121 q 493 -15 633 -15 q 154 126 267 -15 q 42 513 42 268 q 101 793 42 672 q 267 979 160 914 q 513 1044 374 1044 q 747 996 647 1044 q 827 1036 794 1006 q 876 1103 860 1067 q 892 1169 892 1140 q 888 1201 892 1189 l 1022 1201 q 1025 1172 1025 1182 m 504 69 q 681 188 617 69 q 744 531 744 307 q 683 853 744 747 q 507 960 622 960 q 329 847 393 960 q 265 514 265 735 q 327 183 265 296 q 504 69 389 69 z "},"Ớ":{"ha":1011,"x_min":42,"x_max":1025,"o":"m 1025 1172 q 976 1011 1025 1075 q 844 922 928 947 q 971 531 971 792 q 910 245 971 369 q 742 53 850 121 q 493 -15 633 -15 q 154 126 267 -15 q 42 513 42 268 q 101 793 42 672 q 267 979 160 914 q 513 1044 374 1044 q 747 996 647 1044 q 827 1036 794 1006 q 876 1103 860 1067 q 892 1169 892 1140 q 888 1201 892 1189 l 1022 1201 q 1025 1172 1025 1182 m 504 69 q 681 188 617 69 q 744 531 744 307 q 683 853 744 747 q 507 960 622 960 q 329 847 393 960 q 265 514 265 735 q 327 183 265 296 q 504 69 389 69 m 406 1157 l 586 1364 l 726 1276 q 610 1173 679 1222 q 493 1104 542 1124 l 406 1157 z "},"Ợ":{"ha":1011,"x_min":42,"x_max":1025,"o":"m 1025 1172 q 976 1011 1025 1075 q 844 922 928 947 q 971 531 971 792 q 910 245 971 369 q 742 53 850 121 q 493 -15 633 -15 q 154 126 267 -15 q 42 513 42 268 q 101 793 42 672 q 267 979 160 914 q 513 1044 374 1044 q 747 996 647 1044 q 827 1036 794 1006 q 876 1103 860 1067 q 892 1169 892 1140 q 888 1201 892 1189 l 1022 1201 q 1025 1172 1025 1182 m 504 69 q 681 188 617 69 q 744 531 744 307 q 683 853 744 747 q 507 960 622 960 q 329 847 393 960 q 265 514 265 735 q 327 183 265 296 q 504 69 389 69 m 496 -301 q 423 -272 451 -301 q 394 -200 394 -243 q 426 -116 394 -150 q 510 -82 457 -82 q 588 -111 560 -82 q 617 -182 617 -140 q 586 -268 617 -235 q 497 -301 556 -301 l 496 -301 z "},"Ờ":{"ha":1011,"x_min":42,"x_max":1025,"o":"m 1025 1172 q 976 1011 1025 1075 q 844 922 928 947 q 971 531 971 792 q 910 245 971 369 q 742 53 850 121 q 493 -15 633 -15 q 154 126 267 -15 q 42 513 42 268 q 101 793 42 672 q 267 979 160 914 q 513 1044 374 1044 q 747 996 647 1044 q 827 1036 794 1006 q 876 1103 860 1067 q 892 1169 892 1140 q 888 1201 892 1189 l 1022 1201 q 1025 1172 1025 1182 m 504 69 q 681 188 617 69 q 744 531 744 307 q 683 853 744 747 q 507 960 622 960 q 329 847 393 960 q 265 514 265 735 q 327 183 265 296 q 504 69 389 69 m 544 1104 q 419 1176 493 1124 q 304 1276 344 1228 l 438 1364 l 625 1157 l 544 1104 z "},"Ở":{"ha":1011,"x_min":42,"x_max":1025,"o":"m 1025 1172 q 976 1011 1025 1075 q 844 922 928 947 q 971 531 971 792 q 910 245 971 369 q 742 53 850 121 q 493 -15 633 -15 q 154 126 267 -15 q 42 513 42 268 q 101 793 42 672 q 267 979 160 914 q 513 1044 374 1044 q 747 996 647 1044 q 827 1036 794 1006 q 876 1103 860 1067 q 892 1169 892 1140 q 888 1201 892 1189 l 1022 1201 q 1025 1172 1025 1182 m 504 69 q 681 188 617 69 q 744 531 744 307 q 683 853 744 747 q 507 960 622 960 q 329 847 393 960 q 265 514 265 735 q 327 183 265 296 q 504 69 389 69 m 483 1078 q 468 1103 475 1088 q 461 1136 461 1119 q 470 1158 461 1149 q 496 1178 479 1167 q 523 1200 514 1190 q 532 1225 532 1210 q 515 1261 532 1250 q 457 1272 497 1272 q 422 1268 440 1272 q 392 1256 403 1264 l 389 1344 q 437 1360 408 1354 q 490 1365 465 1365 q 667 1251 667 1365 q 647 1196 667 1217 q 583 1147 626 1175 q 558 1101 558 1133 q 561 1078 558 1086 l 483 1078 z "},"Ỡ":{"ha":1011,"x_min":42,"x_max":1025,"o":"m 1025 1172 q 976 1011 1025 1075 q 844 922 928 947 q 971 531 971 792 q 910 245 971 369 q 742 53 850 121 q 493 -15 633 -15 q 154 126 267 -15 q 42 513 42 268 q 101 793 42 672 q 267 979 160 914 q 513 1044 374 1044 q 747 996 647 1044 q 827 1036 794 1006 q 876 1103 860 1067 q 892 1169 892 1140 q 888 1201 892 1189 l 1022 1201 q 1025 1172 1025 1182 m 504 69 q 681 188 617 69 q 744 531 744 307 q 683 853 744 747 q 507 960 622 960 q 329 847 393 960 q 265 514 265 735 q 327 183 265 296 q 504 69 389 69 m 619 1122 q 554 1135 579 1122 q 496 1176 529 1149 q 456 1207 472 1197 q 418 1217 439 1217 q 367 1195 385 1217 q 335 1133 349 1174 l 257 1181 q 320 1294 278 1253 q 424 1335 363 1335 q 491 1320 464 1335 q 550 1278 518 1306 q 590 1248 575 1257 q 625 1239 606 1239 q 707 1324 679 1239 l 785 1276 q 619 1122 740 1122 z "},"Ő":{"ha":1011,"x_min":42,"x_max":971,"o":"m 493 -15 q 154 126 267 -15 q 42 513 42 268 q 101 793 42 672 q 267 979 160 914 q 513 1044 374 1044 q 856 909 742 1044 q 971 531 971 774 q 910 245 971 369 q 742 53 850 121 q 493 -15 633 -15 m 507 960 q 329 847 393 960 q 265 514 265 735 q 327 183 265 296 q 504 69 389 69 q 681 188 617 69 q 744 531 744 307 q 683 853 744 747 q 507 960 622 960 m 547 1281 q 444 1186 510 1236 q 324 1106 378 1136 l 250 1168 l 440 1365 l 547 1281 m 889 1279 q 786 1184 853 1233 q 663 1106 719 1135 l 588 1169 l 788 1364 l 889 1279 z "},"Ō":{"ha":1011,"x_min":42,"x_max":971,"o":"m 493 -15 q 154 126 267 -15 q 42 513 42 268 q 101 793 42 672 q 267 979 160 914 q 513 1044 374 1044 q 856 909 742 1044 q 971 531 971 774 q 910 245 971 369 q 742 53 850 121 q 493 -15 633 -15 m 507 960 q 329 847 393 960 q 265 514 265 735 q 327 183 265 296 q 504 69 389 69 q 681 188 617 69 q 744 531 744 307 q 683 853 744 747 q 507 960 622 960 m 729 1171 l 293 1171 l 293 1292 l 729 1292 l 729 1171 z "},"Ø":{"ha":1011,"x_min":42,"x_max":971,"o":"m 265 35 q 97 217 153 94 q 42 513 42 340 q 101 793 42 672 q 267 979 160 914 q 513 1044 374 1044 q 660 1026 593 1044 l 718 1176 l 806 1150 l 744 996 q 915 820 858 940 q 971 531 971 700 q 911 247 971 371 q 744 55 851 124 q 499 -15 638 -14 q 353 1 419 -15 l 288 -154 l 196 -128 l 265 35 m 507 960 q 329 847 393 960 q 265 514 265 735 q 285 324 265 408 q 344 188 306 240 l 622 919 q 507 960 576 960 m 744 531 q 668 849 744 743 l 386 117 q 504 69 435 69 q 681 188 617 69 q 744 531 744 307 z "},"Ǿ":{"ha":1011,"x_min":42,"x_max":971,"o":"m 265 35 q 97 217 153 94 q 42 513 42 340 q 101 793 42 672 q 267 979 160 914 q 513 1044 374 1044 q 660 1026 593 1044 l 718 1176 l 806 1150 l 744 996 q 915 820 858 940 q 971 531 971 700 q 911 247 971 371 q 744 55 851 124 q 499 -15 638 -14 q 353 1 419 -15 l 288 -154 l 196 -128 l 265 35 m 507 960 q 329 847 393 960 q 265 514 265 735 q 285 324 265 408 q 344 188 306 240 l 622 919 q 507 960 576 960 m 744 531 q 668 849 744 743 l 386 117 q 504 69 435 69 q 681 188 617 69 q 744 531 744 307 m 401 1157 l 582 1364 l 722 1276 q 606 1173 675 1222 q 489 1104 538 1124 l 401 1157 z "},"Õ":{"ha":1011,"x_min":42,"x_max":971,"o":"m 493 -15 q 154 126 267 -15 q 42 513 42 268 q 101 793 42 672 q 267 979 160 914 q 513 1044 374 1044 q 856 909 742 1044 q 971 531 971 774 q 910 245 971 369 q 742 53 850 121 q 493 -15 633 -15 m 507 960 q 329 847 393 960 q 265 514 265 735 q 327 183 265 296 q 504 69 389 69 q 681 188 617 69 q 744 531 744 307 q 683 853 744 747 q 507 960 622 960 m 613 1122 q 547 1135 572 1122 q 489 1176 522 1149 q 449 1207 465 1197 q 411 1217 432 1217 q 360 1195 378 1217 q 328 1133 342 1174 l 250 1181 q 313 1294 271 1253 q 417 1335 356 1335 q 484 1320 457 1335 q 543 1278 511 1306 q 583 1248 568 1257 q 618 1239 599 1239 q 700 1324 672 1239 l 778 1276 q 613 1122 733 1122 z "},"Œ":{"ha":1439,"x_min":42,"x_max":1419,"o":"m 675 35 q 496 -11 597 -11 q 158 131 274 -11 q 42 514 42 274 q 102 797 42 676 q 273 983 163 918 q 529 1047 383 1047 q 675 1018 608 1047 l 675 1032 l 1308 1032 l 1328 796 l 1231 796 l 1186 935 l 882 947 l 882 575 l 1078 581 l 1099 693 l 1192 693 l 1192 357 l 1099 357 l 1078 476 l 882 481 l 882 88 l 1228 106 l 1321 281 l 1419 253 l 1372 0 l 675 0 l 675 35 m 508 72 q 675 208 617 72 l 675 853 q 610 938 650 913 q 507 964 569 964 q 328 849 392 964 q 264 514 264 733 q 328 188 264 303 q 508 72 393 72 z "},"P":{"ha":918,"x_min":56,"x_max":890,"o":"m 165 928 l 61 946 l 61 1032 l 271 1032 q 361 1035 300 1032 q 507 1040 442 1040 q 735 1005 651 1040 q 855 903 819 969 q 890 736 890 838 q 781 464 890 561 q 479 367 672 367 q 369 371 403 367 l 369 97 l 556 83 l 556 0 l 56 0 l 56 83 l 165 97 l 165 928 m 368 460 q 476 453 400 453 q 626 517 569 453 q 682 732 682 582 q 631 902 682 849 q 476 956 581 956 q 396 950 438 956 q 368 947 376 947 l 368 460 z "},"Ṗ":{"ha":918,"x_min":56,"x_max":890,"o":"m 165 928 l 61 946 l 61 1032 l 271 1032 q 361 1035 300 1032 q 507 1040 442 1040 q 735 1005 651 1040 q 855 903 819 969 q 890 736 890 838 q 781 464 890 561 q 479 367 672 367 q 369 371 403 367 l 369 97 l 556 83 l 556 0 l 56 0 l 56 83 l 165 97 l 165 928 m 368 460 q 476 453 400 453 q 626 517 569 453 q 682 732 682 582 q 631 902 682 849 q 476 956 581 956 q 396 950 438 956 q 368 947 376 947 l 368 460 m 499 1135 q 424 1163 453 1135 q 396 1232 396 1190 q 426 1314 396 1282 q 511 1346 457 1346 q 591 1317 561 1346 q 621 1247 621 1289 q 590 1165 621 1196 q 499 1135 560 1135 z "},"Þ":{"ha":917,"x_min":51,"x_max":885,"o":"m 163 928 l 53 947 l 53 1032 l 483 1032 l 485 947 l 367 928 l 367 796 l 419 800 q 572 810 501 810 q 806 741 726 810 q 885 535 885 672 q 792 299 885 378 q 532 221 700 221 q 367 228 454 221 l 367 97 l 511 82 l 511 0 l 51 0 l 51 82 l 163 97 l 163 928 m 497 304 q 621 362 574 304 q 668 526 668 419 q 624 668 668 615 q 489 721 581 721 q 367 710 425 721 l 367 310 q 447 304 406 304 q 497 304 489 304 z "},"Q":{"ha":1014,"x_min":43,"x_max":1272,"o":"m 1114 -265 q 997 -245 1053 -265 q 897 -196 942 -225 q 786 -118 853 -167 q 680 -44 721 -71 q 596 -6 639 -18 q 494 -15 538 -15 q 156 126 269 -15 q 43 513 43 268 q 102 793 43 672 q 268 979 161 914 q 514 1044 375 1044 q 858 909 744 1044 q 972 531 972 774 q 903 230 972 358 q 714 38 835 101 q 820 8 768 31 q 947 -53 872 -14 q 1084 -116 1029 -94 q 1192 -137 1139 -137 q 1254 -132 1229 -137 l 1272 -194 q 1203 -249 1242 -232 q 1114 -265 1165 -265 m 506 69 q 682 188 618 69 q 746 531 746 307 q 685 853 746 747 q 508 960 624 960 q 331 847 394 960 q 267 514 267 735 q 329 183 267 296 q 506 69 392 69 z "},"R":{"ha":1001,"x_min":54,"x_max":1007,"o":"m 54 83 l 164 97 l 164 928 l 60 947 l 60 1032 l 261 1032 q 319 1033 288 1032 q 368 1036 351 1035 q 488 1042 440 1042 q 717 1013 631 1042 q 842 924 803 983 q 881 767 881 864 q 829 589 881 671 q 681 476 778 507 q 779 390 736 453 q 871 228 822 328 q 924 130 906 160 q 961 96 943 100 l 1007 82 l 1007 0 l 771 0 q 724 45 749 0 q 661 188 700 90 q 582 365 615 301 q 511 444 549 429 l 368 444 l 368 97 l 496 83 l 496 0 l 54 0 l 54 83 m 496 529 q 619 586 575 529 q 664 757 664 643 q 620 907 664 858 q 469 956 576 956 q 403 952 431 956 q 368 949 376 949 l 368 532 q 449 529 385 529 l 496 529 z "},"Ŕ":{"ha":1001,"x_min":54,"x_max":1007,"o":"m 54 83 l 164 97 l 164 928 l 60 947 l 60 1032 l 261 1032 q 319 1033 288 1032 q 368 1036 351 1035 q 488 1042 440 1042 q 717 1013 631 1042 q 842 924 803 983 q 881 767 881 864 q 829 589 881 671 q 681 476 778 507 q 779 390 736 453 q 871 228 822 328 q 924 130 906 160 q 961 96 943 100 l 1007 82 l 1007 0 l 771 0 q 724 45 749 0 q 661 188 700 90 q 582 365 615 301 q 511 444 549 429 l 368 444 l 368 97 l 496 83 l 496 0 l 54 0 l 54 83 m 496 529 q 619 586 575 529 q 664 757 664 643 q 620 907 664 858 q 469 956 576 956 q 403 952 431 956 q 368 949 376 949 l 368 532 q 449 529 385 529 l 496 529 m 389 1157 l 569 1364 l 710 1276 q 594 1173 663 1222 q 476 1104 525 1124 l 389 1157 z "},"Ř":{"ha":1001,"x_min":54,"x_max":1007,"o":"m 54 83 l 164 97 l 164 928 l 60 947 l 60 1032 l 261 1032 q 319 1033 288 1032 q 368 1036 351 1035 q 488 1042 440 1042 q 717 1013 631 1042 q 842 924 803 983 q 881 767 881 864 q 829 589 881 671 q 681 476 778 507 q 779 390 736 453 q 871 228 822 328 q 924 130 906 160 q 961 96 943 100 l 1007 82 l 1007 0 l 771 0 q 724 45 749 0 q 661 188 700 90 q 582 365 615 301 q 511 444 549 429 l 368 444 l 368 97 l 496 83 l 496 0 l 54 0 l 54 83 m 496 529 q 619 586 575 529 q 664 757 664 643 q 620 907 664 858 q 469 956 576 956 q 403 952 431 956 q 368 949 376 949 l 368 532 q 449 529 385 529 l 496 529 m 503 1238 l 685 1365 l 751 1311 l 565 1119 l 440 1119 l 251 1311 l 321 1365 l 503 1238 z "},"Ŗ":{"ha":1001,"x_min":54,"x_max":1007,"o":"m 54 83 l 164 97 l 164 928 l 60 947 l 60 1032 l 261 1032 q 319 1033 288 1032 q 368 1036 351 1035 q 488 1042 440 1042 q 717 1013 631 1042 q 842 924 803 983 q 881 767 881 864 q 829 589 881 671 q 681 476 778 507 q 779 390 736 453 q 871 228 822 328 q 924 130 906 160 q 961 96 943 100 l 1007 82 l 1007 0 l 771 0 q 724 45 749 0 q 661 188 700 90 q 582 365 615 301 q 511 444 549 429 l 368 444 l 368 97 l 496 83 l 496 0 l 54 0 l 54 83 m 496 529 q 619 586 575 529 q 664 757 664 643 q 620 907 664 858 q 469 956 576 956 q 403 952 431 956 q 368 949 376 949 l 368 532 q 449 529 385 529 l 496 529 m 660 -178 q 639 -270 660 -226 q 590 -343 618 -314 q 546 -379 563 -372 l 544 -379 l 482 -357 l 481 -347 q 508 -312 497 -339 q 518 -257 518 -285 q 511 -228 518 -237 q 490 -207 504 -218 q 461 -146 461 -186 q 491 -87 461 -106 q 554 -68 521 -68 l 558 -68 q 632 -97 604 -68 q 660 -178 660 -125 z "},"S":{"ha":838,"x_min":79,"x_max":797,"o":"m 413 -15 q 278 -3 338 -15 q 144 31 218 10 q 79 46 96 44 l 92 303 l 204 303 l 235 124 q 299 89 253 104 q 406 74 346 74 q 545 115 499 74 q 592 229 592 156 q 564 313 592 278 q 488 377 536 349 q 354 443 439 406 q 163 569 239 496 q 88 767 88 642 q 128 908 88 844 q 248 1008 168 971 q 443 1044 328 1044 q 563 1035 511 1044 q 676 1008 615 1025 q 731 996 713 999 l 722 753 l 611 753 l 582 924 q 532 948 569 936 q 449 960 494 960 q 323 922 365 960 q 281 819 281 883 q 312 731 281 768 q 388 667 343 693 q 528 594 432 642 q 661 521 606 557 q 757 427 717 485 q 797 292 797 369 q 759 146 797 215 q 634 31 721 76 q 413 -15 547 -15 z "},"Ś":{"ha":838,"x_min":79,"x_max":797,"o":"m 413 -15 q 278 -3 338 -15 q 144 31 218 10 q 79 46 96 44 l 92 303 l 204 303 l 235 124 q 299 89 253 104 q 406 74 346 74 q 545 115 499 74 q 592 229 592 156 q 564 313 592 278 q 488 377 536 349 q 354 443 439 406 q 163 569 239 496 q 88 767 88 642 q 128 908 88 844 q 248 1008 168 971 q 443 1044 328 1044 q 563 1035 511 1044 q 676 1008 615 1025 q 731 996 713 999 l 722 753 l 611 753 l 582 924 q 532 948 569 936 q 449 960 494 960 q 323 922 365 960 q 281 819 281 883 q 312 731 281 768 q 388 667 343 693 q 528 594 432 642 q 661 521 606 557 q 757 427 717 485 q 797 292 797 369 q 759 146 797 215 q 634 31 721 76 q 413 -15 547 -15 m 347 1157 l 528 1364 l 668 1276 q 552 1173 621 1222 q 435 1104 483 1124 l 347 1157 z "},"Š":{"ha":838,"x_min":79,"x_max":797,"o":"m 413 -15 q 278 -3 338 -15 q 144 31 218 10 q 79 46 96 44 l 92 303 l 204 303 l 235 124 q 299 89 253 104 q 406 74 346 74 q 545 115 499 74 q 592 229 592 156 q 564 313 592 278 q 488 377 536 349 q 354 443 439 406 q 163 569 239 496 q 88 767 88 642 q 128 908 88 844 q 248 1008 168 971 q 443 1044 328 1044 q 563 1035 511 1044 q 676 1008 615 1025 q 731 996 713 999 l 722 753 l 611 753 l 582 924 q 532 948 569 936 q 449 960 494 960 q 323 922 365 960 q 281 819 281 883 q 312 731 281 768 q 388 667 343 693 q 528 594 432 642 q 661 521 606 557 q 757 427 717 485 q 797 292 797 369 q 759 146 797 215 q 634 31 721 76 q 413 -15 547 -15 m 461 1238 l 643 1365 l 710 1311 l 524 1119 l 399 1119 l 210 1311 l 279 1365 l 461 1238 z "},"Ş":{"ha":838,"x_min":79,"x_max":797,"o":"m 92 303 l 204 303 l 235 124 q 299 89 253 104 q 406 74 346 74 q 545 115 499 74 q 592 229 592 156 q 564 313 592 278 q 488 377 536 349 q 354 443 439 406 q 163 569 239 496 q 88 767 88 642 q 128 908 88 844 q 248 1008 168 971 q 443 1044 328 1044 q 563 1035 511 1044 q 676 1008 615 1025 q 731 996 713 999 l 722 753 l 611 753 l 582 924 q 532 948 569 936 q 449 960 494 960 q 323 922 365 960 q 281 819 281 883 q 312 731 281 768 q 388 667 343 693 q 528 594 432 642 q 661 521 606 557 q 757 427 717 485 q 797 292 797 369 q 765 158 797 222 q 662 46 733 93 q 479 -12 590 -1 q 534 -93 510 -46 q 558 -190 558 -140 q 509 -312 558 -276 q 361 -349 460 -349 q 309 -342 338 -349 q 263 -328 281 -336 l 263 -212 q 322 -222 290 -222 q 398 -204 375 -222 q 421 -126 421 -186 q 388 -15 421 -79 q 144 31 275 -11 q 79 46 97 44 l 92 303 z "},"Ŝ":{"ha":838,"x_min":79,"x_max":797,"o":"m 413 -15 q 278 -3 338 -15 q 144 31 218 10 q 79 46 96 44 l 92 303 l 204 303 l 235 124 q 299 89 253 104 q 406 74 346 74 q 545 115 499 74 q 592 229 592 156 q 564 313 592 278 q 488 377 536 349 q 354 443 439 406 q 163 569 239 496 q 88 767 88 642 q 128 908 88 844 q 248 1008 168 971 q 443 1044 328 1044 q 563 1035 511 1044 q 676 1008 615 1025 q 731 996 713 999 l 722 753 l 611 753 l 582 924 q 532 948 569 936 q 449 960 494 960 q 323 922 365 960 q 281 819 281 883 q 312 731 281 768 q 388 667 343 693 q 528 594 432 642 q 661 521 606 557 q 757 427 717 485 q 797 292 797 369 q 759 146 797 215 q 634 31 721 76 q 413 -15 547 -15 m 524 1363 l 724 1161 l 656 1107 l 461 1243 l 265 1107 l 199 1160 l 400 1363 l 524 1363 z "},"Ș":{"ha":838,"x_min":79,"x_max":797,"o":"m 413 -15 q 278 -3 338 -15 q 144 31 218 10 q 79 46 96 44 l 92 303 l 204 303 l 235 124 q 299 89 253 104 q 406 74 346 74 q 545 115 499 74 q 592 229 592 156 q 564 313 592 278 q 488 377 536 349 q 354 443 439 406 q 163 569 239 496 q 88 767 88 642 q 128 908 88 844 q 248 1008 168 971 q 443 1044 328 1044 q 563 1035 511 1044 q 676 1008 615 1025 q 731 996 713 999 l 722 753 l 611 753 l 582 924 q 532 948 569 936 q 449 960 494 960 q 323 922 365 960 q 281 819 281 883 q 312 731 281 768 q 388 667 343 693 q 528 594 432 642 q 661 521 606 557 q 757 427 717 485 q 797 292 797 369 q 759 146 797 215 q 634 31 721 76 q 413 -15 547 -15 m 524 -178 q 503 -270 524 -226 q 454 -343 482 -314 q 410 -379 426 -372 l 408 -379 l 346 -357 l 344 -347 q 372 -312 361 -339 q 382 -257 382 -285 q 375 -228 382 -237 q 354 -207 368 -218 q 325 -146 325 -186 q 355 -87 325 -106 q 418 -68 385 -68 l 422 -68 q 496 -97 468 -68 q 524 -178 524 -125 z "},"Ṡ":{"ha":838,"x_min":79,"x_max":797,"o":"m 413 -15 q 278 -3 338 -15 q 144 31 218 10 q 79 46 96 44 l 92 303 l 204 303 l 235 124 q 299 89 253 104 q 406 74 346 74 q 545 115 499 74 q 592 229 592 156 q 564 313 592 278 q 488 377 536 349 q 354 443 439 406 q 163 569 239 496 q 88 767 88 642 q 128 908 88 844 q 248 1008 168 971 q 443 1044 328 1044 q 563 1035 511 1044 q 676 1008 615 1025 q 731 996 713 999 l 722 753 l 611 753 l 582 924 q 532 948 569 936 q 449 960 494 960 q 323 922 365 960 q 281 819 281 883 q 312 731 281 768 q 388 667 343 693 q 528 594 432 642 q 661 521 606 557 q 757 427 717 485 q 797 292 797 369 q 759 146 797 215 q 634 31 721 76 q 413 -15 547 -15 m 450 1135 q 376 1163 404 1135 q 347 1232 347 1190 q 378 1314 347 1282 q 463 1346 408 1346 q 542 1317 513 1346 q 572 1247 572 1289 q 542 1165 572 1196 q 450 1135 511 1135 z "},"Ṣ":{"ha":838,"x_min":79,"x_max":797,"o":"m 413 -15 q 278 -3 338 -15 q 144 31 218 10 q 79 46 96 44 l 92 303 l 204 303 l 235 124 q 299 89 253 104 q 406 74 346 74 q 545 115 499 74 q 592 229 592 156 q 564 313 592 278 q 488 377 536 349 q 354 443 439 406 q 163 569 239 496 q 88 767 88 642 q 128 908 88 844 q 248 1008 168 971 q 443 1044 328 1044 q 563 1035 511 1044 q 676 1008 615 1025 q 731 996 713 999 l 722 753 l 611 753 l 582 924 q 532 948 569 936 q 449 960 494 960 q 323 922 365 960 q 281 819 281 883 q 312 731 281 768 q 388 667 343 693 q 528 594 432 642 q 661 521 606 557 q 757 427 717 485 q 797 292 797 369 q 759 146 797 215 q 634 31 721 76 q 413 -15 547 -15 m 408 -301 q 335 -272 364 -301 q 307 -200 307 -243 q 338 -116 307 -150 q 422 -82 369 -82 q 501 -111 472 -82 q 529 -182 529 -140 q 499 -268 529 -235 q 410 -301 468 -301 l 408 -301 z "},"ẞ":{"ha":1025,"x_min":18,"x_max":1013,"o":"m 96 97 l 96 617 q 156 842 96 744 q 324 992 215 939 q 575 1044 432 1044 q 703 1034 647 1044 q 792 1013 760 1024 q 885 976 824 1001 l 885 896 l 693 647 q 848 572 785 608 q 962 469 911 536 q 1013 304 1013 401 q 974 138 1013 210 q 861 24 935 65 q 685 -17 788 -17 q 581 -6 626 -17 q 488 24 536 6 q 429 40 444 39 l 436 285 l 538 285 l 569 110 q 613 81 582 92 q 679 69 644 69 q 772 118 736 69 q 808 274 808 167 q 764 394 808 338 q 654 493 719 451 q 525 557 589 535 l 525 644 l 711 908 q 546 961 646 961 q 363 875 431 961 q 296 638 296 789 l 296 0 l 18 0 l 18 82 l 96 97 z "},"Ə":{"ha":944,"x_min":53,"x_max":907,"o":"m 436 -15 q 244 29 329 -15 q 107 165 158 74 q 53 390 56 257 q 65 554 53 503 l 697 553 q 622 847 689 739 q 442 956 554 956 q 324 933 363 956 q 254 865 286 910 l 229 765 l 92 771 l 94 989 q 189 1007 128 990 q 322 1033 263 1024 q 464 1043 382 1043 q 696 981 596 1043 q 851 802 796 919 q 907 525 907 685 q 847 238 907 360 q 679 50 786 115 q 436 -15 572 -15 m 467 88 q 636 178 575 88 q 699 454 697 268 l 261 454 q 258 381 258 429 q 309 176 258 264 q 467 88 360 88 z "},"T":{"ha":989,"x_min":22,"x_max":958,"o":"m 392 940 l 193 933 l 139 631 l 22 631 l 46 1032 l 942 1032 l 958 631 l 849 631 l 794 933 l 599 940 l 599 97 l 793 83 l 793 0 l 214 0 l 214 83 l 392 97 l 392 940 z "},"Ŧ":{"ha":1006,"x_min":32,"x_max":968,"o":"m 400 940 l 201 933 l 147 631 l 32 631 l 54 1032 l 950 1032 l 968 631 l 857 631 l 803 933 l 607 940 l 607 503 l 761 503 l 761 406 l 607 406 l 607 97 l 801 83 l 801 0 l 222 0 l 222 83 l 400 97 l 400 406 l 244 406 l 244 503 l 400 503 l 400 940 z "},"Ť":{"ha":989,"x_min":22,"x_max":958,"o":"m 392 940 l 193 933 l 139 631 l 22 631 l 46 1032 l 942 1032 l 958 631 l 849 631 l 794 933 l 599 940 l 599 97 l 793 83 l 793 0 l 214 0 l 214 83 l 392 97 l 392 940 m 497 1238 l 679 1365 l 746 1311 l 560 1119 l 435 1119 l 246 1311 l 315 1365 l 497 1238 z "},"Ţ":{"ha":989,"x_min":22,"x_max":958,"o":"m 46 1032 l 942 1032 l 958 631 l 849 631 l 794 933 l 599 940 l 599 97 l 793 83 l 793 0 l 543 0 q 605 -82 575 -29 q 635 -192 635 -135 q 585 -313 635 -278 q 438 -349 536 -349 q 385 -342 414 -349 q 339 -328 357 -336 l 339 -212 q 399 -222 367 -222 q 474 -204 451 -222 q 497 -126 497 -186 q 483 -58 497 -93 q 454 0 469 -22 l 214 0 l 214 83 l 392 97 l 392 940 l 193 933 l 139 631 l 22 631 l 46 1032 z "},"Ț":{"ha":989,"x_min":22,"x_max":958,"o":"m 392 940 l 193 933 l 139 631 l 22 631 l 46 1032 l 942 1032 l 958 631 l 849 631 l 794 933 l 599 940 l 599 97 l 793 83 l 793 0 l 214 0 l 214 83 l 392 97 l 392 940 m 601 -178 q 581 -270 601 -226 q 532 -343 560 -314 q 488 -379 504 -372 l 486 -379 l 424 -357 l 422 -347 q 449 -312 439 -339 q 460 -257 460 -285 q 453 -228 460 -237 q 432 -207 446 -218 q 403 -146 403 -186 q 433 -87 403 -106 q 496 -68 463 -68 l 500 -68 q 574 -97 546 -68 q 601 -178 601 -125 z "},"Ṫ":{"ha":989,"x_min":22,"x_max":958,"o":"m 392 940 l 193 933 l 139 631 l 22 631 l 46 1032 l 942 1032 l 958 631 l 849 631 l 794 933 l 599 940 l 599 97 l 793 83 l 793 0 l 214 0 l 214 83 l 392 97 l 392 940 m 486 1135 q 412 1163 440 1135 q 383 1232 383 1190 q 414 1314 383 1282 q 499 1346 444 1346 q 578 1317 549 1346 q 608 1247 608 1289 q 578 1165 608 1196 q 486 1135 547 1135 z "},"Ṭ":{"ha":989,"x_min":22,"x_max":958,"o":"m 392 940 l 193 933 l 139 631 l 22 631 l 46 1032 l 942 1032 l 958 631 l 849 631 l 794 933 l 599 940 l 599 97 l 793 83 l 793 0 l 214 0 l 214 83 l 392 97 l 392 940 m 486 -301 q 413 -272 442 -301 q 385 -200 385 -243 q 416 -116 385 -150 q 500 -82 447 -82 q 578 -111 550 -82 q 607 -182 607 -140 q 576 -268 607 -235 q 488 -301 546 -301 l 486 -301 z "},"U":{"ha":1032,"x_min":26,"x_max":1017,"o":"m 535 -11 q 221 94 324 -11 q 118 426 118 200 l 118 928 l 26 946 l 26 1032 l 446 1032 l 446 946 l 328 926 l 328 408 q 563 78 328 78 q 733 163 678 78 q 789 403 789 249 l 789 926 l 669 946 l 669 1032 l 1017 1032 l 1017 946 l 922 928 l 922 414 q 817 93 922 197 q 535 -11 713 -11 z "},"Ú":{"ha":1032,"x_min":26,"x_max":1017,"o":"m 535 -11 q 221 94 324 -11 q 118 426 118 200 l 118 928 l 26 946 l 26 1032 l 446 1032 l 446 946 l 328 926 l 328 408 q 563 78 328 78 q 733 163 678 78 q 789 403 789 249 l 789 926 l 669 946 l 669 1032 l 1017 1032 l 1017 946 l 922 928 l 922 414 q 817 93 922 197 q 535 -11 713 -11 m 444 1157 l 625 1364 l 765 1276 q 649 1173 718 1222 q 532 1104 581 1124 l 444 1157 z "},"Ŭ":{"ha":1032,"x_min":26,"x_max":1017,"o":"m 535 -11 q 221 94 324 -11 q 118 426 118 200 l 118 928 l 26 946 l 26 1032 l 446 1032 l 446 946 l 328 926 l 328 408 q 563 78 328 78 q 733 163 678 78 q 789 403 789 249 l 789 926 l 669 946 l 669 1032 l 1017 1032 l 1017 946 l 922 928 l 922 414 q 817 93 922 197 q 535 -11 713 -11 m 556 1108 q 418 1138 475 1108 q 333 1217 361 1168 q 304 1328 304 1267 q 306 1358 304 1349 l 403 1358 q 404 1342 403 1349 q 557 1235 428 1235 q 710 1342 686 1235 q 711 1358 711 1349 l 808 1358 q 810 1329 810 1349 q 780 1218 810 1268 q 692 1138 750 1168 q 556 1108 635 1108 z "},"Ǔ":{"ha":1032,"x_min":26,"x_max":1017,"o":"m 535 -11 q 221 94 324 -11 q 118 426 118 200 l 118 928 l 26 946 l 26 1032 l 446 1032 l 446 946 l 328 926 l 328 408 q 563 78 328 78 q 733 163 678 78 q 789 403 789 249 l 789 926 l 669 946 l 669 1032 l 1017 1032 l 1017 946 l 922 928 l 922 414 q 817 93 922 197 q 535 -11 713 -11 m 558 1238 l 740 1365 l 807 1311 l 621 1119 l 496 1119 l 307 1311 l 376 1365 l 558 1238 z "},"Û":{"ha":1032,"x_min":26,"x_max":1017,"o":"m 535 -11 q 221 94 324 -11 q 118 426 118 200 l 118 928 l 26 946 l 26 1032 l 446 1032 l 446 946 l 328 926 l 328 408 q 563 78 328 78 q 733 163 678 78 q 789 403 789 249 l 789 926 l 669 946 l 669 1032 l 1017 1032 l 1017 946 l 922 928 l 922 414 q 817 93 922 197 q 535 -11 713 -11 m 621 1363 l 821 1161 l 753 1107 l 558 1243 l 363 1107 l 296 1160 l 497 1363 l 621 1363 z "},"Ü":{"ha":1032,"x_min":26,"x_max":1017,"o":"m 535 -11 q 221 94 324 -11 q 118 426 118 200 l 118 928 l 26 946 l 26 1032 l 446 1032 l 446 946 l 328 926 l 328 408 q 563 78 328 78 q 733 163 678 78 q 789 403 789 249 l 789 926 l 669 946 l 669 1032 l 1017 1032 l 1017 946 l 922 928 l 922 414 q 817 93 922 197 q 535 -11 713 -11 m 367 1124 q 303 1153 328 1124 q 278 1222 278 1182 q 305 1306 278 1274 q 385 1339 332 1339 l 386 1339 q 458 1310 433 1339 q 483 1240 483 1282 q 454 1156 483 1189 q 368 1124 425 1124 l 367 1124 m 719 1124 q 656 1153 681 1124 q 631 1222 631 1183 q 658 1306 631 1274 q 738 1339 685 1339 l 739 1339 q 812 1310 788 1339 q 836 1240 836 1282 q 807 1156 836 1188 q 719 1124 778 1124 z "},"Ụ":{"ha":1032,"x_min":26,"x_max":1017,"o":"m 535 -11 q 221 94 324 -11 q 118 426 118 200 l 118 928 l 26 946 l 26 1032 l 446 1032 l 446 946 l 328 926 l 328 408 q 563 78 328 78 q 733 163 678 78 q 789 403 789 249 l 789 926 l 669 946 l 669 1032 l 1017 1032 l 1017 946 l 922 928 l 922 414 q 817 93 922 197 q 535 -11 713 -11 m 507 -301 q 434 -272 463 -301 q 406 -200 406 -243 q 437 -116 406 -150 q 521 -82 468 -82 q 599 -111 571 -82 q 628 -182 628 -140 q 597 -268 628 -235 q 508 -301 567 -301 l 507 -301 z "},"Ù":{"ha":1032,"x_min":26,"x_max":1017,"o":"m 535 -11 q 221 94 324 -11 q 118 426 118 200 l 118 928 l 26 946 l 26 1032 l 446 1032 l 446 946 l 328 926 l 328 408 q 563 78 328 78 q 733 163 678 78 q 789 403 789 249 l 789 926 l 669 946 l 669 1032 l 1017 1032 l 1017 946 l 922 928 l 922 414 q 817 93 922 197 q 535 -11 713 -11 m 583 1104 q 458 1176 532 1124 q 343 1276 383 1228 l 476 1364 l 664 1157 l 583 1104 z "},"Ủ":{"ha":1032,"x_min":26,"x_max":1017,"o":"m 535 -11 q 221 94 324 -11 q 118 426 118 200 l 118 928 l 26 946 l 26 1032 l 446 1032 l 446 946 l 328 926 l 328 408 q 563 78 328 78 q 733 163 678 78 q 789 403 789 249 l 789 926 l 669 946 l 669 1032 l 1017 1032 l 1017 946 l 922 928 l 922 414 q 817 93 922 197 q 535 -11 713 -11 m 522 1078 q 507 1103 514 1088 q 500 1136 500 1119 q 509 1158 500 1149 q 535 1178 518 1167 q 562 1200 553 1190 q 571 1225 571 1210 q 553 1261 571 1250 q 496 1272 536 1272 q 460 1268 479 1272 q 431 1256 442 1264 l 428 1344 q 476 1360 447 1354 q 529 1365 504 1365 q 706 1251 706 1365 q 685 1196 706 1217 q 622 1147 665 1175 q 597 1101 597 1133 q 600 1078 597 1086 l 522 1078 z "},"Ư":{"ha":1032,"x_min":26,"x_max":1108,"o":"m 26 1032 l 446 1032 l 446 946 l 328 926 l 328 408 q 563 78 328 78 q 733 163 678 78 q 789 403 789 249 l 789 926 l 669 946 l 669 1032 l 825 1032 q 941 1072 908 1032 q 974 1169 974 1111 q 969 1201 974 1189 l 1104 1201 q 1107 1172 1107 1182 q 1058 1013 1108 1071 q 922 939 1007 956 l 922 414 q 817 93 922 197 q 535 -11 713 -11 q 221 94 324 -11 q 118 426 118 200 l 118 928 l 26 946 l 26 1032 z "},"Ứ":{"ha":1032,"x_min":26,"x_max":1107,"o":"m 26 1032 l 446 1032 l 446 946 l 328 926 l 328 408 q 563 78 328 78 q 733 163 678 78 q 789 403 789 249 l 789 926 l 669 946 l 669 1032 l 825 1032 q 941 1072 908 1032 q 974 1169 974 1111 q 969 1201 974 1189 l 1104 1201 q 1107 1172 1107 1182 q 1058 1013 1108 1071 q 922 939 1007 956 l 922 414 q 817 93 922 197 q 535 -11 713 -11 q 221 94 324 -11 q 118 426 118 200 l 118 928 l 26 946 l 26 1032 m 433 1157 l 614 1364 l 754 1276 q 638 1173 707 1222 q 521 1104 569 1124 l 433 1157 z "},"Ự":{"ha":1032,"x_min":26,"x_max":1107,"o":"m 26 1032 l 446 1032 l 446 946 l 328 926 l 328 408 q 563 78 328 78 q 733 163 678 78 q 789 403 789 249 l 789 926 l 669 946 l 669 1032 l 825 1032 q 941 1072 908 1032 q 974 1169 974 1111 q 969 1201 974 1189 l 1104 1201 q 1107 1172 1107 1182 q 1058 1013 1108 1071 q 922 939 1007 956 l 922 414 q 817 93 922 197 q 535 -11 713 -11 q 221 94 324 -11 q 118 426 118 200 l 118 928 l 26 946 l 26 1032 m 525 -301 q 452 -272 481 -301 q 424 -200 424 -243 q 455 -116 424 -150 q 539 -82 486 -82 q 617 -111 589 -82 q 646 -182 646 -140 q 615 -268 646 -235 q 526 -301 585 -301 l 525 -301 z "},"Ừ":{"ha":1032,"x_min":26,"x_max":1107,"o":"m 26 1032 l 446 1032 l 446 946 l 328 926 l 328 408 q 563 78 328 78 q 733 163 678 78 q 789 403 789 249 l 789 926 l 669 946 l 669 1032 l 825 1032 q 941 1072 908 1032 q 974 1169 974 1111 q 969 1201 974 1189 l 1104 1201 q 1107 1172 1107 1182 q 1058 1013 1108 1071 q 922 939 1007 956 l 922 414 q 817 93 922 197 q 535 -11 713 -11 q 221 94 324 -11 q 118 426 118 200 l 118 928 l 26 946 l 26 1032 m 572 1104 q 447 1176 521 1124 q 332 1276 372 1228 l 465 1364 l 653 1157 l 572 1104 z "},"Ử":{"ha":1032,"x_min":26,"x_max":1107,"o":"m 26 1032 l 446 1032 l 446 946 l 328 926 l 328 408 q 563 78 328 78 q 733 163 678 78 q 789 403 789 249 l 789 926 l 669 946 l 669 1032 l 825 1032 q 941 1072 908 1032 q 974 1169 974 1111 q 969 1201 974 1189 l 1104 1201 q 1107 1172 1107 1182 q 1058 1013 1108 1071 q 922 939 1007 956 l 922 414 q 817 93 922 197 q 535 -11 713 -11 q 221 94 324 -11 q 118 426 118 200 l 118 928 l 26 946 l 26 1032 m 511 1078 q 496 1103 503 1088 q 489 1136 489 1119 q 498 1158 489 1149 q 524 1178 507 1167 q 551 1200 542 1190 q 560 1225 560 1210 q 542 1261 560 1250 q 485 1272 525 1272 q 449 1268 468 1272 q 419 1256 431 1264 l 417 1344 q 465 1360 436 1354 q 518 1365 493 1365 q 694 1251 694 1365 q 674 1196 694 1217 q 611 1147 654 1175 q 586 1101 586 1133 q 589 1078 586 1086 l 511 1078 z "},"Ữ":{"ha":1032,"x_min":26,"x_max":1107,"o":"m 26 1032 l 446 1032 l 446 946 l 328 926 l 328 408 q 563 78 328 78 q 733 163 678 78 q 789 403 789 249 l 789 926 l 669 946 l 669 1032 l 825 1032 q 941 1072 908 1032 q 974 1169 974 1111 q 969 1201 974 1189 l 1104 1201 q 1107 1172 1107 1182 q 1058 1013 1108 1071 q 922 939 1007 956 l 922 414 q 817 93 922 197 q 535 -11 713 -11 q 221 94 324 -11 q 118 426 118 200 l 118 928 l 26 946 l 26 1032 m 647 1122 q 582 1135 607 1122 q 524 1176 557 1149 q 483 1207 500 1197 q 446 1217 467 1217 q 394 1195 413 1217 q 363 1133 376 1174 l 285 1181 q 348 1294 306 1253 q 451 1335 390 1335 q 519 1320 492 1335 q 578 1278 546 1306 q 618 1248 603 1257 q 653 1239 633 1239 q 735 1324 707 1239 l 813 1276 q 647 1122 768 1122 z "},"Ű":{"ha":1032,"x_min":26,"x_max":1017,"o":"m 535 -11 q 221 94 324 -11 q 118 426 118 200 l 118 928 l 26 946 l 26 1032 l 446 1032 l 446 946 l 328 926 l 328 408 q 563 78 328 78 q 733 163 678 78 q 789 403 789 249 l 789 926 l 669 946 l 669 1032 l 1017 1032 l 1017 946 l 922 928 l 922 414 q 817 93 922 197 q 535 -11 713 -11 m 593 1281 q 490 1186 556 1236 q 369 1106 424 1136 l 296 1168 l 486 1365 l 593 1281 m 935 1279 q 832 1184 899 1233 q 708 1106 765 1135 l 633 1169 l 833 1364 l 935 1279 z "},"Ū":{"ha":1032,"x_min":26,"x_max":1017,"o":"m 535 -11 q 221 94 324 -11 q 118 426 118 200 l 118 928 l 26 946 l 26 1032 l 446 1032 l 446 946 l 328 926 l 328 408 q 563 78 328 78 q 733 163 678 78 q 789 403 789 249 l 789 926 l 669 946 l 669 1032 l 1017 1032 l 1017 946 l 922 928 l 922 414 q 817 93 922 197 q 535 -11 713 -11 m 775 1171 l 339 1171 l 339 1292 l 775 1292 l 775 1171 z "},"Ų":{"ha":1032,"x_min":26,"x_max":1017,"o":"m 535 -11 q 221 94 324 -11 q 118 426 118 200 l 118 928 l 26 946 l 26 1032 l 446 1032 l 446 946 l 328 926 l 328 408 q 563 78 328 78 q 733 163 678 78 q 789 403 789 249 l 789 926 l 669 946 l 669 1032 l 1017 1032 l 1017 946 l 922 928 l 922 414 q 863 153 922 253 q 696 15 803 54 q 599 -69 636 -25 q 563 -151 563 -114 q 588 -213 563 -190 q 656 -236 614 -236 q 747 -215 700 -236 l 747 -301 q 672 -335 719 -322 q 579 -347 625 -347 q 451 -314 503 -347 q 400 -211 400 -281 q 451 -99 400 -156 q 569 -8 501 -43 q 535 -11 547 -11 z "},"Ů":{"ha":1032,"x_min":26,"x_max":1017,"o":"m 535 -11 q 221 94 324 -11 q 118 426 118 200 l 118 928 l 26 946 l 26 1032 l 446 1032 l 446 946 l 328 926 l 328 408 q 563 78 328 78 q 733 163 678 78 q 789 403 789 249 l 789 926 l 669 946 l 669 1032 l 1017 1032 l 1017 946 l 922 928 l 922 414 q 817 93 922 197 q 535 -11 713 -11 m 553 1069 q 387 1106 456 1069 q 318 1213 318 1142 q 389 1326 318 1286 q 558 1365 460 1365 q 731 1328 668 1365 q 794 1219 794 1292 q 729 1106 794 1143 q 553 1069 664 1069 m 556 1146 q 642 1163 611 1146 q 674 1214 674 1181 q 644 1270 674 1253 q 557 1288 615 1288 q 469 1271 499 1288 q 439 1217 439 1254 q 469 1164 439 1182 q 556 1146 500 1146 z "},"Ũ":{"ha":1032,"x_min":26,"x_max":1017,"o":"m 535 -11 q 221 94 324 -11 q 118 426 118 200 l 118 928 l 26 946 l 26 1032 l 446 1032 l 446 946 l 328 926 l 328 408 q 563 78 328 78 q 733 163 678 78 q 789 403 789 249 l 789 926 l 669 946 l 669 1032 l 1017 1032 l 1017 946 l 922 928 l 922 414 q 817 93 922 197 q 535 -11 713 -11 m 658 1122 q 593 1135 618 1122 q 535 1176 568 1149 q 494 1207 511 1197 q 457 1217 478 1217 q 406 1195 424 1217 q 374 1133 388 1174 l 296 1181 q 359 1294 317 1253 q 463 1335 401 1335 q 530 1320 503 1335 q 589 1278 557 1306 q 629 1248 614 1257 q 664 1239 644 1239 q 746 1324 718 1239 l 824 1276 q 658 1122 779 1122 z "},"V":{"ha":954,"x_min":-25,"x_max":982,"o":"m -25 1032 l 397 1032 l 397 946 l 279 928 l 486 306 l 526 165 l 561 307 l 756 928 l 646 946 l 646 1032 l 982 1032 l 982 946 l 893 928 l 574 -10 l 408 -10 l 58 928 l -25 946 l -25 1032 z "},"W":{"ha":1413,"x_min":-25,"x_max":1438,"o":"m -25 1032 l 392 1032 l 392 946 l 271 928 l 446 301 l 478 147 l 510 301 l 658 810 l 619 928 l 528 946 l 528 1032 l 963 1032 l 963 946 l 829 928 l 1003 301 l 1040 135 l 1069 301 l 1228 928 l 1103 946 l 1103 1032 l 1438 1032 l 1438 946 l 1349 928 l 1085 -7 l 901 -7 l 710 642 l 526 -7 l 346 -7 l 60 926 l -25 946 l -25 1032 z "},"Ẃ":{"ha":1413,"x_min":-25,"x_max":1438,"o":"m -25 1032 l 392 1032 l 392 946 l 271 928 l 446 301 l 478 147 l 510 301 l 658 810 l 619 928 l 528 946 l 528 1032 l 963 1032 l 963 946 l 829 928 l 1003 301 l 1040 135 l 1069 301 l 1228 928 l 1103 946 l 1103 1032 l 1438 1032 l 1438 946 l 1349 928 l 1085 -7 l 901 -7 l 710 642 l 526 -7 l 346 -7 l 60 926 l -25 946 l -25 1032 m 594 1157 l 775 1364 l 915 1276 q 799 1173 868 1222 q 682 1104 731 1124 l 594 1157 z "},"Ŵ":{"ha":1413,"x_min":-25,"x_max":1438,"o":"m -25 1032 l 392 1032 l 392 946 l 271 928 l 446 301 l 478 147 l 510 301 l 658 810 l 619 928 l 528 946 l 528 1032 l 963 1032 l 963 946 l 829 928 l 1003 301 l 1040 135 l 1069 301 l 1228 928 l 1103 946 l 1103 1032 l 1438 1032 l 1438 946 l 1349 928 l 1085 -7 l 901 -7 l 710 642 l 526 -7 l 346 -7 l 60 926 l -25 946 l -25 1032 m 771 1363 l 971 1161 l 903 1107 l 708 1243 l 513 1107 l 446 1160 l 647 1363 l 771 1363 z "},"Ẅ":{"ha":1413,"x_min":-25,"x_max":1438,"o":"m -25 1032 l 392 1032 l 392 946 l 271 928 l 446 301 l 478 147 l 510 301 l 658 810 l 619 928 l 528 946 l 528 1032 l 963 1032 l 963 946 l 829 928 l 1003 301 l 1040 135 l 1069 301 l 1228 928 l 1103 946 l 1103 1032 l 1438 1032 l 1438 946 l 1349 928 l 1085 -7 l 901 -7 l 710 642 l 526 -7 l 346 -7 l 60 926 l -25 946 l -25 1032 m 517 1124 q 453 1153 478 1124 q 428 1222 428 1182 q 455 1306 428 1274 q 535 1339 482 1339 l 536 1339 q 608 1310 583 1339 q 633 1240 633 1282 q 604 1156 633 1189 q 518 1124 575 1124 l 517 1124 m 869 1124 q 806 1153 831 1124 q 781 1222 781 1183 q 808 1306 781 1274 q 888 1339 835 1339 l 889 1339 q 962 1310 938 1339 q 986 1240 986 1282 q 957 1156 986 1188 q 869 1124 928 1124 z "},"Ẁ":{"ha":1413,"x_min":-25,"x_max":1438,"o":"m -25 1032 l 392 1032 l 392 946 l 271 928 l 446 301 l 478 147 l 510 301 l 658 810 l 619 928 l 528 946 l 528 1032 l 963 1032 l 963 946 l 829 928 l 1003 301 l 1040 135 l 1069 301 l 1228 928 l 1103 946 l 1103 1032 l 1438 1032 l 1438 946 l 1349 928 l 1085 -7 l 901 -7 l 710 642 l 526 -7 l 346 -7 l 60 926 l -25 946 l -25 1032 m 733 1104 q 608 1176 682 1124 q 493 1276 533 1228 l 626 1364 l 814 1157 l 733 1104 z "},"X":{"ha":999,"x_min":8,"x_max":999,"o":"m 400 504 l 117 926 l 21 946 l 21 1032 l 475 1032 l 475 946 l 357 926 l 547 611 l 743 928 l 624 946 l 624 1032 l 981 1032 l 981 946 l 868 926 l 599 549 l 901 97 l 999 83 l 999 0 l 546 0 l 546 83 l 663 97 l 454 438 l 254 97 l 388 83 l 388 0 l 8 0 l 8 83 l 125 97 l 400 504 z "},"Y":{"ha":904,"x_min":-22,"x_max":931,"o":"m 354 410 l 57 928 l -22 946 l -22 1032 l 386 1032 l 386 946 l 288 928 l 461 588 l 500 492 l 540 588 l 700 928 l 592 946 l 592 1032 l 931 1032 l 931 946 l 844 929 l 568 411 l 568 97 l 719 83 l 719 0 l 207 0 l 207 83 l 354 97 l 354 410 z "},"Ý":{"ha":904,"x_min":-22,"x_max":931,"o":"m 354 410 l 57 928 l -22 946 l -22 1032 l 386 1032 l 386 946 l 288 928 l 461 588 l 500 492 l 540 588 l 700 928 l 592 946 l 592 1032 l 931 1032 l 931 946 l 844 929 l 568 411 l 568 97 l 719 83 l 719 0 l 207 0 l 207 83 l 354 97 l 354 410 m 363 1157 l 543 1364 l 683 1276 q 567 1173 636 1222 q 450 1104 499 1124 l 363 1157 z "},"Ŷ":{"ha":904,"x_min":-22,"x_max":931,"o":"m 354 410 l 57 928 l -22 946 l -22 1032 l 386 1032 l 386 946 l 288 928 l 461 588 l 500 492 l 540 588 l 700 928 l 592 946 l 592 1032 l 931 1032 l 931 946 l 844 929 l 568 411 l 568 97 l 719 83 l 719 0 l 207 0 l 207 83 l 354 97 l 354 410 m 539 1363 l 739 1161 l 671 1107 l 476 1243 l 281 1107 l 214 1160 l 415 1363 l 539 1363 z "},"Ÿ":{"ha":904,"x_min":-22,"x_max":931,"o":"m 354 410 l 57 928 l -22 946 l -22 1032 l 386 1032 l 386 946 l 288 928 l 461 588 l 500 492 l 540 588 l 700 928 l 592 946 l 592 1032 l 931 1032 l 931 946 l 844 929 l 568 411 l 568 97 l 719 83 l 719 0 l 207 0 l 207 83 l 354 97 l 354 410 m 285 1124 q 221 1153 246 1124 q 196 1222 196 1182 q 223 1306 196 1274 q 303 1339 250 1339 l 304 1339 q 376 1310 351 1339 q 401 1240 401 1282 q 372 1156 401 1189 q 286 1124 343 1124 l 285 1124 m 638 1124 q 574 1153 599 1124 q 549 1222 549 1183 q 576 1306 549 1274 q 656 1339 603 1339 l 657 1339 q 730 1310 706 1339 q 754 1240 754 1282 q 725 1156 754 1188 q 638 1124 696 1124 z "},"Ẏ":{"ha":904,"x_min":-22,"x_max":931,"o":"m 354 410 l 57 928 l -22 946 l -22 1032 l 386 1032 l 386 946 l 288 928 l 461 588 l 500 492 l 540 588 l 700 928 l 592 946 l 592 1032 l 931 1032 l 931 946 l 844 929 l 568 411 l 568 97 l 719 83 l 719 0 l 207 0 l 207 83 l 354 97 l 354 410 m 465 1135 q 391 1163 419 1135 q 363 1232 363 1190 q 393 1314 363 1282 q 478 1346 424 1346 q 558 1317 528 1346 q 588 1247 588 1289 q 557 1165 588 1196 q 465 1135 526 1135 z "},"Ỵ":{"ha":904,"x_min":-22,"x_max":931,"o":"m 354 410 l 57 928 l -22 946 l -22 1032 l 386 1032 l 386 946 l 288 928 l 461 588 l 500 492 l 540 588 l 700 928 l 592 946 l 592 1032 l 931 1032 l 931 946 l 844 929 l 568 411 l 568 97 l 719 83 l 719 0 l 207 0 l 207 83 l 354 97 l 354 410 m 443 -301 q 370 -272 399 -301 q 342 -200 342 -243 q 373 -116 342 -150 q 457 -82 404 -82 q 535 -111 507 -82 q 564 -182 564 -140 q 533 -268 564 -235 q 444 -301 503 -301 l 443 -301 z "},"Ỳ":{"ha":904,"x_min":-22,"x_max":931,"o":"m 354 410 l 57 928 l -22 946 l -22 1032 l 386 1032 l 386 946 l 288 928 l 461 588 l 500 492 l 540 588 l 700 928 l 592 946 l 592 1032 l 931 1032 l 931 946 l 844 929 l 568 411 l 568 97 l 719 83 l 719 0 l 207 0 l 207 83 l 354 97 l 354 410 m 501 1104 q 376 1176 450 1124 q 261 1276 301 1228 l 394 1364 l 582 1157 l 501 1104 z "},"Ỷ":{"ha":904,"x_min":-22,"x_max":931,"o":"m 354 410 l 57 928 l -22 946 l -22 1032 l 386 1032 l 386 946 l 288 928 l 461 588 l 500 492 l 540 588 l 700 928 l 592 946 l 592 1032 l 931 1032 l 931 946 l 844 929 l 568 411 l 568 97 l 719 83 l 719 0 l 207 0 l 207 83 l 354 97 l 354 410 m 444 1115 q 426 1146 435 1126 q 417 1182 417 1165 q 424 1203 417 1194 q 446 1225 431 1213 q 474 1251 464 1239 q 483 1283 483 1264 q 465 1335 483 1315 q 408 1354 447 1354 q 373 1350 392 1354 q 343 1338 354 1346 l 340 1446 q 438 1467 385 1467 q 570 1426 522 1467 q 618 1311 618 1385 q 602 1254 618 1276 q 565 1215 586 1232 q 535 1190 544 1199 q 523 1170 528 1183 q 518 1142 518 1157 q 522 1115 518 1131 l 444 1115 z "},"Ỹ":{"ha":904,"x_min":-22,"x_max":931,"o":"m 354 410 l 57 928 l -22 946 l -22 1032 l 386 1032 l 386 946 l 288 928 l 461 588 l 500 492 l 540 588 l 700 928 l 592 946 l 592 1032 l 931 1032 l 931 946 l 844 929 l 568 411 l 568 97 l 719 83 l 719 0 l 207 0 l 207 83 l 354 97 l 354 410 m 576 1122 q 511 1135 536 1122 q 453 1176 486 1149 q 413 1207 429 1197 q 375 1217 396 1217 q 324 1195 342 1217 q 292 1133 306 1174 l 214 1181 q 277 1294 235 1253 q 381 1335 319 1335 q 448 1320 421 1335 q 507 1278 475 1306 q 547 1248 532 1257 q 582 1239 563 1239 q 664 1324 636 1239 l 742 1276 q 576 1122 697 1122 z "},"Z":{"ha":910,"x_min":31,"x_max":869,"o":"m 626 954 l 265 935 l 190 747 l 88 761 l 119 1035 l 824 1035 l 857 961 l 354 181 l 258 85 l 686 113 l 764 328 l 869 307 l 838 0 l 74 0 l 31 74 l 544 858 l 626 954 z "},"Ź":{"ha":910,"x_min":31,"x_max":869,"o":"m 626 954 l 265 935 l 190 747 l 88 761 l 119 1035 l 824 1035 l 857 961 l 354 181 l 258 85 l 686 113 l 764 328 l 869 307 l 838 0 l 74 0 l 31 74 l 544 858 l 626 954 m 399 1157 l 579 1364 l 719 1276 q 603 1173 672 1222 q 486 1104 535 1124 l 399 1157 z "},"Ž":{"ha":910,"x_min":31,"x_max":869,"o":"m 626 954 l 265 935 l 190 747 l 88 761 l 119 1035 l 824 1035 l 857 961 l 354 181 l 258 85 l 686 113 l 764 328 l 869 307 l 838 0 l 74 0 l 31 74 l 544 858 l 626 954 m 513 1238 l 694 1365 l 761 1311 l 575 1119 l 450 1119 l 261 1311 l 331 1365 l 513 1238 z "},"Ż":{"ha":910,"x_min":31,"x_max":869,"o":"m 626 954 l 265 935 l 190 747 l 88 761 l 119 1035 l 824 1035 l 857 961 l 354 181 l 258 85 l 686 113 l 764 328 l 869 307 l 838 0 l 74 0 l 31 74 l 544 858 l 626 954 m 501 1135 q 427 1163 456 1135 q 399 1232 399 1190 q 429 1314 399 1282 q 514 1346 460 1346 q 594 1317 564 1346 q 624 1247 624 1289 q 593 1165 624 1196 q 501 1135 563 1135 z "},"Ẓ":{"ha":910,"x_min":31,"x_max":869,"o":"m 626 954 l 265 935 l 190 747 l 88 761 l 119 1035 l 824 1035 l 857 961 l 354 181 l 258 85 l 686 113 l 764 328 l 869 307 l 838 0 l 74 0 l 31 74 l 544 858 l 626 954 m 446 -301 q 373 -272 401 -301 q 344 -200 344 -243 q 376 -116 344 -150 q 460 -82 407 -82 q 538 -111 510 -82 q 567 -182 567 -140 q 536 -268 567 -235 q 447 -301 506 -301 l 446 -301 z "},"a":{"ha":786,"x_min":47,"x_max":763,"o":"m 47 217 q 174 407 47 343 q 503 472 301 471 l 503 504 q 491 593 503 561 q 448 641 479 625 q 357 657 417 657 q 235 640 289 657 q 122 594 181 622 l 79 683 q 149 726 100 701 q 267 770 199 751 q 407 789 335 789 q 574 761 514 789 q 661 672 635 733 q 688 508 688 611 l 688 83 l 763 83 l 763 6 q 683 -8 735 -1 q 593 -15 632 -15 q 530 -1 546 -15 q 514 56 514 13 l 514 93 q 417 18 476 51 q 282 -15 357 -15 q 165 12 218 -15 q 79 91 111 39 q 47 217 47 143 m 371 100 q 438 117 400 100 q 503 160 475 135 l 503 388 q 316 345 378 388 q 254 236 254 303 q 285 135 254 169 q 371 100 317 100 z "},"á":{"ha":786,"x_min":47,"x_max":763,"o":"m 47 217 q 174 407 47 343 q 503 472 301 471 l 503 504 q 491 593 503 561 q 448 641 479 625 q 357 657 417 657 q 235 640 289 657 q 122 594 181 622 l 79 683 q 149 726 100 701 q 267 770 199 751 q 407 789 335 789 q 574 761 514 789 q 661 672 635 733 q 688 508 688 611 l 688 83 l 763 83 l 763 6 q 683 -8 735 -1 q 593 -15 632 -15 q 530 -1 546 -15 q 514 56 514 13 l 514 93 q 417 18 476 51 q 282 -15 357 -15 q 165 12 218 -15 q 79 91 111 39 q 47 217 47 143 m 371 100 q 438 117 400 100 q 503 160 475 135 l 503 388 q 316 345 378 388 q 254 236 254 303 q 285 135 254 169 q 371 100 317 100 m 256 953 l 490 1242 l 613 1135 q 483 999 579 1079 q 326 893 386 918 l 256 953 z "},"ă":{"ha":786,"x_min":47,"x_max":763,"o":"m 47 217 q 174 407 47 343 q 503 472 301 471 l 503 504 q 491 593 503 561 q 448 641 479 625 q 357 657 417 657 q 235 640 289 657 q 122 594 181 622 l 79 683 q 149 726 100 701 q 267 770 199 751 q 407 789 335 789 q 574 761 514 789 q 661 672 635 733 q 688 508 688 611 l 688 83 l 763 83 l 763 6 q 683 -8 735 -1 q 593 -15 632 -15 q 530 -1 546 -15 q 514 56 514 13 l 514 93 q 417 18 476 51 q 282 -15 357 -15 q 165 12 218 -15 q 79 91 111 39 q 47 217 47 143 m 371 100 q 438 117 400 100 q 503 160 475 135 l 503 388 q 316 345 378 388 q 254 236 254 303 q 285 135 254 169 q 371 100 317 100 m 389 901 q 259 931 315 901 q 172 1012 203 961 q 142 1126 142 1063 q 144 1183 142 1169 l 238 1183 q 239 1156 238 1165 q 280 1072 243 1106 q 389 1038 317 1038 q 497 1072 461 1038 q 538 1154 532 1106 q 539 1183 540 1175 l 629 1183 q 632 1128 632 1156 q 601 1013 632 1064 q 515 931 571 961 q 389 901 460 901 z "},"ắ":{"ha":786,"x_min":47,"x_max":763,"o":"m 47 217 q 174 407 47 343 q 503 472 301 471 l 503 504 q 491 593 503 561 q 448 641 479 625 q 357 657 417 657 q 235 640 289 657 q 122 594 181 622 l 79 683 q 149 726 100 701 q 267 770 199 751 q 407 789 335 789 q 574 761 514 789 q 661 672 635 733 q 688 508 688 611 l 688 83 l 763 83 l 763 6 q 683 -8 735 -1 q 593 -15 632 -15 q 530 -1 546 -15 q 514 56 514 13 l 514 93 q 417 18 476 51 q 282 -15 357 -15 q 165 12 218 -15 q 79 91 111 39 q 47 217 47 143 m 371 100 q 438 117 400 100 q 503 160 475 135 l 503 388 q 316 345 378 388 q 254 236 254 303 q 285 135 254 169 q 371 100 317 100 m 328 1167 l 483 1367 l 582 1282 q 488 1186 550 1242 q 396 1114 426 1131 l 328 1167 m 386 894 q 235 941 297 894 q 174 1069 174 988 q 178 1113 174 1096 l 263 1113 q 261 1086 261 1106 q 386 1008 268 1008 q 477 1027 449 1008 q 508 1085 506 1046 q 510 1099 510 1089 q 508 1113 510 1110 l 593 1113 q 596 1071 596 1090 q 533 941 596 988 q 386 894 471 894 z "},"ặ":{"ha":786,"x_min":47,"x_max":763,"o":"m 47 217 q 174 407 47 343 q 503 472 301 471 l 503 504 q 491 593 503 561 q 448 641 479 625 q 357 657 417 657 q 235 640 289 657 q 122 594 181 622 l 79 683 q 149 726 100 701 q 267 770 199 751 q 407 789 335 789 q 574 761 514 789 q 661 672 635 733 q 688 508 688 611 l 688 83 l 763 83 l 763 6 q 683 -8 735 -1 q 593 -15 632 -15 q 530 -1 546 -15 q 514 56 514 13 l 514 93 q 417 18 476 51 q 282 -15 357 -15 q 165 12 218 -15 q 79 91 111 39 q 47 217 47 143 m 371 100 q 438 117 400 100 q 503 160 475 135 l 503 388 q 316 345 378 388 q 254 236 254 303 q 285 135 254 169 q 371 100 317 100 m 386 -301 q 313 -272 342 -301 q 285 -200 285 -243 q 316 -116 285 -150 q 400 -82 347 -82 q 478 -111 450 -82 q 507 -182 507 -140 q 476 -268 507 -235 q 388 -301 446 -301 l 386 -301 m 389 901 q 259 931 315 901 q 172 1012 203 961 q 142 1126 142 1063 q 144 1183 142 1169 l 238 1183 q 239 1156 238 1165 q 280 1072 243 1106 q 389 1038 317 1038 q 497 1072 461 1038 q 538 1154 532 1106 q 539 1183 540 1175 l 629 1183 q 632 1128 632 1156 q 601 1013 632 1064 q 515 931 571 961 q 389 901 460 901 z "},"ằ":{"ha":786,"x_min":47,"x_max":763,"o":"m 47 217 q 174 407 47 343 q 503 472 301 471 l 503 504 q 491 593 503 561 q 448 641 479 625 q 357 657 417 657 q 235 640 289 657 q 122 594 181 622 l 79 683 q 149 726 100 701 q 267 770 199 751 q 407 789 335 789 q 574 761 514 789 q 661 672 635 733 q 688 508 688 611 l 688 83 l 763 83 l 763 6 q 683 -8 735 -1 q 593 -15 632 -15 q 530 -1 546 -15 q 514 56 514 13 l 514 93 q 417 18 476 51 q 282 -15 357 -15 q 165 12 218 -15 q 79 91 111 39 q 47 217 47 143 m 371 100 q 438 117 400 100 q 503 160 475 135 l 503 388 q 316 345 378 388 q 254 236 254 303 q 285 135 254 169 q 371 100 317 100 m 389 1114 q 297 1186 358 1131 q 203 1282 235 1242 l 303 1367 l 458 1167 l 389 1114 m 386 894 q 235 941 297 894 q 174 1069 174 988 q 178 1113 174 1096 l 263 1113 q 261 1086 261 1106 q 386 1008 268 1008 q 477 1027 449 1008 q 508 1085 506 1046 q 510 1099 510 1089 q 508 1113 510 1110 l 593 1113 q 596 1071 596 1090 q 533 941 596 988 q 386 894 471 894 z "},"ẳ":{"ha":786,"x_min":47,"x_max":763,"o":"m 47 217 q 174 407 47 343 q 503 472 301 471 l 503 504 q 491 593 503 561 q 448 641 479 625 q 357 657 417 657 q 235 640 289 657 q 122 594 181 622 l 79 683 q 149 726 100 701 q 267 770 199 751 q 407 789 335 789 q 574 761 514 789 q 661 672 635 733 q 688 508 688 611 l 688 83 l 763 83 l 763 6 q 683 -8 735 -1 q 593 -15 632 -15 q 530 -1 546 -15 q 514 56 514 13 l 514 93 q 417 18 476 51 q 282 -15 357 -15 q 165 12 218 -15 q 79 91 111 39 q 47 217 47 143 m 371 100 q 438 117 400 100 q 503 160 475 135 l 503 388 q 316 345 378 388 q 254 236 254 303 q 285 135 254 169 q 371 100 317 100 m 358 1079 q 344 1101 351 1086 q 338 1129 338 1117 q 349 1160 338 1147 q 379 1186 360 1172 q 406 1208 397 1199 q 414 1229 414 1217 q 335 1278 414 1278 q 307 1276 321 1278 q 290 1271 293 1274 l 290 1358 q 316 1364 292 1361 q 356 1367 340 1367 q 476 1335 432 1367 q 521 1242 521 1304 q 505 1195 521 1214 q 467 1160 489 1176 q 435 1135 444 1143 q 415 1099 415 1122 q 418 1079 415 1093 l 358 1079 m 386 894 q 235 941 297 894 q 174 1069 174 988 q 178 1113 174 1096 l 263 1113 q 261 1086 261 1106 q 386 1008 268 1008 q 477 1027 449 1008 q 508 1085 506 1046 q 510 1099 510 1089 q 508 1113 510 1110 l 593 1113 q 596 1071 596 1090 q 533 941 596 988 q 386 894 471 894 z "},"ẵ":{"ha":786,"x_min":47,"x_max":763,"o":"m 47 217 q 174 407 47 343 q 503 472 301 471 l 503 504 q 491 593 503 561 q 448 641 479 625 q 357 657 417 657 q 235 640 289 657 q 122 594 181 622 l 79 683 q 149 726 100 701 q 267 770 199 751 q 407 789 335 789 q 574 761 514 789 q 661 672 635 733 q 688 508 688 611 l 688 83 l 763 83 l 763 6 q 683 -8 735 -1 q 593 -15 632 -15 q 530 -1 546 -15 q 514 56 514 13 l 514 93 q 417 18 476 51 q 282 -15 357 -15 q 165 12 218 -15 q 79 91 111 39 q 47 217 47 143 m 371 100 q 438 117 400 100 q 503 160 475 135 l 503 388 q 316 345 378 388 q 254 236 254 303 q 285 135 254 169 q 371 100 317 100 m 175 1236 q 226 1326 190 1290 q 317 1361 263 1361 q 367 1351 346 1361 q 411 1321 388 1340 q 447 1297 435 1304 q 476 1290 458 1290 q 513 1302 500 1290 q 538 1336 526 1314 l 594 1310 q 544 1220 579 1254 q 454 1186 508 1186 q 406 1196 426 1186 q 361 1225 386 1206 q 325 1249 339 1242 q 293 1257 311 1257 q 258 1246 271 1257 q 229 1211 246 1235 l 175 1236 m 386 893 q 235 940 297 893 q 174 1068 174 986 q 178 1111 174 1094 l 263 1111 q 261 1085 261 1104 q 386 1007 268 1007 q 477 1026 449 1007 q 508 1083 506 1044 q 510 1097 510 1088 q 508 1111 510 1108 l 593 1111 q 596 1069 596 1089 q 533 940 596 986 q 386 893 471 893 z "},"ǎ":{"ha":786,"x_min":47,"x_max":763,"o":"m 47 217 q 174 407 47 343 q 503 472 301 471 l 503 504 q 491 593 503 561 q 448 641 479 625 q 357 657 417 657 q 235 640 289 657 q 122 594 181 622 l 79 683 q 149 726 100 701 q 267 770 199 751 q 407 789 335 789 q 574 761 514 789 q 661 672 635 733 q 688 508 688 611 l 688 83 l 763 83 l 763 6 q 683 -8 735 -1 q 593 -15 632 -15 q 530 -1 546 -15 q 514 56 514 13 l 514 93 q 417 18 476 51 q 282 -15 357 -15 q 165 12 218 -15 q 79 91 111 39 q 47 217 47 143 m 371 100 q 438 117 400 100 q 503 160 475 135 l 503 388 q 316 345 378 388 q 254 236 254 303 q 285 135 254 169 q 371 100 317 100 m 385 1021 l 588 1208 l 653 1156 l 446 883 l 325 883 l 119 1156 l 186 1207 l 385 1021 z "},"â":{"ha":786,"x_min":47,"x_max":763,"o":"m 47 217 q 174 407 47 343 q 503 472 301 471 l 503 504 q 491 593 503 561 q 448 641 479 625 q 357 657 417 657 q 235 640 289 657 q 122 594 181 622 l 79 683 q 149 726 100 701 q 267 770 199 751 q 407 789 335 789 q 574 761 514 789 q 661 672 635 733 q 688 508 688 611 l 688 83 l 763 83 l 763 6 q 683 -8 735 -1 q 593 -15 632 -15 q 530 -1 546 -15 q 514 56 514 13 l 514 93 q 417 18 476 51 q 282 -15 357 -15 q 165 12 218 -15 q 79 91 111 39 q 47 217 47 143 m 371 100 q 438 117 400 100 q 503 160 475 135 l 503 388 q 316 345 378 388 q 254 236 254 303 q 285 135 254 169 q 371 100 317 100 m 446 1199 l 653 928 l 583 875 l 386 1058 l 183 874 l 118 926 l 325 1199 l 446 1199 z "},"ấ":{"ha":786,"x_min":47,"x_max":831,"o":"m 47 217 q 174 407 47 343 q 503 472 301 471 l 503 504 q 491 593 503 561 q 448 641 479 625 q 357 657 417 657 q 235 640 289 657 q 122 594 181 622 l 79 683 q 149 726 100 701 q 267 770 199 751 q 407 789 335 789 q 574 761 514 789 q 661 672 635 733 q 688 508 688 611 l 688 83 l 763 83 l 763 6 q 683 -8 735 -1 q 593 -15 632 -15 q 530 -1 546 -15 q 514 56 514 13 l 514 93 q 417 18 476 51 q 282 -15 357 -15 q 165 12 218 -15 q 79 91 111 39 q 47 217 47 143 m 371 100 q 438 117 400 100 q 503 160 475 135 l 503 388 q 316 345 378 388 q 254 236 254 303 q 285 135 254 169 q 371 100 317 100 m 549 1143 l 731 1363 l 831 1276 q 727 1171 801 1235 q 607 1088 653 1107 l 549 1143 m 442 1140 l 631 926 l 564 882 l 386 1022 l 203 882 l 143 924 l 333 1140 l 442 1140 z "},"ậ":{"ha":786,"x_min":47,"x_max":763,"o":"m 47 217 q 174 407 47 343 q 503 472 301 471 l 503 504 q 491 593 503 561 q 448 641 479 625 q 357 657 417 657 q 235 640 289 657 q 122 594 181 622 l 79 683 q 149 726 100 701 q 267 770 199 751 q 407 789 335 789 q 574 761 514 789 q 661 672 635 733 q 688 508 688 611 l 688 83 l 763 83 l 763 6 q 683 -8 735 -1 q 593 -15 632 -15 q 530 -1 546 -15 q 514 56 514 13 l 514 93 q 417 18 476 51 q 282 -15 357 -15 q 165 12 218 -15 q 79 91 111 39 q 47 217 47 143 m 371 100 q 438 117 400 100 q 503 160 475 135 l 503 388 q 316 345 378 388 q 254 236 254 303 q 285 135 254 169 q 371 100 317 100 m 386 -301 q 313 -272 342 -301 q 285 -200 285 -243 q 316 -116 285 -150 q 400 -82 347 -82 q 478 -111 450 -82 q 507 -182 507 -140 q 476 -268 507 -235 q 388 -301 446 -301 l 386 -301 m 446 1199 l 653 928 l 583 875 l 386 1058 l 183 874 l 118 926 l 325 1199 l 446 1199 z "},"ầ":{"ha":786,"x_min":47,"x_max":763,"o":"m 47 217 q 174 407 47 343 q 503 472 301 471 l 503 504 q 491 593 503 561 q 448 641 479 625 q 357 657 417 657 q 235 640 289 657 q 122 594 181 622 l 79 683 q 149 726 100 701 q 267 770 199 751 q 407 789 335 789 q 574 761 514 789 q 661 672 635 733 q 688 508 688 611 l 688 83 l 763 83 l 763 6 q 683 -8 735 -1 q 593 -15 632 -15 q 530 -1 546 -15 q 514 56 514 13 l 514 93 q 417 18 476 51 q 282 -15 357 -15 q 165 12 218 -15 q 79 91 111 39 q 47 217 47 143 m 371 100 q 438 117 400 100 q 503 160 475 135 l 503 388 q 316 345 378 388 q 254 236 254 303 q 285 135 254 169 q 371 100 317 100 m 674 1110 q 569 1178 631 1126 q 467 1279 507 1231 l 568 1365 l 732 1164 l 674 1110 m 442 1140 l 631 926 l 564 882 l 386 1022 l 203 882 l 143 924 l 333 1140 l 442 1140 z "},"ẩ":{"ha":786,"x_min":47,"x_max":763,"o":"m 47 217 q 174 407 47 343 q 503 472 301 471 l 503 504 q 491 593 503 561 q 448 641 479 625 q 357 657 417 657 q 235 640 289 657 q 122 594 181 622 l 79 683 q 149 726 100 701 q 267 770 199 751 q 407 789 335 789 q 574 761 514 789 q 661 672 635 733 q 688 508 688 611 l 688 83 l 763 83 l 763 6 q 683 -8 735 -1 q 593 -15 632 -15 q 530 -1 546 -15 q 514 56 514 13 l 514 93 q 417 18 476 51 q 282 -15 357 -15 q 165 12 218 -15 q 79 91 111 39 q 47 217 47 143 m 371 100 q 438 117 400 100 q 503 160 475 135 l 503 388 q 316 345 378 388 q 254 236 254 303 q 285 135 254 169 q 371 100 317 100 m 588 1050 q 568 1085 581 1058 q 556 1124 556 1111 q 566 1154 556 1142 q 597 1182 576 1167 q 625 1206 615 1196 q 635 1231 635 1217 q 618 1264 635 1253 q 563 1275 601 1275 q 526 1271 546 1275 q 503 1264 507 1267 l 504 1358 q 533 1363 506 1361 q 583 1365 560 1365 q 706 1334 661 1365 q 751 1243 751 1303 q 731 1182 751 1208 q 674 1129 711 1156 q 656 1092 656 1117 q 661 1058 656 1075 l 588 1050 m 442 1140 l 631 926 l 564 882 l 386 1022 l 203 882 l 143 924 l 333 1140 l 442 1140 z "},"ẫ":{"ha":786,"x_min":47,"x_max":763,"o":"m 47 217 q 174 407 47 343 q 503 472 301 471 l 503 504 q 491 593 503 561 q 448 641 479 625 q 357 657 417 657 q 235 640 289 657 q 122 594 181 622 l 79 683 q 149 726 100 701 q 267 770 199 751 q 407 789 335 789 q 574 761 514 789 q 661 672 635 733 q 688 508 688 611 l 688 83 l 763 83 l 763 6 q 683 -8 735 -1 q 593 -15 632 -15 q 530 -1 546 -15 q 514 56 514 13 l 514 93 q 417 18 476 51 q 282 -15 357 -15 q 165 12 218 -15 q 79 91 111 39 q 47 217 47 143 m 371 100 q 438 117 400 100 q 503 160 475 135 l 503 388 q 316 345 378 388 q 254 236 254 303 q 285 135 254 169 q 371 100 317 100 m 182 1236 q 234 1326 197 1290 q 324 1361 271 1361 q 374 1351 353 1361 q 418 1321 394 1340 q 453 1297 442 1304 q 483 1290 465 1290 q 521 1302 507 1290 q 546 1336 535 1314 l 601 1310 q 551 1220 586 1254 q 463 1186 515 1186 q 415 1196 435 1186 q 368 1225 396 1206 q 333 1249 349 1240 q 300 1257 318 1257 q 265 1246 278 1257 q 236 1211 253 1235 l 182 1236 m 442 1140 l 631 926 l 564 882 l 386 1022 l 203 882 l 143 924 l 333 1140 l 442 1140 z "},"ä":{"ha":786,"x_min":47,"x_max":763,"o":"m 47 217 q 174 407 47 343 q 503 472 301 471 l 503 504 q 491 593 503 561 q 448 641 479 625 q 357 657 417 657 q 235 640 289 657 q 122 594 181 622 l 79 683 q 149 726 100 701 q 267 770 199 751 q 407 789 335 789 q 574 761 514 789 q 661 672 635 733 q 688 508 688 611 l 688 83 l 763 83 l 763 6 q 683 -8 735 -1 q 593 -15 632 -15 q 530 -1 546 -15 q 514 56 514 13 l 514 93 q 417 18 476 51 q 282 -15 357 -15 q 165 12 218 -15 q 79 91 111 39 q 47 217 47 143 m 371 100 q 438 117 400 100 q 503 160 475 135 l 503 388 q 316 345 378 388 q 254 236 254 303 q 285 135 254 169 q 371 100 317 100 m 213 900 q 143 929 168 900 q 118 1001 118 958 q 145 1088 118 1054 q 225 1121 172 1121 q 298 1092 274 1121 q 322 1019 322 1063 q 297 933 322 965 q 213 900 271 900 m 544 900 q 476 931 501 900 q 451 1001 451 961 q 478 1088 451 1054 q 558 1121 506 1121 q 631 1092 607 1121 q 656 1019 656 1063 q 629 933 656 965 q 544 900 603 900 z "},"ạ":{"ha":786,"x_min":47,"x_max":763,"o":"m 47 217 q 174 407 47 343 q 503 472 301 471 l 503 504 q 491 593 503 561 q 448 641 479 625 q 357 657 417 657 q 235 640 289 657 q 122 594 181 622 l 79 683 q 149 726 100 701 q 267 770 199 751 q 407 789 335 789 q 574 761 514 789 q 661 672 635 733 q 688 508 688 611 l 688 83 l 763 83 l 763 6 q 683 -8 735 -1 q 593 -15 632 -15 q 530 -1 546 -15 q 514 56 514 13 l 514 93 q 417 18 476 51 q 282 -15 357 -15 q 165 12 218 -15 q 79 91 111 39 q 47 217 47 143 m 371 100 q 438 117 400 100 q 503 160 475 135 l 503 388 q 316 345 378 388 q 254 236 254 303 q 285 135 254 169 q 371 100 317 100 m 386 -301 q 313 -272 342 -301 q 285 -200 285 -243 q 316 -116 285 -150 q 400 -82 347 -82 q 478 -111 450 -82 q 507 -182 507 -140 q 476 -268 507 -235 q 388 -301 446 -301 l 386 -301 z "},"à":{"ha":786,"x_min":47,"x_max":763,"o":"m 47 217 q 174 407 47 343 q 503 472 301 471 l 503 504 q 491 593 503 561 q 448 641 479 625 q 357 657 417 657 q 235 640 289 657 q 122 594 181 622 l 79 683 q 149 726 100 701 q 267 770 199 751 q 407 789 335 789 q 574 761 514 789 q 661 672 635 733 q 688 508 688 611 l 688 83 l 763 83 l 763 6 q 683 -8 735 -1 q 593 -15 632 -15 q 530 -1 546 -15 q 514 56 514 13 l 514 93 q 417 18 476 51 q 282 -15 357 -15 q 165 12 218 -15 q 79 91 111 39 q 47 217 47 143 m 371 100 q 438 117 400 100 q 503 160 475 135 l 503 388 q 316 345 378 388 q 254 236 254 303 q 285 135 254 169 q 371 100 317 100 m 425 892 q 331 950 390 906 q 217 1046 272 994 q 142 1133 163 1097 l 261 1240 l 496 951 l 426 892 l 425 892 z "},"ả":{"ha":786,"x_min":47,"x_max":763,"o":"m 47 217 q 174 407 47 343 q 503 472 301 471 l 503 504 q 491 593 503 561 q 448 641 479 625 q 357 657 417 657 q 235 640 289 657 q 122 594 181 622 l 79 683 q 149 726 100 701 q 267 770 199 751 q 407 789 335 789 q 574 761 514 789 q 661 672 635 733 q 688 508 688 611 l 688 83 l 763 83 l 763 6 q 683 -8 735 -1 q 593 -15 632 -15 q 530 -1 546 -15 q 514 56 514 13 l 514 93 q 417 18 476 51 q 282 -15 357 -15 q 165 12 218 -15 q 79 91 111 39 q 47 217 47 143 m 371 100 q 438 117 400 100 q 503 160 475 135 l 503 388 q 316 345 378 388 q 254 236 254 303 q 285 135 254 169 q 371 100 317 100 m 356 856 q 337 886 346 867 q 328 922 328 906 q 335 944 328 935 q 357 965 342 953 q 385 992 375 979 q 394 1024 394 1004 q 376 1075 394 1056 q 319 1094 358 1094 q 284 1090 303 1094 q 254 1078 265 1086 l 251 1186 q 349 1207 296 1207 q 481 1166 433 1207 q 529 1051 529 1125 q 513 994 529 1017 q 476 956 497 972 q 446 931 456 939 q 434 910 439 924 q 429 882 429 897 q 433 856 429 871 l 356 856 z "},"ā":{"ha":786,"x_min":47,"x_max":763,"o":"m 47 217 q 174 407 47 343 q 503 472 301 471 l 503 504 q 491 593 503 561 q 448 641 479 625 q 357 657 417 657 q 235 640 289 657 q 122 594 181 622 l 79 683 q 149 726 100 701 q 267 770 199 751 q 407 789 335 789 q 574 761 514 789 q 661 672 635 733 q 688 508 688 611 l 688 83 l 763 83 l 763 6 q 683 -8 735 -1 q 593 -15 632 -15 q 530 -1 546 -15 q 514 56 514 13 l 514 93 q 417 18 476 51 q 282 -15 357 -15 q 165 12 218 -15 q 79 91 111 39 q 47 217 47 143 m 371 100 q 438 117 400 100 q 503 160 475 135 l 503 388 q 316 345 378 388 q 254 236 254 303 q 285 135 254 169 q 371 100 317 100 m 593 926 l 181 926 l 181 1046 l 593 1046 l 593 926 z "},"ą":{"ha":786,"x_min":47,"x_max":801,"o":"m 282 -15 q 165 12 218 -15 q 79 91 111 39 q 47 217 47 143 q 174 407 47 343 q 503 472 300 471 l 503 504 q 491 593 503 561 q 448 641 479 625 q 357 657 417 657 q 231 639 286 657 q 118 594 175 621 l 75 683 q 146 726 94 700 q 266 770 197 751 q 407 789 335 789 q 574 761 514 789 q 661 672 635 733 q 688 508 688 611 l 688 83 l 763 83 l 763 6 q 722 -3 760 4 q 631 -73 668 -31 q 594 -150 594 -115 q 619 -208 594 -189 q 688 -228 643 -228 q 733 -221 713 -228 q 771 -206 754 -214 q 796 -193 788 -197 l 801 -276 q 718 -318 769 -300 q 610 -336 667 -336 q 486 -302 538 -336 q 435 -200 435 -268 q 474 -101 435 -153 q 578 -15 514 -50 q 527 1 540 -14 q 514 56 514 17 l 514 93 q 417 18 476 51 q 282 -15 357 -15 m 254 236 q 285 135 254 169 q 371 100 317 100 q 438 117 400 100 q 503 160 475 135 l 503 388 q 316 345 378 388 q 254 236 254 303 z "},"å":{"ha":786,"x_min":47,"x_max":763,"o":"m 47 217 q 174 407 47 343 q 503 472 301 471 l 503 504 q 491 593 503 561 q 448 641 479 625 q 357 657 417 657 q 235 640 289 657 q 122 594 181 622 l 79 683 q 149 726 100 701 q 267 770 199 751 q 407 789 335 789 q 574 761 514 789 q 661 672 635 733 q 688 508 688 611 l 688 83 l 763 83 l 763 6 q 683 -8 735 -1 q 593 -15 632 -15 q 530 -1 546 -15 q 514 56 514 13 l 514 93 q 417 18 476 51 q 282 -15 357 -15 q 165 12 218 -15 q 79 91 111 39 q 47 217 47 143 m 371 100 q 438 117 400 100 q 503 160 475 135 l 503 388 q 316 345 378 388 q 254 236 254 303 q 285 135 254 169 q 371 100 317 100 m 383 881 q 207 935 265 881 q 149 1075 149 989 q 183 1183 149 1138 q 273 1251 217 1228 q 394 1275 329 1275 q 565 1220 506 1275 q 624 1078 624 1165 q 554 933 622 986 q 383 881 486 881 m 386 963 q 478 990 449 963 q 507 1072 507 1017 q 478 1159 507 1126 q 388 1192 449 1192 q 296 1163 326 1192 q 265 1082 265 1135 q 296 997 265 1031 q 386 963 326 963 z "},"ǻ":{"ha":786,"x_min":47,"x_max":763,"o":"m 47 217 q 174 407 47 343 q 503 472 301 471 l 503 504 q 491 593 503 561 q 448 641 479 625 q 357 657 417 657 q 235 640 289 657 q 122 594 181 622 l 79 683 q 149 726 100 701 q 267 770 199 751 q 407 789 335 789 q 574 761 514 789 q 661 672 635 733 q 688 508 688 611 l 688 83 l 763 83 l 763 6 q 683 -8 735 -1 q 593 -15 632 -15 q 530 -1 546 -15 q 514 56 514 13 l 514 93 q 417 18 476 51 q 282 -15 357 -15 q 165 12 218 -15 q 79 91 111 39 q 47 217 47 143 m 371 100 q 438 117 400 100 q 503 160 475 135 l 503 388 q 316 345 378 388 q 254 236 254 303 q 285 135 254 169 q 371 100 317 100 m 149 1042 q 194 1157 149 1115 q 317 1213 240 1199 l 419 1367 l 547 1307 q 454 1214 500 1244 q 579 1156 533 1200 q 625 1049 625 1111 q 556 913 624 958 q 383 867 489 867 q 213 914 276 867 q 149 1042 149 961 m 267 1046 q 300 976 267 1001 q 386 951 333 951 q 476 970 444 951 q 507 1038 507 989 q 474 1107 507 1082 q 388 1132 442 1132 q 300 1110 333 1132 q 267 1046 267 1088 z "},"ã":{"ha":786,"x_min":47,"x_max":763,"o":"m 47 217 q 174 407 47 343 q 503 472 301 471 l 503 504 q 491 593 503 561 q 448 641 479 625 q 357 657 417 657 q 235 640 289 657 q 122 594 181 622 l 79 683 q 149 726 100 701 q 267 770 199 751 q 407 789 335 789 q 574 761 514 789 q 661 672 635 733 q 688 508 688 611 l 688 83 l 763 83 l 763 6 q 683 -8 735 -1 q 593 -15 632 -15 q 530 -1 546 -15 q 514 56 514 13 l 514 93 q 417 18 476 51 q 282 -15 357 -15 q 165 12 218 -15 q 79 91 111 39 q 47 217 47 143 m 371 100 q 438 117 400 100 q 503 160 475 135 l 503 388 q 316 345 378 388 q 254 236 254 303 q 285 135 254 169 q 371 100 317 100 m 104 975 q 168 1089 118 1044 q 285 1133 218 1133 q 353 1117 325 1133 q 418 1072 382 1101 q 460 1040 442 1050 q 497 1029 478 1029 q 547 1048 531 1029 q 571 1084 564 1067 q 581 1106 578 1101 l 663 1060 q 606 945 650 990 q 493 900 561 900 q 426 916 454 900 q 361 963 399 932 q 317 996 335 985 q 278 1007 299 1007 q 230 992 247 1007 q 201 957 213 976 q 183 929 190 938 l 104 975 z "},"æ":{"ha":1206,"x_min":46,"x_max":1160,"o":"m 279 -15 q 113 43 179 -15 q 46 210 46 101 q 169 405 46 339 q 499 472 292 471 q 488 587 499 549 q 446 640 476 625 q 351 656 415 656 q 238 641 289 656 q 153 612 188 626 q 110 593 119 597 l 68 682 q 141 726 89 701 q 263 770 193 751 q 403 789 332 789 q 544 768 492 789 q 624 703 597 747 q 867 792 719 792 q 1082 719 1007 792 q 1160 511 1157 646 q 1150 375 1160 422 l 694 375 q 754 178 700 249 q 908 108 808 108 q 1022 126 963 108 q 1115 168 1081 144 l 1147 93 q 1026 19 1110 53 q 857 -15 943 -15 q 560 128 653 -15 q 445 27 521 69 q 279 -15 369 -15 m 963 458 q 964 518 964 475 q 843 703 964 703 q 737 649 775 703 q 693 458 699 596 l 963 458 m 369 100 q 462 127 418 100 q 528 192 506 154 q 496 393 496 278 q 317 347 376 392 q 258 236 258 303 q 288 133 258 165 q 369 100 318 100 z "},"ǽ":{"ha":1206,"x_min":46,"x_max":1160,"o":"m 279 -15 q 113 43 179 -15 q 46 210 46 101 q 169 405 46 339 q 499 472 292 471 q 488 587 499 549 q 446 640 476 625 q 351 656 415 656 q 238 641 289 656 q 153 612 188 626 q 110 593 119 597 l 68 682 q 141 726 89 701 q 263 770 193 751 q 403 789 332 789 q 544 768 492 789 q 624 703 597 747 q 867 792 719 792 q 1082 719 1007 792 q 1160 511 1157 646 q 1150 375 1160 422 l 694 375 q 754 178 700 249 q 908 108 808 108 q 1022 126 963 108 q 1115 168 1081 144 l 1147 93 q 1026 19 1110 53 q 857 -15 943 -15 q 560 128 653 -15 q 445 27 521 69 q 279 -15 369 -15 m 963 458 q 964 518 964 475 q 843 703 964 703 q 737 649 775 703 q 693 458 699 596 l 963 458 m 369 100 q 462 127 418 100 q 528 192 506 154 q 496 393 496 278 q 317 347 376 392 q 258 236 258 303 q 288 133 258 165 q 369 100 318 100 m 500 953 l 735 1242 l 857 1135 q 727 999 824 1079 q 571 893 631 918 l 500 953 z "},"b":{"ha":858,"x_min":0,"x_max":808,"o":"m 0 1108 l 254 1139 l 257 1139 l 296 1113 l 296 703 q 388 766 333 740 q 507 792 443 792 q 724 698 640 792 q 808 411 808 604 q 758 194 808 292 q 615 41 708 97 q 397 -15 521 -15 q 207 3 288 -15 q 104 38 126 22 l 104 1019 l 0 1036 l 0 1108 m 433 669 q 355 651 392 669 q 296 608 318 632 l 296 101 q 335 76 304 86 q 404 67 365 67 q 547 149 493 67 q 600 394 600 232 q 554 602 600 535 q 433 669 508 669 z "},"ḃ":{"ha":858,"x_min":0,"x_max":808,"o":"m 0 1108 l 254 1139 l 257 1139 l 296 1113 l 296 703 q 388 766 333 740 q 507 792 443 792 q 724 698 640 792 q 808 411 808 604 q 758 194 808 292 q 615 41 708 97 q 397 -15 521 -15 q 207 3 288 -15 q 104 38 126 22 l 104 1019 l 0 1036 l 0 1108 m 433 669 q 355 651 392 669 q 296 608 318 632 l 296 101 q 335 76 304 86 q 404 67 365 67 q 547 149 493 67 q 600 394 600 232 q 554 602 600 535 q 433 669 508 669 m 547 899 q 468 928 497 899 q 439 1003 439 958 q 472 1090 439 1056 q 563 1125 506 1125 q 647 1095 618 1125 q 676 1021 676 1065 q 643 932 676 965 q 549 899 610 899 l 547 899 z "},"ḅ":{"ha":858,"x_min":0,"x_max":808,"o":"m 0 1108 l 254 1139 l 257 1139 l 296 1113 l 296 703 q 388 766 333 740 q 507 792 443 792 q 724 698 640 792 q 808 411 808 604 q 758 194 808 292 q 615 41 708 97 q 397 -15 521 -15 q 207 3 288 -15 q 104 38 126 22 l 104 1019 l 0 1036 l 0 1108 m 433 669 q 355 651 392 669 q 296 608 318 632 l 296 101 q 335 76 304 86 q 404 67 365 67 q 547 149 493 67 q 600 394 600 232 q 554 602 600 535 q 433 669 508 669 m 386 -303 q 313 -274 342 -303 q 285 -201 285 -244 q 316 -117 285 -151 q 400 -83 347 -83 q 478 -112 450 -83 q 507 -183 507 -142 q 476 -269 507 -236 q 388 -303 446 -303 l 386 -303 z "},"c":{"ha":721,"x_min":44,"x_max":672,"o":"m 44 382 q 92 594 44 501 q 230 740 140 688 q 439 792 319 792 q 535 783 494 792 q 625 761 575 775 l 665 750 l 657 513 l 536 513 l 501 665 q 419 701 493 701 q 298 633 342 701 q 253 421 254 565 q 306 187 253 268 q 446 106 358 106 q 640 163 551 106 l 672 90 q 562 18 636 51 q 401 -15 488 -15 q 134 94 224 -15 q 44 382 44 204 z "},"ć":{"ha":721,"x_min":44,"x_max":672,"o":"m 44 382 q 92 594 44 501 q 230 740 140 688 q 439 792 319 792 q 535 783 494 792 q 625 761 575 775 l 665 750 l 657 513 l 536 513 l 501 665 q 419 701 493 701 q 298 633 342 701 q 253 421 254 565 q 306 187 253 268 q 446 106 358 106 q 640 163 551 106 l 672 90 q 562 18 636 51 q 401 -15 488 -15 q 134 94 224 -15 q 44 382 44 204 m 272 953 l 507 1242 l 629 1135 q 499 999 596 1079 q 343 893 403 918 l 272 953 z "},"č":{"ha":721,"x_min":44,"x_max":672,"o":"m 44 382 q 92 594 44 501 q 230 740 140 688 q 439 792 319 792 q 535 783 494 792 q 625 761 575 775 l 665 750 l 657 513 l 536 513 l 501 665 q 419 701 493 701 q 298 633 342 701 q 253 421 254 565 q 306 187 253 268 q 446 106 358 106 q 640 163 551 106 l 672 90 q 562 18 636 51 q 401 -15 488 -15 q 134 94 224 -15 q 44 382 44 204 m 401 1021 l 604 1208 l 669 1156 l 463 883 l 342 883 l 136 1156 l 203 1207 l 401 1021 z "},"ç":{"ha":721,"x_min":44,"x_max":672,"o":"m 44 382 q 92 594 44 501 q 230 740 140 688 q 439 792 319 792 q 535 783 494 792 q 625 761 575 775 l 665 750 l 657 513 l 536 513 l 501 665 q 419 701 493 701 q 298 633 342 701 q 253 421 254 565 q 306 187 253 268 q 446 106 358 106 q 640 163 551 106 l 672 90 q 580 26 643 57 q 443 -12 517 -4 q 498 -93 474 -46 q 522 -190 522 -140 q 473 -312 522 -276 q 325 -349 424 -349 q 274 -342 301 -349 q 226 -328 246 -336 l 228 -212 q 286 -222 256 -222 q 363 -204 340 -222 q 386 -126 386 -186 q 375 -67 386 -97 q 350 -12 364 -36 q 121 111 197 4 q 44 382 44 218 z "},"ĉ":{"ha":721,"x_min":44,"x_max":672,"o":"m 44 382 q 92 594 44 501 q 230 740 140 688 q 439 792 319 792 q 535 783 494 792 q 625 761 575 775 l 665 750 l 657 513 l 536 513 l 501 665 q 419 701 493 701 q 298 633 342 701 q 253 421 254 565 q 306 187 253 268 q 446 106 358 106 q 640 163 551 106 l 672 90 q 562 18 636 51 q 401 -15 488 -15 q 134 94 224 -15 q 44 382 44 204 m 463 1199 l 669 928 l 600 875 l 403 1058 l 200 874 l 135 926 l 342 1199 l 463 1199 z "},"ċ":{"ha":721,"x_min":44,"x_max":672,"o":"m 44 382 q 92 594 44 501 q 230 740 140 688 q 439 792 319 792 q 535 783 494 792 q 625 761 575 775 l 665 750 l 657 513 l 536 513 l 501 665 q 419 701 493 701 q 298 633 342 701 q 253 421 254 565 q 306 187 253 268 q 446 106 358 106 q 640 163 551 106 l 672 90 q 562 18 636 51 q 401 -15 488 -15 q 134 94 224 -15 q 44 382 44 204 m 393 899 q 314 928 343 899 q 285 1003 285 958 q 318 1090 285 1056 q 408 1125 351 1125 q 493 1095 464 1125 q 522 1021 522 1065 q 489 932 522 965 q 394 899 456 899 l 393 899 z "},"d":{"ha":869,"x_min":50,"x_max":831,"o":"m 353 -15 q 199 26 267 -15 q 90 153 131 67 q 50 368 50 239 q 98 581 50 485 q 239 735 146 678 q 463 792 332 792 q 563 781 515 792 l 563 1015 l 426 1035 l 426 1111 l 713 1139 l 717 1139 l 756 1110 l 756 85 l 831 85 l 831 6 q 665 -15 731 -15 q 602 -1 621 -15 q 583 57 583 14 l 583 96 q 485 16 547 47 q 353 -15 422 -15 m 425 100 q 506 119 471 100 q 563 164 542 138 l 563 669 q 522 693 553 683 q 454 703 490 703 q 312 626 365 703 q 258 379 258 549 q 304 169 258 238 q 425 100 350 100 z "},"ð":{"ha":826,"x_min":49,"x_max":782,"o":"m 411 -15 q 142 89 236 -15 q 49 368 49 193 q 99 601 49 506 q 230 744 149 697 q 406 792 311 792 q 535 767 479 792 q 461 906 511 840 q 340 1018 411 971 l 247 899 l 167 956 l 263 1072 q 185 1116 225 1097 q 118 1142 146 1135 l 153 1225 q 335 1158 253 1200 l 422 1271 l 500 1210 l 418 1110 q 682 834 582 999 q 782 457 782 669 q 745 227 782 333 q 626 53 708 121 q 411 -15 543 -15 m 419 75 q 537 161 499 75 q 575 432 575 247 q 566 564 575 503 q 547 657 557 625 q 501 691 533 675 q 422 707 468 707 q 303 627 346 707 q 261 388 261 547 q 299 164 261 253 q 419 75 338 75 z "},"ď":{"ha":869,"x_min":50,"x_max":1011,"o":"m 353 -15 q 199 26 267 -15 q 90 153 131 67 q 50 368 50 239 q 98 581 50 485 q 239 735 146 678 q 463 792 332 792 q 563 781 515 792 l 563 1015 l 426 1035 l 426 1111 l 713 1139 l 717 1139 l 756 1110 l 756 85 l 831 85 l 831 6 q 665 -15 731 -15 q 602 -1 621 -15 q 583 57 583 14 l 583 96 q 485 16 547 47 q 353 -15 422 -15 m 425 100 q 506 119 471 100 q 563 164 542 138 l 563 669 q 522 693 553 683 q 454 703 490 703 q 312 626 365 703 q 258 379 258 549 q 304 169 258 238 q 425 100 350 100 m 857 833 l 853 847 q 861 993 861 897 q 843 1117 861 1076 l 850 1144 l 999 1144 q 1011 1039 1011 1114 q 997 929 1011 986 q 964 832 983 872 l 857 833 z "},"đ":{"ha":869,"x_min":50,"x_max":853,"o":"m 561 1015 l 424 1035 l 424 1111 l 710 1139 l 715 1139 l 753 1110 l 753 949 l 853 949 l 853 865 l 753 865 l 753 85 l 829 85 l 829 6 q 664 -15 725 -15 q 600 -1 619 -15 q 581 57 581 14 l 581 96 q 483 16 544 47 q 351 -15 421 -15 q 197 26 265 -15 q 90 153 129 67 q 50 368 50 239 q 98 581 50 485 q 239 735 146 678 q 461 792 332 792 q 561 781 514 792 l 561 865 l 378 865 l 378 949 l 561 949 l 561 1015 m 424 100 q 505 119 469 100 q 561 164 540 138 l 561 669 q 520 693 551 683 q 453 703 489 703 q 310 627 364 703 q 257 385 257 551 q 303 170 257 240 q 424 100 349 100 z "},"ḋ":{"ha":869,"x_min":50,"x_max":831,"o":"m 353 -15 q 199 26 267 -15 q 90 153 131 67 q 50 368 50 239 q 98 581 50 485 q 239 735 146 678 q 463 792 332 792 q 563 781 515 792 l 563 1015 l 426 1035 l 426 1111 l 713 1139 l 717 1139 l 756 1110 l 756 85 l 831 85 l 831 6 q 665 -15 731 -15 q 602 -1 621 -15 q 583 57 583 14 l 583 96 q 485 16 547 47 q 353 -15 422 -15 m 425 100 q 506 119 471 100 q 563 164 542 138 l 563 669 q 522 693 553 683 q 454 703 490 703 q 312 626 365 703 q 258 379 258 549 q 304 169 258 238 q 425 100 350 100 m 186 861 q 107 891 136 861 q 78 965 78 921 q 111 1053 78 1018 q 201 1088 144 1088 q 286 1058 257 1088 q 315 983 315 1028 q 282 894 315 928 q 188 861 249 861 l 186 861 z "},"ḍ":{"ha":869,"x_min":50,"x_max":831,"o":"m 353 -15 q 199 26 267 -15 q 90 153 131 67 q 50 368 50 239 q 98 581 50 485 q 239 735 146 678 q 463 792 332 792 q 563 781 515 792 l 563 1015 l 426 1035 l 426 1111 l 713 1139 l 717 1139 l 756 1110 l 756 85 l 831 85 l 831 6 q 665 -15 731 -15 q 602 -1 621 -15 q 583 57 583 14 l 583 96 q 485 16 547 47 q 353 -15 422 -15 m 425 100 q 506 119 471 100 q 563 164 542 138 l 563 669 q 522 693 553 683 q 454 703 490 703 q 312 626 365 703 q 258 379 258 549 q 304 169 258 238 q 425 100 350 100 m 425 -301 q 352 -272 381 -301 q 324 -200 324 -243 q 355 -116 324 -150 q 439 -82 386 -82 q 517 -111 489 -82 q 546 -182 546 -140 q 515 -268 546 -235 q 426 -301 485 -301 l 425 -301 z "},"ǳ":{"ha":1644,"x_min":50,"x_max":1603,"o":"m 353 -15 q 199 26 267 -15 q 90 153 131 67 q 50 368 50 239 q 98 581 50 485 q 239 735 146 678 q 463 792 332 792 q 563 781 515 792 l 563 1015 l 426 1035 l 426 1111 l 713 1139 l 717 1139 l 756 1110 l 756 85 l 831 85 l 831 6 q 665 -15 731 -15 q 602 -1 621 -15 q 583 57 583 14 l 583 96 q 485 16 547 47 q 353 -15 422 -15 m 425 100 q 506 119 471 100 q 563 164 542 138 l 563 669 q 522 693 553 683 q 454 703 490 703 q 312 626 365 703 q 258 379 258 549 q 304 169 258 238 q 425 100 350 100 m 1085 672 l 1053 536 l 953 536 l 953 772 l 1565 772 l 1597 700 l 1228 188 l 1131 88 l 1442 103 l 1508 263 l 1603 251 l 1581 0 l 936 0 l 901 76 l 1281 578 l 1381 682 l 1085 672 z "},"ǆ":{"ha":1644,"x_min":50,"x_max":1603,"o":"m 353 -15 q 199 26 267 -15 q 90 153 131 67 q 50 368 50 239 q 98 581 50 485 q 239 735 146 678 q 463 792 332 792 q 563 781 515 792 l 563 1015 l 426 1035 l 426 1111 l 713 1139 l 717 1139 l 756 1110 l 756 85 l 831 85 l 831 6 q 665 -15 731 -15 q 602 -1 621 -15 q 583 57 583 14 l 583 96 q 485 16 547 47 q 353 -15 422 -15 m 425 100 q 506 119 471 100 q 563 164 542 138 l 563 669 q 522 693 553 683 q 454 703 490 703 q 312 626 365 703 q 258 379 258 549 q 304 169 258 238 q 425 100 350 100 m 1085 672 l 1053 536 l 953 536 l 953 772 l 1565 772 l 1597 700 l 1228 188 l 1131 88 l 1442 103 l 1508 263 l 1603 251 l 1581 0 l 936 0 l 901 76 l 1281 578 l 1381 682 l 1085 672 m 1278 1021 l 1481 1208 l 1546 1156 l 1339 883 l 1218 883 l 1013 1156 l 1079 1207 l 1278 1021 z "},"e":{"ha":764,"x_min":50,"x_max":715,"o":"m 413 -15 q 140 92 229 -15 q 50 386 50 200 q 97 603 50 511 q 228 743 143 694 q 424 792 313 792 q 638 719 563 792 q 715 511 713 646 q 704 375 715 419 l 253 375 q 313 178 258 249 q 467 108 367 108 q 578 126 521 108 q 669 169 636 144 l 704 93 q 583 19 667 53 q 413 -15 499 -15 m 521 458 q 524 518 524 497 q 400 703 524 703 q 294 649 332 703 q 253 458 257 594 l 521 458 z "},"é":{"ha":764,"x_min":50,"x_max":715,"o":"m 413 -15 q 140 92 229 -15 q 50 386 50 200 q 97 603 50 511 q 228 743 143 694 q 424 792 313 792 q 638 719 563 792 q 715 511 713 646 q 704 375 715 419 l 253 375 q 313 178 258 249 q 467 108 367 108 q 578 126 521 108 q 669 169 636 144 l 704 93 q 583 19 667 53 q 413 -15 499 -15 m 521 458 q 524 518 524 497 q 400 703 524 703 q 294 649 332 703 q 253 458 257 594 l 521 458 m 279 953 l 514 1242 l 636 1135 q 506 999 603 1079 q 350 893 410 918 l 279 953 z "},"ĕ":{"ha":764,"x_min":50,"x_max":715,"o":"m 413 -15 q 140 92 229 -15 q 50 386 50 200 q 97 603 50 511 q 228 743 143 694 q 424 792 313 792 q 638 719 563 792 q 715 511 713 646 q 704 375 715 419 l 253 375 q 313 178 258 249 q 467 108 367 108 q 578 126 521 108 q 669 169 636 144 l 704 93 q 583 19 667 53 q 413 -15 499 -15 m 521 458 q 524 518 524 497 q 400 703 524 703 q 294 649 332 703 q 253 458 257 594 l 521 458 m 413 901 q 283 931 339 901 q 196 1012 226 961 q 165 1126 165 1063 q 168 1183 165 1169 l 261 1183 q 263 1156 261 1165 q 303 1072 267 1106 q 413 1038 340 1038 q 520 1072 485 1038 q 561 1154 556 1106 q 563 1183 564 1175 l 653 1183 q 656 1128 656 1156 q 625 1013 656 1064 q 539 931 594 961 q 413 901 483 901 z "},"ě":{"ha":764,"x_min":50,"x_max":715,"o":"m 413 -15 q 140 92 229 -15 q 50 386 50 200 q 97 603 50 511 q 228 743 143 694 q 424 792 313 792 q 638 719 563 792 q 715 511 713 646 q 704 375 715 419 l 253 375 q 313 178 258 249 q 467 108 367 108 q 578 126 521 108 q 669 169 636 144 l 704 93 q 583 19 667 53 q 413 -15 499 -15 m 521 458 q 524 518 524 497 q 400 703 524 703 q 294 649 332 703 q 253 458 257 594 l 521 458 m 408 1021 l 611 1208 l 676 1156 l 469 883 l 349 883 l 143 1156 l 210 1207 l 408 1021 z "},"ȩ":{"ha":764,"x_min":50,"x_max":715,"o":"m 50 386 q 97 603 50 511 q 228 743 143 694 q 424 792 313 792 q 638 719 563 792 q 715 511 713 646 q 704 375 715 419 l 253 375 q 313 178 258 249 q 467 108 367 108 q 578 126 521 108 q 669 169 636 144 l 704 93 q 597 25 669 57 q 444 -14 524 -7 q 497 -93 474 -46 q 521 -190 521 -140 q 472 -313 521 -278 q 325 -349 424 -349 q 273 -342 301 -349 q 226 -328 244 -336 l 225 -212 q 256 -219 238 -217 q 286 -222 275 -222 q 362 -204 339 -222 q 385 -126 385 -186 q 349 -11 385 -74 q 124 113 199 7 q 50 386 50 218 m 521 458 q 524 518 524 497 q 400 703 524 703 q 294 649 332 703 q 253 458 257 594 l 521 458 z "},"ê":{"ha":764,"x_min":50,"x_max":715,"o":"m 413 -15 q 140 92 229 -15 q 50 386 50 200 q 97 603 50 511 q 228 743 143 694 q 424 792 313 792 q 638 719 563 792 q 715 511 713 646 q 704 375 715 419 l 253 375 q 313 178 258 249 q 467 108 367 108 q 578 126 521 108 q 669 169 636 144 l 704 93 q 583 19 667 53 q 413 -15 499 -15 m 521 458 q 524 518 524 497 q 400 703 524 703 q 294 649 332 703 q 253 458 257 594 l 521 458 m 469 1199 l 676 928 l 607 875 l 410 1058 l 207 874 l 142 926 l 349 1199 l 469 1199 z "},"ế":{"ha":764,"x_min":50,"x_max":854,"o":"m 413 -15 q 140 92 229 -15 q 50 386 50 200 q 97 603 50 511 q 228 743 143 694 q 424 792 313 792 q 638 719 563 792 q 715 511 713 646 q 704 375 715 419 l 253 375 q 313 178 258 249 q 467 108 367 108 q 578 126 521 108 q 669 169 636 144 l 704 93 q 583 19 667 53 q 413 -15 499 -15 m 521 458 q 524 518 524 497 q 400 703 524 703 q 294 649 332 703 q 253 458 257 594 l 521 458 m 572 1143 l 754 1363 l 854 1276 q 751 1171 825 1235 q 631 1088 676 1107 l 572 1143 m 465 1140 l 654 926 l 588 882 l 410 1022 l 226 882 l 167 924 l 357 1140 l 465 1140 z "},"ệ":{"ha":764,"x_min":50,"x_max":715,"o":"m 413 -15 q 140 92 229 -15 q 50 386 50 200 q 97 603 50 511 q 228 743 143 694 q 424 792 313 792 q 638 719 563 792 q 715 511 713 646 q 704 375 715 419 l 253 375 q 313 178 258 249 q 467 108 367 108 q 578 126 521 108 q 669 169 636 144 l 704 93 q 583 19 667 53 q 413 -15 499 -15 m 521 458 q 524 518 524 497 q 400 703 524 703 q 294 649 332 703 q 253 458 257 594 l 521 458 m 372 -301 q 299 -272 328 -301 q 271 -200 271 -243 q 302 -116 271 -150 q 386 -82 333 -82 q 465 -111 436 -82 q 493 -182 493 -140 q 463 -268 493 -235 q 374 -301 432 -301 l 372 -301 m 469 1199 l 676 928 l 607 875 l 410 1058 l 207 874 l 142 926 l 349 1199 l 469 1199 z "},"ề":{"ha":764,"x_min":50,"x_max":756,"o":"m 413 -15 q 140 92 229 -15 q 50 386 50 200 q 97 603 50 511 q 228 743 143 694 q 424 792 313 792 q 638 719 563 792 q 715 511 713 646 q 704 375 715 419 l 253 375 q 313 178 258 249 q 467 108 367 108 q 578 126 521 108 q 669 169 636 144 l 704 93 q 583 19 667 53 q 413 -15 499 -15 m 521 458 q 524 518 524 497 q 400 703 524 703 q 294 649 332 703 q 253 458 257 594 l 521 458 m 697 1110 q 592 1178 654 1126 q 490 1279 531 1231 l 592 1365 l 756 1164 l 697 1110 m 465 1140 l 654 926 l 588 882 l 410 1022 l 226 882 l 167 924 l 357 1140 l 465 1140 z "},"ể":{"ha":764,"x_min":50,"x_max":775,"o":"m 413 -15 q 140 92 229 -15 q 50 386 50 200 q 97 603 50 511 q 228 743 143 694 q 424 792 313 792 q 638 719 563 792 q 715 511 713 646 q 704 375 715 419 l 253 375 q 313 178 258 249 q 467 108 367 108 q 578 126 521 108 q 669 169 636 144 l 704 93 q 583 19 667 53 q 413 -15 499 -15 m 521 458 q 524 518 524 497 q 400 703 524 703 q 294 649 332 703 q 253 458 257 594 l 521 458 m 611 1050 q 592 1085 604 1058 q 579 1124 579 1111 q 590 1154 579 1142 q 621 1182 600 1167 q 649 1206 639 1196 q 658 1231 658 1217 q 642 1264 658 1253 q 586 1275 625 1275 q 550 1271 569 1275 q 526 1264 531 1267 l 528 1358 q 556 1363 529 1361 q 607 1365 583 1365 q 730 1334 685 1365 q 775 1243 775 1303 q 755 1182 775 1208 q 697 1129 735 1156 q 679 1092 679 1117 q 685 1058 679 1075 l 611 1050 m 465 1140 l 654 926 l 588 882 l 410 1022 l 226 882 l 167 924 l 357 1140 l 465 1140 z "},"ễ":{"ha":764,"x_min":50,"x_max":715,"o":"m 413 -15 q 140 92 229 -15 q 50 386 50 200 q 97 603 50 511 q 228 743 143 694 q 424 792 313 792 q 638 719 563 792 q 715 511 713 646 q 704 375 715 419 l 253 375 q 313 178 258 249 q 467 108 367 108 q 578 126 521 108 q 669 169 636 144 l 704 93 q 583 19 667 53 q 413 -15 499 -15 m 521 458 q 524 518 524 497 q 400 703 524 703 q 294 649 332 703 q 253 458 257 594 l 521 458 m 206 1236 q 258 1326 221 1290 q 347 1361 294 1361 q 397 1351 376 1361 q 442 1321 418 1340 q 477 1297 465 1304 q 507 1290 489 1290 q 544 1302 531 1290 q 569 1336 558 1314 l 625 1310 q 574 1220 610 1254 q 486 1186 539 1186 q 439 1196 458 1186 q 392 1225 419 1206 q 357 1249 372 1240 q 324 1257 342 1257 q 289 1246 301 1257 q 260 1211 276 1235 l 206 1236 m 465 1140 l 654 926 l 588 882 l 410 1022 l 226 882 l 167 924 l 357 1140 l 465 1140 z "},"ë":{"ha":764,"x_min":50,"x_max":715,"o":"m 413 -15 q 140 92 229 -15 q 50 386 50 200 q 97 603 50 511 q 228 743 143 694 q 424 792 313 792 q 638 719 563 792 q 715 511 713 646 q 704 375 715 419 l 253 375 q 313 178 258 249 q 467 108 367 108 q 578 126 521 108 q 669 169 636 144 l 704 93 q 583 19 667 53 q 413 -15 499 -15 m 521 458 q 524 518 524 497 q 400 703 524 703 q 294 649 332 703 q 253 458 257 594 l 521 458 m 236 900 q 167 929 192 900 q 142 1001 142 958 q 169 1088 142 1054 q 249 1121 196 1121 q 322 1092 297 1121 q 346 1019 346 1063 q 320 933 346 965 q 236 900 294 900 m 568 900 q 500 931 525 900 q 475 1001 475 961 q 502 1088 475 1054 q 582 1121 529 1121 q 655 1092 631 1121 q 679 1019 679 1063 q 653 933 679 965 q 568 900 626 900 z "},"ė":{"ha":764,"x_min":50,"x_max":715,"o":"m 413 -15 q 140 92 229 -15 q 50 386 50 200 q 97 603 50 511 q 228 743 143 694 q 424 792 313 792 q 638 719 563 792 q 715 511 713 646 q 704 375 715 419 l 253 375 q 313 178 258 249 q 467 108 367 108 q 578 126 521 108 q 669 169 636 144 l 704 93 q 583 19 667 53 q 413 -15 499 -15 m 521 458 q 524 518 524 497 q 400 703 524 703 q 294 649 332 703 q 253 458 257 594 l 521 458 m 400 899 q 321 928 350 899 q 292 1003 292 958 q 325 1090 292 1056 q 415 1125 358 1125 q 500 1095 471 1125 q 529 1021 529 1065 q 496 932 529 965 q 401 899 463 899 l 400 899 z "},"ẹ":{"ha":764,"x_min":50,"x_max":715,"o":"m 413 -15 q 140 92 229 -15 q 50 386 50 200 q 97 603 50 511 q 228 743 143 694 q 424 792 313 792 q 638 719 563 792 q 715 511 713 646 q 704 375 715 419 l 253 375 q 313 178 258 249 q 467 108 367 108 q 578 126 521 108 q 669 169 636 144 l 704 93 q 583 19 667 53 q 413 -15 499 -15 m 521 458 q 524 518 524 497 q 400 703 524 703 q 294 649 332 703 q 253 458 257 594 l 521 458 m 372 -301 q 299 -272 328 -301 q 271 -200 271 -243 q 302 -116 271 -150 q 386 -82 333 -82 q 465 -111 436 -82 q 493 -182 493 -140 q 463 -268 493 -235 q 374 -301 432 -301 l 372 -301 z "},"è":{"ha":764,"x_min":50,"x_max":715,"o":"m 413 -15 q 140 92 229 -15 q 50 386 50 200 q 97 603 50 511 q 228 743 143 694 q 424 792 313 792 q 638 719 563 792 q 715 511 713 646 q 704 375 715 419 l 253 375 q 313 178 258 249 q 467 108 367 108 q 578 126 521 108 q 669 169 636 144 l 704 93 q 583 19 667 53 q 413 -15 499 -15 m 521 458 q 524 518 524 497 q 400 703 524 703 q 294 649 332 703 q 253 458 257 594 l 521 458 m 449 892 q 355 950 414 906 q 241 1046 296 994 q 165 1133 186 1097 l 285 1240 l 519 951 l 450 892 l 449 892 z "},"ẻ":{"ha":764,"x_min":50,"x_max":715,"o":"m 413 -15 q 140 92 229 -15 q 50 386 50 200 q 97 603 50 511 q 228 743 143 694 q 424 792 313 792 q 638 719 563 792 q 715 511 713 646 q 704 375 715 419 l 253 375 q 313 178 258 249 q 467 108 367 108 q 578 126 521 108 q 669 169 636 144 l 704 93 q 583 19 667 53 q 413 -15 499 -15 m 521 458 q 524 518 524 497 q 400 703 524 703 q 294 649 332 703 q 253 458 257 594 l 521 458 m 379 856 q 360 886 369 867 q 351 922 351 906 q 358 944 351 935 q 381 965 365 953 q 408 992 399 979 q 418 1024 418 1004 q 400 1075 418 1056 q 343 1094 382 1094 q 308 1090 326 1094 q 278 1078 289 1086 l 275 1186 q 372 1207 319 1207 q 505 1166 457 1207 q 553 1051 553 1125 q 537 994 553 1017 q 500 956 521 972 q 469 931 479 939 q 458 910 463 924 q 453 882 453 897 q 457 856 453 871 l 379 856 z "},"ē":{"ha":764,"x_min":50,"x_max":715,"o":"m 413 -15 q 140 92 229 -15 q 50 386 50 200 q 97 603 50 511 q 228 743 143 694 q 424 792 313 792 q 638 719 563 792 q 715 511 713 646 q 704 375 715 419 l 253 375 q 313 178 258 249 q 467 108 367 108 q 578 126 521 108 q 669 169 636 144 l 704 93 q 583 19 667 53 q 413 -15 499 -15 m 521 458 q 524 518 524 497 q 400 703 524 703 q 294 649 332 703 q 253 458 257 594 l 521 458 m 617 926 l 204 926 l 204 1046 l 617 1046 l 617 926 z "},"ę":{"ha":764,"x_min":50,"x_max":715,"o":"m 421 -336 q 299 -301 351 -336 q 246 -200 246 -267 q 284 -99 246 -147 q 389 -14 322 -51 q 134 99 218 -8 q 50 386 50 207 q 97 603 50 511 q 228 743 143 694 q 424 792 313 792 q 638 719 563 792 q 715 511 713 646 q 704 375 715 419 l 253 375 q 313 178 258 249 q 467 108 367 108 q 578 126 521 108 q 669 169 636 144 l 704 93 q 644 49 682 72 q 560 11 606 26 q 452 -60 499 -14 q 406 -150 406 -107 q 497 -228 406 -228 q 549 -219 525 -228 q 591 -203 574 -211 q 614 -193 608 -196 l 615 -272 q 421 -336 528 -336 m 521 458 q 524 518 524 497 q 400 703 524 703 q 294 649 332 703 q 253 458 257 594 l 521 458 z "},"ẽ":{"ha":764,"x_min":50,"x_max":715,"o":"m 413 -15 q 140 92 229 -15 q 50 386 50 200 q 97 603 50 511 q 228 743 143 694 q 424 792 313 792 q 638 719 563 792 q 715 511 713 646 q 704 375 715 419 l 253 375 q 313 178 258 249 q 467 108 367 108 q 578 126 521 108 q 669 169 636 144 l 704 93 q 583 19 667 53 q 413 -15 499 -15 m 521 458 q 524 518 524 497 q 400 703 524 703 q 294 649 332 703 q 253 458 257 594 l 521 458 m 128 975 q 192 1089 142 1044 q 308 1133 242 1133 q 377 1117 349 1133 q 442 1072 406 1101 q 483 1040 465 1050 q 521 1029 501 1029 q 571 1048 554 1029 q 594 1084 588 1067 q 604 1106 601 1101 l 686 1060 q 629 945 674 990 q 517 900 585 900 q 450 916 478 900 q 385 963 422 932 q 340 996 358 985 q 301 1007 322 1007 q 253 992 271 1007 q 225 957 236 976 q 207 929 214 938 l 128 975 z "},"ə":{"ha":764,"x_min":49,"x_max":714,"o":"m 351 788 q 624 680 535 788 q 714 386 714 572 q 667 169 714 261 q 536 29 621 78 q 340 -19 451 -19 q 126 53 201 -19 q 49 261 51 126 q 60 397 49 353 l 511 397 q 451 594 506 524 q 297 664 397 664 q 185 646 243 664 q 94 603 128 628 l 60 679 q 181 753 97 719 q 351 788 265 788 m 243 314 q 240 254 240 275 q 364 69 240 69 q 469 124 432 69 q 511 314 507 178 l 243 314 z "},"f":{"ha":567,"x_min":42,"x_max":594,"o":"m 158 664 l 42 664 l 42 742 l 158 769 l 158 831 q 206 996 158 921 q 335 1115 254 1071 q 506 1158 415 1158 q 594 1144 553 1158 l 594 967 q 540 994 581 981 q 454 1008 499 1008 q 377 981 400 1008 q 354 889 354 954 l 354 771 l 531 771 l 531 664 l 354 664 l 354 94 l 500 83 l 500 0 l 49 0 l 49 83 l 158 96 l 158 664 z "},"ḟ":{"ha":567,"x_min":10,"x_max":594,"o":"m 158 664 l 42 664 l 42 742 l 158 769 l 158 831 q 206 996 158 921 q 335 1115 254 1071 q 506 1158 415 1158 q 594 1144 553 1158 l 594 967 q 540 994 581 981 q 454 1008 499 1008 q 377 981 400 1008 q 354 889 354 954 l 354 771 l 531 771 l 531 664 l 354 664 l 354 94 l 500 83 l 500 0 l 49 0 l 49 83 l 158 96 l 158 664 m 118 1021 q 39 1051 68 1021 q 10 1125 10 1081 q 43 1213 10 1178 q 133 1247 76 1247 q 218 1217 189 1247 q 247 1143 247 1188 q 214 1054 247 1088 q 119 1021 181 1021 l 118 1021 z "},"g":{"ha":864,"x_min":46,"x_max":853,"o":"m 399 -375 q 129 -317 213 -375 q 46 -158 46 -258 q 84 -51 46 -101 q 176 25 122 0 q 113 144 113 63 q 143 234 113 192 q 222 300 174 276 q 108 389 146 329 q 71 531 71 449 q 117 669 71 610 q 242 760 164 728 q 413 792 321 792 q 654 729 575 792 q 715 774 672 753 q 804 794 758 794 l 853 794 l 853 643 l 710 643 q 731 549 731 599 q 642 347 732 422 q 394 271 551 271 q 285 281 329 271 q 263 242 271 263 q 256 207 256 222 q 288 144 256 161 q 406 128 321 128 l 554 128 q 838 -78 838 128 q 776 -232 838 -164 q 614 -337 715 -300 q 399 -375 513 -375 m 408 357 q 538 533 538 357 q 505 666 538 624 q 406 708 472 708 q 305 666 340 708 q 269 539 269 624 q 408 357 269 357 m 419 -279 q 571 -237 507 -279 q 635 -119 635 -194 q 603 -33 635 -60 q 492 -7 572 -7 l 340 -7 q 276 -3 306 -7 q 239 -122 239 -53 q 281 -239 239 -199 q 419 -279 322 -279 z "},"ğ":{"ha":864,"x_min":46,"x_max":853,"o":"m 399 -375 q 129 -317 213 -375 q 46 -158 46 -258 q 84 -51 46 -101 q 176 25 122 0 q 113 144 113 63 q 143 234 113 192 q 222 300 174 276 q 108 389 146 329 q 71 531 71 449 q 117 669 71 610 q 242 760 164 728 q 413 792 321 792 q 654 729 575 792 q 715 774 672 753 q 804 794 758 794 l 853 794 l 853 643 l 710 643 q 731 549 731 599 q 642 347 732 422 q 394 271 551 271 q 285 281 329 271 q 263 242 271 263 q 256 207 256 222 q 288 144 256 161 q 406 128 321 128 l 554 128 q 838 -78 838 128 q 776 -232 838 -164 q 614 -337 715 -300 q 399 -375 513 -375 m 408 357 q 538 533 538 357 q 505 666 538 624 q 406 708 472 708 q 305 666 340 708 q 269 539 269 624 q 408 357 269 357 m 419 -279 q 571 -237 507 -279 q 635 -119 635 -194 q 603 -33 635 -60 q 492 -7 572 -7 l 340 -7 q 276 -3 306 -7 q 239 -122 239 -53 q 281 -239 239 -199 q 419 -279 322 -279 m 440 901 q 310 931 367 901 q 224 1012 254 961 q 193 1126 193 1063 q 196 1183 193 1169 l 289 1183 q 290 1156 289 1165 q 331 1072 294 1106 q 440 1038 368 1038 q 548 1072 513 1038 q 589 1154 583 1106 q 590 1183 592 1175 l 681 1183 q 683 1128 683 1156 q 653 1013 683 1064 q 567 931 622 961 q 440 901 511 901 z "},"ǧ":{"ha":864,"x_min":46,"x_max":853,"o":"m 399 -375 q 129 -317 213 -375 q 46 -158 46 -258 q 84 -51 46 -101 q 176 25 122 0 q 113 144 113 63 q 143 234 113 192 q 222 300 174 276 q 108 389 146 329 q 71 531 71 449 q 117 669 71 610 q 242 760 164 728 q 413 792 321 792 q 654 729 575 792 q 715 774 672 753 q 804 794 758 794 l 853 794 l 853 643 l 710 643 q 731 549 731 599 q 642 347 732 422 q 394 271 551 271 q 285 281 329 271 q 263 242 271 263 q 256 207 256 222 q 288 144 256 161 q 406 128 321 128 l 554 128 q 838 -78 838 128 q 776 -232 838 -164 q 614 -337 715 -300 q 399 -375 513 -375 m 408 357 q 538 533 538 357 q 505 666 538 624 q 406 708 472 708 q 305 666 340 708 q 269 539 269 624 q 408 357 269 357 m 419 -279 q 571 -237 507 -279 q 635 -119 635 -194 q 603 -33 635 -60 q 492 -7 572 -7 l 340 -7 q 276 -3 306 -7 q 239 -122 239 -53 q 281 -239 239 -199 q 419 -279 322 -279 m 436 1021 l 639 1208 l 704 1156 l 497 883 l 376 883 l 171 1156 l 238 1207 l 436 1021 z "},"ĝ":{"ha":864,"x_min":46,"x_max":853,"o":"m 399 -375 q 129 -317 213 -375 q 46 -158 46 -258 q 84 -51 46 -101 q 176 25 122 0 q 113 144 113 63 q 143 234 113 192 q 222 300 174 276 q 108 389 146 329 q 71 531 71 449 q 117 669 71 610 q 242 760 164 728 q 413 792 321 792 q 654 729 575 792 q 715 774 672 753 q 804 794 758 794 l 853 794 l 853 643 l 710 643 q 731 549 731 599 q 642 347 732 422 q 394 271 551 271 q 285 281 329 271 q 263 242 271 263 q 256 207 256 222 q 288 144 256 161 q 406 128 321 128 l 554 128 q 838 -78 838 128 q 776 -232 838 -164 q 614 -337 715 -300 q 399 -375 513 -375 m 408 357 q 538 533 538 357 q 505 666 538 624 q 406 708 472 708 q 305 666 340 708 q 269 539 269 624 q 408 357 269 357 m 419 -279 q 571 -237 507 -279 q 635 -119 635 -194 q 603 -33 635 -60 q 492 -7 572 -7 l 340 -7 q 276 -3 306 -7 q 239 -122 239 -53 q 281 -239 239 -199 q 419 -279 322 -279 m 497 1199 l 704 928 l 635 875 l 438 1058 l 235 874 l 169 926 l 376 1199 l 497 1199 z "},"ģ":{"ha":864,"x_min":46,"x_max":853,"o":"m 399 -375 q 129 -317 213 -375 q 46 -158 46 -258 q 84 -51 46 -101 q 176 25 122 0 q 113 144 113 63 q 143 234 113 192 q 222 300 174 276 q 108 389 146 329 q 71 531 71 449 q 117 669 71 610 q 242 760 164 728 q 413 792 321 792 q 654 729 575 792 q 715 774 672 753 q 804 794 758 794 l 853 794 l 853 643 l 710 643 q 731 549 731 599 q 642 347 732 422 q 394 271 551 271 q 285 281 329 271 q 263 242 271 263 q 256 207 256 222 q 288 144 256 161 q 406 128 321 128 l 554 128 q 838 -78 838 128 q 776 -232 838 -164 q 614 -337 715 -300 q 399 -375 513 -375 m 408 357 q 538 533 538 357 q 505 666 538 624 q 406 708 472 708 q 305 666 340 708 q 269 539 269 624 q 408 357 269 357 m 419 -279 q 571 -237 507 -279 q 635 -119 635 -194 q 603 -33 635 -60 q 492 -7 572 -7 l 340 -7 q 276 -3 306 -7 q 239 -122 239 -53 q 281 -239 239 -199 q 419 -279 322 -279 m 439 890 q 364 919 392 890 q 336 1003 336 949 q 358 1094 336 1051 q 406 1166 379 1138 q 450 1201 433 1194 l 453 1201 l 515 1179 l 517 1169 q 490 1134 500 1161 q 479 1079 479 1107 q 486 1050 479 1060 q 507 1029 493 1040 q 536 968 536 1008 q 506 909 536 928 q 443 890 476 890 l 439 890 z "},"ġ":{"ha":864,"x_min":46,"x_max":853,"o":"m 399 -375 q 129 -317 213 -375 q 46 -158 46 -258 q 84 -51 46 -101 q 176 25 122 0 q 113 144 113 63 q 143 234 113 192 q 222 300 174 276 q 108 389 146 329 q 71 531 71 449 q 117 669 71 610 q 242 760 164 728 q 413 792 321 792 q 654 729 575 792 q 715 774 672 753 q 804 794 758 794 l 853 794 l 853 643 l 710 643 q 731 549 731 599 q 642 347 732 422 q 394 271 551 271 q 285 281 329 271 q 263 242 271 263 q 256 207 256 222 q 288 144 256 161 q 406 128 321 128 l 554 128 q 838 -78 838 128 q 776 -232 838 -164 q 614 -337 715 -300 q 399 -375 513 -375 m 408 357 q 538 533 538 357 q 505 666 538 624 q 406 708 472 708 q 305 666 340 708 q 269 539 269 624 q 408 357 269 357 m 419 -279 q 571 -237 507 -279 q 635 -119 635 -194 q 603 -33 635 -60 q 492 -7 572 -7 l 340 -7 q 276 -3 306 -7 q 239 -122 239 -53 q 281 -239 239 -199 q 419 -279 322 -279 m 428 899 q 349 928 378 899 q 319 1003 319 958 q 353 1090 319 1056 q 443 1125 386 1125 q 528 1095 499 1125 q 557 1021 557 1065 q 524 932 557 965 q 429 899 490 899 l 428 899 z "},"ḡ":{"ha":864,"x_min":46,"x_max":853,"o":"m 399 -375 q 129 -317 213 -375 q 46 -158 46 -258 q 84 -51 46 -101 q 176 25 122 0 q 113 144 113 63 q 143 234 113 192 q 222 300 174 276 q 108 389 146 329 q 71 531 71 449 q 117 669 71 610 q 242 760 164 728 q 413 792 321 792 q 654 729 575 792 q 715 774 672 753 q 804 794 758 794 l 853 794 l 853 643 l 710 643 q 731 549 731 599 q 642 347 732 422 q 394 271 551 271 q 285 281 329 271 q 263 242 271 263 q 256 207 256 222 q 288 144 256 161 q 406 128 321 128 l 554 128 q 838 -78 838 128 q 776 -232 838 -164 q 614 -337 715 -300 q 399 -375 513 -375 m 408 357 q 538 533 538 357 q 505 666 538 624 q 406 708 472 708 q 305 666 340 708 q 269 539 269 624 q 408 357 269 357 m 419 -279 q 571 -237 507 -279 q 635 -119 635 -194 q 603 -33 635 -60 q 492 -7 572 -7 l 340 -7 q 276 -3 306 -7 q 239 -122 239 -53 q 281 -239 239 -199 q 419 -279 322 -279 m 644 926 l 232 926 l 232 1046 l 644 1046 l 644 926 z "},"h":{"ha":931,"x_min":22,"x_max":899,"o":"m 128 1015 l 22 1033 l 22 1108 l 281 1139 l 285 1139 l 321 1113 l 322 803 l 313 682 q 430 754 356 721 q 586 788 504 788 q 722 755 674 788 q 790 656 771 722 q 810 478 810 589 l 810 96 l 899 83 l 899 0 l 533 0 l 533 83 l 614 96 l 614 478 q 604 590 614 550 q 569 650 594 631 q 493 669 543 669 q 405 649 450 669 q 325 601 360 629 l 325 96 l 410 83 l 410 0 l 50 0 l 50 83 l 128 94 l 128 1015 z "},"ħ":{"ha":939,"x_min":13,"x_max":899,"o":"m 126 1015 l 22 1033 l 22 1108 l 281 1139 l 285 1139 l 322 1113 l 322 940 l 499 940 l 499 854 l 322 854 l 322 803 l 313 682 q 431 755 358 722 q 586 788 504 788 q 722 755 674 788 q 790 656 771 722 q 810 478 810 589 l 810 96 l 899 83 l 899 0 l 535 0 l 535 83 l 614 96 l 614 478 q 604 590 614 550 q 569 650 594 631 q 494 669 544 669 q 405 649 451 669 q 325 601 358 629 l 325 96 l 411 83 l 411 0 l 51 0 l 51 83 l 126 94 l 126 854 l 13 854 l 13 940 l 126 940 l 126 1015 z "},"ĥ":{"ha":931,"x_min":-56,"x_max":899,"o":"m 128 1015 l 22 1033 l 22 1108 l 281 1139 l 285 1139 l 321 1113 l 322 803 l 313 682 q 430 754 356 721 q 586 788 504 788 q 722 755 674 788 q 790 656 771 722 q 810 478 810 589 l 810 96 l 899 83 l 899 0 l 533 0 l 533 83 l 614 96 l 614 478 q 604 590 614 550 q 569 650 594 631 q 493 669 543 669 q 405 649 450 669 q 325 601 360 629 l 325 96 l 410 83 l 410 0 l 50 0 l 50 83 l 128 94 l 128 1015 m 269 1440 l 469 1239 l 401 1185 l 207 1321 l 11 1185 l -56 1238 l 146 1440 l 269 1440 z "},"ḥ":{"ha":931,"x_min":22,"x_max":899,"o":"m 128 1015 l 22 1033 l 22 1108 l 281 1139 l 285 1139 l 321 1113 l 322 803 l 313 682 q 430 754 356 721 q 586 788 504 788 q 722 755 674 788 q 790 656 771 722 q 810 478 810 589 l 810 96 l 899 83 l 899 0 l 533 0 l 533 83 l 614 96 l 614 478 q 604 590 614 550 q 569 650 594 631 q 493 669 543 669 q 405 649 450 669 q 325 601 360 629 l 325 96 l 410 83 l 410 0 l 50 0 l 50 83 l 128 94 l 128 1015 m 456 -301 q 383 -272 411 -301 q 354 -200 354 -243 q 385 -116 354 -150 q 469 -82 417 -82 q 548 -111 519 -82 q 576 -182 576 -140 q 546 -268 576 -235 q 457 -301 515 -301 l 456 -301 z "},"i":{"ha":482,"x_min":56,"x_max":444,"o":"m 228 899 q 149 928 178 899 q 119 1003 119 957 q 153 1090 119 1056 q 242 1125 186 1125 q 326 1095 297 1125 q 356 1021 356 1065 q 322 932 356 965 q 229 899 289 899 l 228 899 m 154 640 l 56 667 l 56 760 l 310 790 l 313 790 l 351 763 l 351 94 l 444 83 l 444 0 l 57 0 l 57 83 l 154 96 l 154 640 z "},"ı":{"ha":482,"x_min":56,"x_max":444,"o":"m 154 640 l 56 667 l 56 760 l 310 790 l 313 790 l 351 763 l 351 94 l 444 83 l 444 0 l 57 0 l 57 83 l 154 96 l 154 640 z "},"í":{"ha":482,"x_min":56,"x_max":468,"o":"m 154 640 l 56 667 l 56 760 l 310 790 l 313 790 l 351 763 l 351 94 l 444 83 l 444 0 l 57 0 l 57 83 l 154 96 l 154 640 m 111 953 l 346 1242 l 468 1135 q 338 999 435 1079 q 182 893 242 918 l 111 953 z "},"ĭ":{"ha":482,"x_min":-3,"x_max":488,"o":"m 154 640 l 56 667 l 56 760 l 310 790 l 313 790 l 351 763 l 351 94 l 444 83 l 444 0 l 57 0 l 57 83 l 154 96 l 154 640 m 244 901 q 115 931 171 901 q 28 1012 58 961 q -3 1126 -3 1063 q 0 1183 -3 1169 l 93 1183 q 94 1156 93 1165 q 135 1072 99 1106 q 244 1038 172 1038 q 352 1072 317 1038 q 393 1154 388 1106 q 394 1183 396 1175 l 485 1183 q 488 1128 488 1156 q 457 1013 488 1064 q 371 931 426 961 q 244 901 315 901 z "},"ǐ":{"ha":482,"x_min":-25,"x_max":508,"o":"m 154 640 l 56 667 l 56 760 l 310 790 l 313 790 l 351 763 l 351 94 l 444 83 l 444 0 l 57 0 l 57 83 l 154 96 l 154 640 m 240 1021 l 443 1208 l 508 1156 l 301 883 l 181 883 l -25 1156 l 42 1207 l 240 1021 z "},"î":{"ha":482,"x_min":-26,"x_max":508,"o":"m 154 640 l 56 667 l 56 760 l 310 790 l 313 790 l 351 763 l 351 94 l 444 83 l 444 0 l 57 0 l 57 83 l 154 96 l 154 640 m 301 1199 l 508 928 l 439 875 l 242 1058 l 39 874 l -26 926 l 181 1199 l 301 1199 z "},"ï":{"ha":482,"x_min":-26,"x_max":511,"o":"m 154 640 l 56 667 l 56 760 l 310 790 l 313 790 l 351 763 l 351 94 l 444 83 l 444 0 l 57 0 l 57 83 l 154 96 l 154 640 m 68 900 q -1 929 24 900 q -26 1001 -26 958 q 1 1088 -26 1054 q 81 1121 28 1121 q 153 1092 129 1121 q 178 1019 178 1063 q 152 933 178 965 q 68 900 126 900 m 400 900 q 332 931 357 900 q 307 1001 307 961 q 334 1088 307 1054 q 414 1121 361 1121 q 487 1092 463 1121 q 511 1019 511 1063 q 485 933 511 965 q 400 900 458 900 z "},"ị":{"ha":482,"x_min":56,"x_max":444,"o":"m 154 640 l 56 667 l 56 760 l 310 790 l 313 790 l 351 763 l 351 94 l 444 83 l 444 0 l 57 0 l 57 83 l 154 96 l 154 640 m 232 899 q 153 928 182 899 q 124 1003 124 958 q 157 1090 124 1056 q 247 1125 190 1125 q 332 1095 303 1125 q 361 1021 361 1065 q 328 932 361 965 q 233 899 294 899 l 232 899 m 235 -301 q 162 -272 190 -301 q 133 -200 133 -243 q 165 -116 133 -150 q 249 -82 196 -82 q 327 -111 299 -82 q 356 -182 356 -140 q 325 -268 356 -235 q 236 -301 294 -301 l 235 -301 z "},"ì":{"ha":482,"x_min":-3,"x_max":444,"o":"m 154 640 l 56 667 l 56 760 l 310 790 l 313 790 l 351 763 l 351 94 l 444 83 l 444 0 l 57 0 l 57 83 l 154 96 l 154 640 m 281 892 q 187 950 246 906 q 73 1046 128 994 q -3 1133 18 1097 l 117 1240 l 351 951 l 282 892 l 281 892 z "},"ỉ":{"ha":482,"x_min":56,"x_max":444,"o":"m 154 640 l 56 667 l 56 760 l 310 790 l 313 790 l 351 763 l 351 94 l 444 83 l 444 0 l 57 0 l 57 83 l 154 96 l 154 640 m 211 856 q 192 886 201 867 q 183 922 183 906 q 190 944 183 935 q 213 965 197 953 q 240 992 231 979 q 250 1024 250 1004 q 232 1075 250 1056 q 175 1094 214 1094 q 140 1090 158 1094 q 110 1078 121 1086 l 107 1186 q 204 1207 151 1207 q 337 1166 289 1207 q 385 1051 385 1125 q 369 994 385 1017 q 332 956 353 972 q 301 931 311 939 q 290 910 294 924 q 285 882 285 897 q 289 856 285 871 l 211 856 z "},"ĳ":{"ha":940,"x_min":56,"x_max":840,"o":"m 228 899 q 149 928 178 899 q 119 1003 119 957 q 153 1090 119 1056 q 242 1125 186 1125 q 326 1095 297 1125 q 356 1021 356 1065 q 322 932 356 965 q 229 899 289 899 l 228 899 m 154 640 l 56 667 l 56 760 l 310 790 l 313 790 l 351 763 l 351 94 l 444 83 l 444 0 l 57 0 l 57 83 l 154 96 l 154 640 m 713 899 q 634 928 663 899 q 606 1003 606 957 q 639 1090 606 1056 q 728 1125 672 1125 q 812 1095 783 1125 q 840 1021 840 1065 q 808 932 840 965 q 714 899 775 899 l 713 899 m 535 760 l 786 790 l 789 790 l 826 763 l 826 13 q 786 -174 826 -96 q 684 -294 746 -253 q 558 -337 622 -335 q 474 -332 489 -337 l 464 -253 q 536 -237 500 -253 q 612 -143 589 -215 q 635 51 635 -71 l 633 638 l 535 664 l 535 760 z "},"ī":{"ha":482,"x_min":36,"x_max":449,"o":"m 154 640 l 56 667 l 56 760 l 310 790 l 313 790 l 351 763 l 351 94 l 444 83 l 444 0 l 57 0 l 57 83 l 154 96 l 154 640 m 449 926 l 36 926 l 36 1046 l 449 1046 l 449 926 z "},"į":{"ha":482,"x_min":56,"x_max":444,"o":"m 232 899 q 153 928 182 899 q 124 1003 124 957 q 157 1090 124 1056 q 247 1125 190 1125 q 332 1095 303 1125 q 361 1021 361 1065 q 328 932 361 965 q 233 899 294 899 l 232 899 m 249 -336 q 131 -301 183 -336 q 79 -201 79 -265 q 122 -90 79 -146 q 240 0 165 -35 l 57 0 l 57 83 l 154 96 l 154 640 l 56 667 l 56 760 l 310 790 l 313 790 l 351 763 l 351 94 l 444 83 l 444 0 l 361 0 q 272 -69 306 -26 q 239 -150 239 -112 q 262 -207 239 -186 q 325 -228 285 -228 q 371 -221 350 -228 q 408 -206 392 -214 q 433 -193 425 -197 l 433 -279 q 353 -319 401 -303 q 249 -336 306 -336 z "},"ĩ":{"ha":482,"x_min":-40,"x_max":518,"o":"m 154 640 l 56 667 l 56 760 l 310 790 l 313 790 l 351 763 l 351 94 l 444 83 l 444 0 l 57 0 l 57 83 l 154 96 l 154 640 m -40 975 q 24 1089 -26 1044 q 140 1133 74 1133 q 209 1117 181 1133 q 274 1072 238 1101 q 315 1040 297 1050 q 353 1029 333 1029 q 403 1048 386 1029 q 426 1084 419 1067 q 436 1106 433 1101 l 518 1060 q 461 945 506 990 q 349 900 417 900 q 282 916 310 900 q 217 963 254 932 q 172 996 190 985 q 133 1007 154 1007 q 85 992 103 1007 q 57 957 68 976 q 39 929 46 938 l -40 975 z "},"j":{"ha":458,"x_min":-18,"x_max":358,"o":"m 231 899 q 152 928 181 899 q 124 1003 124 957 q 157 1090 124 1056 q 246 1125 190 1125 q 330 1095 301 1125 q 358 1021 358 1065 q 326 932 358 965 q 232 899 293 899 l 231 899 m 53 760 l 304 790 l 307 790 l 344 763 l 344 13 q 304 -174 344 -96 q 202 -294 264 -253 q 76 -337 140 -335 q -8 -332 7 -337 l -18 -253 q 54 -237 18 -253 q 130 -143 107 -215 q 153 51 153 -71 l 151 638 l 53 664 l 53 760 z "},"ȷ":{"ha":458,"x_min":-18,"x_max":344,"o":"m 53 760 l 304 790 l 307 790 l 344 763 l 344 13 q 304 -174 344 -96 q 202 -294 264 -253 q 76 -337 140 -335 q -8 -332 7 -337 l -18 -253 q 54 -237 18 -253 q 130 -143 107 -215 q 153 51 153 -71 l 151 638 l 53 664 l 53 760 z "},"ĵ":{"ha":458,"x_min":-29,"x_max":506,"o":"m 53 760 l 304 790 l 307 790 l 344 763 l 344 13 q 304 -174 344 -96 q 202 -294 264 -253 q 76 -337 140 -335 q -8 -332 7 -337 l -18 -253 q 54 -237 18 -253 q 130 -143 107 -215 q 153 51 153 -71 l 151 638 l 53 664 l 53 760 m 299 1199 l 506 928 l 436 875 l 239 1058 l 36 874 l -29 926 l 178 1199 l 299 1199 z "},"k":{"ha":874,"x_min":26,"x_max":897,"o":"m 126 1015 l 26 1033 l 26 1108 l 282 1139 l 285 1139 l 322 1113 l 322 453 l 318 379 l 601 676 l 499 692 l 499 771 l 861 771 l 861 692 l 749 674 l 578 510 l 821 94 l 897 83 l 897 0 l 531 0 l 531 83 l 601 96 l 443 389 l 318 263 l 321 192 l 321 96 l 408 83 l 408 0 l 46 0 l 46 83 l 126 96 l 126 1015 z "},"ķ":{"ha":874,"x_min":26,"x_max":897,"o":"m 126 1015 l 26 1033 l 26 1108 l 282 1139 l 285 1139 l 322 1113 l 322 453 l 318 379 l 601 676 l 499 692 l 499 771 l 861 771 l 861 692 l 749 674 l 578 510 l 821 94 l 897 83 l 897 0 l 531 0 l 531 83 l 601 96 l 443 389 l 318 263 l 321 192 l 321 96 l 408 83 l 408 0 l 46 0 l 46 83 l 126 96 l 126 1015 m 578 -178 q 557 -270 578 -226 q 508 -343 536 -314 q 464 -379 481 -372 l 463 -379 l 400 -357 l 399 -347 q 426 -312 415 -339 q 436 -257 436 -285 q 429 -228 436 -237 q 408 -207 422 -218 q 379 -146 379 -186 q 409 -87 379 -106 q 472 -68 439 -68 l 476 -68 q 550 -97 522 -68 q 578 -178 578 -125 z "},"ĸ":{"ha":938,"x_min":58,"x_max":932,"o":"m 154 640 l 63 665 l 63 761 l 301 790 l 304 790 l 350 763 l 350 485 l 346 364 l 638 675 l 524 690 l 524 771 l 896 771 l 896 690 l 789 676 l 606 501 l 851 94 l 932 82 l 932 0 l 571 0 l 571 82 l 633 93 l 472 376 l 347 253 l 351 189 l 351 94 l 442 82 l 442 0 l 58 0 l 58 82 l 153 94 l 154 640 z "},"l":{"ha":472,"x_min":40,"x_max":439,"o":"m 143 1015 l 40 1033 l 40 1108 l 297 1139 l 300 1139 l 338 1113 l 338 94 l 439 83 l 439 0 l 46 0 l 46 83 l 143 96 l 143 1015 z "},"ĺ":{"ha":474,"x_min":40,"x_max":450,"o":"m 111 1151 l 326 1364 l 450 1272 q 319 1168 404 1221 q 182 1097 233 1115 l 111 1151 m 46 82 l 143 94 l 143 915 l 40 931 l 40 1006 l 299 1036 l 339 1008 l 339 94 l 440 82 l 440 0 l 46 0 l 46 82 z "},"ľ":{"ha":472,"x_min":40,"x_max":593,"o":"m 143 1015 l 40 1033 l 40 1108 l 297 1139 l 300 1139 l 338 1113 l 338 94 l 439 83 l 439 0 l 46 0 l 46 83 l 143 96 l 143 1015 m 439 833 l 435 847 q 443 993 443 897 q 425 1117 443 1076 l 432 1144 l 581 1144 q 593 1039 593 1114 q 579 929 593 986 q 546 832 565 872 l 439 833 z "},"ļ":{"ha":472,"x_min":40,"x_max":439,"o":"m 143 1015 l 40 1033 l 40 1108 l 297 1139 l 300 1139 l 338 1113 l 338 94 l 439 83 l 439 0 l 46 0 l 46 83 l 143 96 l 143 1015 m 347 -181 q 326 -272 347 -229 q 278 -344 306 -315 q 233 -379 250 -372 l 232 -379 l 169 -357 l 167 -347 q 194 -312 183 -339 q 206 -257 206 -285 q 178 -207 206 -225 q 147 -146 147 -186 q 177 -87 147 -106 q 240 -68 207 -68 l 246 -68 q 319 -97 292 -68 q 347 -181 347 -126 z "},"ŀ":{"ha":742,"x_min":40,"x_max":714,"o":"m 143 1015 l 40 1033 l 40 1108 l 297 1139 l 300 1139 l 338 1113 l 338 94 l 439 83 l 439 0 l 46 0 l 46 83 l 143 96 l 143 1015 m 586 424 q 510 453 542 424 q 479 529 479 483 q 515 613 479 581 q 604 646 551 646 q 684 615 654 646 q 714 540 714 583 q 678 455 714 486 q 586 424 642 424 z "},"ḷ":{"ha":472,"x_min":40,"x_max":439,"o":"m 143 1015 l 40 1033 l 40 1108 l 297 1139 l 300 1139 l 338 1113 l 338 94 l 439 83 l 439 0 l 46 0 l 46 83 l 143 96 l 143 1015 m 235 -301 q 162 -272 190 -301 q 133 -200 133 -243 q 165 -116 133 -150 q 249 -82 196 -82 q 327 -111 299 -82 q 356 -182 356 -140 q 325 -268 356 -235 q 236 -301 294 -301 l 235 -301 z "},"ǉ":{"ha":931,"x_min":40,"x_max":831,"o":"m 143 1015 l 40 1033 l 40 1108 l 297 1139 l 300 1139 l 338 1113 l 338 94 l 439 83 l 439 0 l 46 0 l 46 83 l 143 96 l 143 1015 m 703 899 q 624 928 653 899 q 596 1003 596 957 q 629 1090 596 1056 q 718 1125 663 1125 q 802 1095 774 1125 q 831 1021 831 1065 q 798 932 831 965 q 704 899 765 899 l 703 899 m 525 760 l 776 790 l 779 790 l 817 763 l 817 13 q 776 -174 817 -96 q 674 -294 736 -253 q 549 -337 613 -335 q 464 -332 479 -337 l 454 -253 q 526 -237 490 -253 q 602 -143 579 -215 q 625 51 625 -71 l 624 638 l 525 664 l 525 760 z "},"ł":{"ha":525,"x_min":29,"x_max":507,"o":"m 165 1015 l 61 1033 l 61 1108 l 319 1139 l 322 1139 l 360 1113 l 360 706 l 507 775 l 507 671 l 360 603 l 360 94 l 460 83 l 460 0 l 67 0 l 67 83 l 165 96 l 165 525 l 29 464 l 29 561 l 165 625 l 165 1015 z "},"m":{"ha":1407,"x_min":51,"x_max":1375,"o":"m 63 83 l 140 96 l 140 640 l 51 665 l 51 761 l 282 790 l 299 779 l 319 733 l 319 675 q 451 753 365 719 q 599 788 536 788 q 720 763 674 788 q 790 685 767 738 q 911 757 836 726 q 1058 788 986 788 q 1233 715 1182 788 q 1285 479 1285 643 l 1285 96 l 1375 83 l 1375 0 l 1015 0 l 1015 83 l 1088 96 l 1088 474 q 1062 626 1088 582 q 964 669 1036 669 q 884 652 925 669 q 811 610 843 635 q 821 478 821 557 l 821 96 l 907 83 l 907 0 l 544 0 l 544 83 l 621 96 l 621 478 q 612 591 621 550 q 578 651 603 632 q 506 669 553 669 q 417 649 461 669 q 339 601 374 629 l 339 96 l 421 83 l 421 0 l 63 0 l 63 83 z "},"ḿ":{"ha":1407,"x_min":51,"x_max":1375,"o":"m 63 83 l 140 96 l 140 640 l 51 665 l 51 761 l 282 790 l 299 779 l 319 733 l 319 675 q 451 753 365 719 q 599 788 536 788 q 720 763 674 788 q 790 685 767 738 q 911 757 836 726 q 1058 788 986 788 q 1233 715 1182 788 q 1285 479 1285 643 l 1285 96 l 1375 83 l 1375 0 l 1015 0 l 1015 83 l 1088 96 l 1088 474 q 1062 626 1088 582 q 964 669 1036 669 q 884 652 925 669 q 811 610 843 635 q 821 478 821 557 l 821 96 l 907 83 l 907 0 l 544 0 l 544 83 l 621 96 l 621 478 q 612 591 621 550 q 578 651 603 632 q 506 669 553 669 q 417 649 461 669 q 339 601 374 629 l 339 96 l 421 83 l 421 0 l 63 0 l 63 83 m 572 953 l 807 1242 l 929 1135 q 799 999 896 1079 q 643 893 703 918 l 572 953 z "},"ṁ":{"ha":1407,"x_min":51,"x_max":1375,"o":"m 63 83 l 140 96 l 140 640 l 51 665 l 51 761 l 282 790 l 299 779 l 319 733 l 319 675 q 451 753 365 719 q 599 788 536 788 q 720 763 674 788 q 790 685 767 738 q 911 757 836 726 q 1058 788 986 788 q 1233 715 1182 788 q 1285 479 1285 643 l 1285 96 l 1375 83 l 1375 0 l 1015 0 l 1015 83 l 1088 96 l 1088 474 q 1062 626 1088 582 q 964 669 1036 669 q 884 652 925 669 q 811 610 843 635 q 821 478 821 557 l 821 96 l 907 83 l 907 0 l 544 0 l 544 83 l 621 96 l 621 478 q 612 591 621 550 q 578 651 603 632 q 506 669 553 669 q 417 649 461 669 q 339 601 374 629 l 339 96 l 421 83 l 421 0 l 63 0 l 63 83 m 693 899 q 614 928 643 899 q 585 1003 585 958 q 618 1090 585 1056 q 708 1125 651 1125 q 793 1095 764 1125 q 822 1021 822 1065 q 789 932 822 965 q 694 899 756 899 l 693 899 z "},"n":{"ha":946,"x_min":51,"x_max":910,"o":"m 140 640 l 51 665 l 51 761 l 282 790 l 286 790 l 321 763 l 321 708 l 319 675 q 446 754 368 721 q 603 788 524 788 q 735 756 688 788 q 804 658 783 725 q 825 478 825 592 l 825 94 l 910 83 l 910 0 l 551 0 l 551 83 l 626 94 l 626 478 q 617 591 626 550 q 581 651 607 632 q 508 669 556 669 q 339 601 429 669 l 339 96 l 422 83 l 422 0 l 60 0 l 60 83 l 140 96 l 140 640 z "},"ń":{"ha":946,"x_min":51,"x_max":910,"o":"m 140 640 l 51 665 l 51 761 l 282 790 l 286 790 l 321 763 l 321 708 l 319 675 q 446 754 368 721 q 603 788 524 788 q 735 756 688 788 q 804 658 783 725 q 825 478 825 592 l 825 94 l 910 83 l 910 0 l 551 0 l 551 83 l 626 94 l 626 478 q 617 591 626 550 q 581 651 607 632 q 508 669 556 669 q 339 601 429 669 l 339 96 l 422 83 l 422 0 l 60 0 l 60 83 l 140 96 l 140 640 m 331 953 l 565 1242 l 688 1135 q 558 999 654 1079 q 401 893 461 918 l 331 953 z "},"ň":{"ha":946,"x_min":51,"x_max":910,"o":"m 140 640 l 51 665 l 51 761 l 282 790 l 286 790 l 321 763 l 321 708 l 319 675 q 446 754 368 721 q 603 788 524 788 q 735 756 688 788 q 804 658 783 725 q 825 478 825 592 l 825 94 l 910 83 l 910 0 l 551 0 l 551 83 l 626 94 l 626 478 q 617 591 626 550 q 581 651 607 632 q 508 669 556 669 q 339 601 429 669 l 339 96 l 422 83 l 422 0 l 60 0 l 60 83 l 140 96 l 140 640 m 460 1021 l 663 1208 l 728 1156 l 521 883 l 400 883 l 194 1156 l 261 1207 l 460 1021 z "},"ņ":{"ha":946,"x_min":51,"x_max":910,"o":"m 140 640 l 51 665 l 51 761 l 282 790 l 286 790 l 321 763 l 321 708 l 319 675 q 446 754 368 721 q 603 788 524 788 q 735 756 688 788 q 804 658 783 725 q 825 478 825 592 l 825 94 l 910 83 l 910 0 l 551 0 l 551 83 l 626 94 l 626 478 q 617 591 626 550 q 581 651 607 632 q 508 669 556 669 q 339 601 429 669 l 339 96 l 422 83 l 422 0 l 60 0 l 60 83 l 140 96 l 140 640 m 585 -178 q 564 -270 585 -226 q 515 -343 543 -314 q 471 -379 488 -372 l 469 -379 l 407 -357 l 406 -347 q 433 -312 422 -339 q 443 -257 443 -285 q 436 -228 443 -237 q 415 -207 429 -218 q 386 -146 386 -186 q 416 -87 386 -106 q 479 -68 446 -68 l 483 -68 q 557 -97 529 -68 q 585 -178 585 -125 z "},"ṅ":{"ha":946,"x_min":51,"x_max":910,"o":"m 140 640 l 51 665 l 51 761 l 282 790 l 286 790 l 321 763 l 321 708 l 319 675 q 446 754 368 721 q 603 788 524 788 q 735 756 688 788 q 804 658 783 725 q 825 478 825 592 l 825 94 l 910 83 l 910 0 l 551 0 l 551 83 l 626 94 l 626 478 q 617 591 626 550 q 581 651 607 632 q 508 669 556 669 q 339 601 429 669 l 339 96 l 422 83 l 422 0 l 60 0 l 60 83 l 140 96 l 140 640 m 451 899 q 372 928 401 899 q 343 1003 343 958 q 376 1090 343 1056 q 467 1125 410 1125 q 551 1095 522 1125 q 581 1021 581 1065 q 547 932 581 965 q 453 899 514 899 l 451 899 z "},"ṇ":{"ha":946,"x_min":51,"x_max":910,"o":"m 140 640 l 51 665 l 51 761 l 282 790 l 286 790 l 321 763 l 321 708 l 319 675 q 446 754 368 721 q 603 788 524 788 q 735 756 688 788 q 804 658 783 725 q 825 478 825 592 l 825 94 l 910 83 l 910 0 l 551 0 l 551 83 l 626 94 l 626 478 q 617 591 626 550 q 581 651 607 632 q 508 669 556 669 q 339 601 429 669 l 339 96 l 422 83 l 422 0 l 60 0 l 60 83 l 140 96 l 140 640 m 469 -301 q 397 -272 425 -301 q 368 -200 368 -243 q 399 -116 368 -150 q 483 -82 431 -82 q 562 -111 533 -82 q 590 -182 590 -140 q 560 -268 590 -235 q 471 -301 529 -301 l 469 -301 z "},"ŋ":{"ha":950,"x_min":58,"x_max":833,"o":"m 150 642 l 58 667 l 58 763 l 292 792 l 296 792 l 329 763 l 329 714 l 328 676 q 455 756 378 722 q 611 789 532 789 q 744 758 696 789 q 813 660 792 726 q 833 482 833 594 l 833 15 q 761 -254 833 -158 q 549 -356 689 -350 q 506 -356 533 -357 q 474 -350 479 -354 l 468 -267 q 503 -265 479 -269 q 542 -253 528 -260 q 617 -162 599 -232 q 635 31 635 -93 l 635 482 q 610 628 635 586 q 515 669 586 669 q 426 649 471 669 q 349 601 382 628 l 349 96 l 431 83 l 431 0 l 68 0 l 68 83 l 150 96 l 150 642 z "},"ǌ":{"ha":1404,"x_min":51,"x_max":1304,"o":"m 140 640 l 51 665 l 51 761 l 282 790 l 286 790 l 321 763 l 321 708 l 319 675 q 446 754 368 721 q 603 788 524 788 q 735 756 688 788 q 804 658 783 725 q 825 478 825 592 l 825 94 l 910 83 l 910 0 l 551 0 l 551 83 l 626 94 l 626 478 q 617 591 626 550 q 581 651 607 632 q 508 669 556 669 q 339 601 429 669 l 339 96 l 422 83 l 422 0 l 60 0 l 60 83 l 140 96 l 140 640 m 1176 899 q 1098 928 1126 899 q 1069 1003 1069 957 q 1103 1090 1069 1056 q 1192 1125 1136 1125 q 1276 1095 1247 1125 q 1304 1021 1304 1065 q 1272 932 1304 965 q 1178 899 1239 899 l 1176 899 m 999 760 l 1250 790 l 1253 790 l 1290 763 l 1290 13 q 1250 -174 1290 -96 q 1148 -294 1210 -253 q 1022 -337 1086 -335 q 938 -332 953 -337 l 928 -253 q 1000 -237 964 -253 q 1076 -143 1053 -215 q 1099 51 1099 -71 l 1097 638 l 999 664 l 999 760 z "},"ñ":{"ha":946,"x_min":51,"x_max":910,"o":"m 140 640 l 51 665 l 51 761 l 282 790 l 286 790 l 321 763 l 321 708 l 319 675 q 446 754 368 721 q 603 788 524 788 q 735 756 688 788 q 804 658 783 725 q 825 478 825 592 l 825 94 l 910 83 l 910 0 l 551 0 l 551 83 l 626 94 l 626 478 q 617 591 626 550 q 581 651 607 632 q 508 669 556 669 q 339 601 429 669 l 339 96 l 422 83 l 422 0 l 60 0 l 60 83 l 140 96 l 140 640 m 179 975 q 243 1089 193 1044 q 360 1133 293 1133 q 428 1117 400 1133 q 493 1072 457 1101 q 535 1040 517 1050 q 572 1029 553 1029 q 622 1048 606 1029 q 646 1084 639 1067 q 656 1106 653 1101 l 738 1060 q 681 945 725 990 q 568 900 636 900 q 501 916 529 900 q 436 963 474 932 q 392 996 410 985 q 353 1007 374 1007 q 305 992 322 1007 q 276 957 288 976 q 258 929 265 938 l 179 975 z "},"o":{"ha":874,"x_min":63,"x_max":810,"o":"m 63 385 q 115 607 63 515 q 254 745 167 699 q 444 792 342 792 q 715 684 619 792 q 810 392 810 576 q 758 167 810 260 q 619 30 706 75 q 428 -15 532 -15 q 158 92 254 -15 q 63 385 63 200 m 439 75 q 596 378 596 75 q 558 619 596 536 q 436 701 521 701 q 275 399 275 701 q 315 158 275 240 q 439 75 354 75 z "},"ó":{"ha":874,"x_min":63,"x_max":810,"o":"m 63 385 q 115 607 63 515 q 254 745 167 699 q 444 792 342 792 q 715 684 619 792 q 810 392 810 576 q 758 167 810 260 q 619 30 706 75 q 428 -15 532 -15 q 158 92 254 -15 q 63 385 63 200 m 439 75 q 596 378 596 75 q 558 619 596 536 q 436 701 521 701 q 275 399 275 701 q 315 158 275 240 q 439 75 354 75 m 310 953 l 544 1242 l 667 1135 q 537 999 633 1079 q 381 893 440 918 l 310 953 z "},"ŏ":{"ha":874,"x_min":63,"x_max":810,"o":"m 63 385 q 115 607 63 515 q 254 745 167 699 q 444 792 342 792 q 715 684 619 792 q 810 392 810 576 q 758 167 810 260 q 619 30 706 75 q 428 -15 532 -15 q 158 92 254 -15 q 63 385 63 200 m 439 75 q 596 378 596 75 q 558 619 596 536 q 436 701 521 701 q 275 399 275 701 q 315 158 275 240 q 439 75 354 75 m 443 901 q 313 931 369 901 q 226 1012 257 961 q 196 1126 196 1063 q 199 1183 196 1169 l 292 1183 q 293 1156 292 1165 q 334 1072 297 1106 q 443 1038 371 1038 q 551 1072 515 1038 q 592 1154 586 1106 q 593 1183 594 1175 l 683 1183 q 686 1128 686 1156 q 656 1013 686 1064 q 569 931 625 961 q 443 901 514 901 z "},"ǒ":{"ha":874,"x_min":63,"x_max":810,"o":"m 63 385 q 115 607 63 515 q 254 745 167 699 q 444 792 342 792 q 715 684 619 792 q 810 392 810 576 q 758 167 810 260 q 619 30 706 75 q 428 -15 532 -15 q 158 92 254 -15 q 63 385 63 200 m 439 75 q 596 378 596 75 q 558 619 596 536 q 436 701 521 701 q 275 399 275 701 q 315 158 275 240 q 439 75 354 75 m 439 1021 l 642 1208 l 707 1156 l 500 883 l 379 883 l 174 1156 l 240 1207 l 439 1021 z "},"ô":{"ha":874,"x_min":63,"x_max":810,"o":"m 63 385 q 115 607 63 515 q 254 745 167 699 q 444 792 342 792 q 715 684 619 792 q 810 392 810 576 q 758 167 810 260 q 619 30 706 75 q 428 -15 532 -15 q 158 92 254 -15 q 63 385 63 200 m 439 75 q 596 378 596 75 q 558 619 596 536 q 436 701 521 701 q 275 399 275 701 q 315 158 275 240 q 439 75 354 75 m 500 1199 l 707 928 l 638 875 l 440 1058 l 238 874 l 172 926 l 379 1199 l 500 1199 z "},"ố":{"ha":874,"x_min":63,"x_max":885,"o":"m 63 385 q 115 607 63 515 q 254 745 167 699 q 444 792 342 792 q 715 684 619 792 q 810 392 810 576 q 758 167 810 260 q 619 30 706 75 q 428 -15 532 -15 q 158 92 254 -15 q 63 385 63 200 m 439 75 q 596 378 596 75 q 558 619 596 536 q 436 701 521 701 q 275 399 275 701 q 315 158 275 240 q 439 75 354 75 m 603 1143 l 785 1363 l 885 1276 q 781 1171 856 1235 q 661 1088 707 1107 l 603 1143 m 496 1140 l 685 926 l 618 882 l 440 1022 l 257 882 l 197 924 l 388 1140 l 496 1140 z "},"ộ":{"ha":874,"x_min":63,"x_max":810,"o":"m 63 385 q 115 607 63 515 q 254 745 167 699 q 444 792 342 792 q 715 684 619 792 q 810 392 810 576 q 758 167 810 260 q 619 30 706 75 q 428 -15 532 -15 q 158 92 254 -15 q 63 385 63 200 m 439 75 q 596 378 596 75 q 558 619 596 536 q 436 701 521 701 q 275 399 275 701 q 315 158 275 240 q 439 75 354 75 m 428 -301 q 355 -272 383 -301 q 326 -200 326 -243 q 358 -116 326 -150 q 442 -82 389 -82 q 520 -111 492 -82 q 549 -182 549 -140 q 518 -268 549 -235 q 429 -301 488 -301 l 428 -301 m 500 1199 l 707 928 l 638 875 l 440 1058 l 238 874 l 172 926 l 379 1199 l 500 1199 z "},"ồ":{"ha":874,"x_min":63,"x_max":810,"o":"m 63 385 q 115 607 63 515 q 254 745 167 699 q 444 792 342 792 q 715 684 619 792 q 810 392 810 576 q 758 167 810 260 q 619 30 706 75 q 428 -15 532 -15 q 158 92 254 -15 q 63 385 63 200 m 439 75 q 596 378 596 75 q 558 619 596 536 q 436 701 521 701 q 275 399 275 701 q 315 158 275 240 q 439 75 354 75 m 728 1110 q 623 1178 685 1126 q 521 1279 561 1231 l 622 1365 l 786 1164 l 728 1110 m 496 1140 l 685 926 l 618 882 l 440 1022 l 257 882 l 197 924 l 388 1140 l 496 1140 z "},"ổ":{"ha":874,"x_min":63,"x_max":810,"o":"m 63 385 q 115 607 63 515 q 254 745 167 699 q 444 792 342 792 q 715 684 619 792 q 810 392 810 576 q 758 167 810 260 q 619 30 706 75 q 428 -15 532 -15 q 158 92 254 -15 q 63 385 63 200 m 439 75 q 596 378 596 75 q 558 619 596 536 q 436 701 521 701 q 275 399 275 701 q 315 158 275 240 q 439 75 354 75 m 642 1050 q 622 1085 635 1058 q 610 1124 610 1111 q 620 1154 610 1142 q 651 1182 631 1167 q 679 1206 669 1196 q 689 1231 689 1217 q 672 1264 689 1253 q 617 1275 656 1275 q 581 1271 600 1275 q 557 1264 561 1267 l 558 1358 q 587 1363 560 1361 q 638 1365 614 1365 q 760 1334 715 1365 q 806 1243 806 1303 q 785 1182 806 1208 q 728 1129 765 1156 q 710 1092 710 1117 q 715 1058 710 1075 l 642 1050 m 496 1140 l 685 926 l 618 882 l 440 1022 l 257 882 l 197 924 l 388 1140 l 496 1140 z "},"ỗ":{"ha":874,"x_min":63,"x_max":810,"o":"m 63 385 q 115 607 63 515 q 254 745 167 699 q 444 792 342 792 q 715 684 619 792 q 810 392 810 576 q 758 167 810 260 q 619 30 706 75 q 428 -15 532 -15 q 158 92 254 -15 q 63 385 63 200 m 439 75 q 596 378 596 75 q 558 619 596 536 q 436 701 521 701 q 275 399 275 701 q 315 158 275 240 q 439 75 354 75 m 236 1236 q 288 1326 251 1290 q 378 1361 325 1361 q 428 1351 407 1361 q 472 1321 449 1340 q 508 1297 496 1304 q 538 1290 519 1290 q 575 1302 561 1290 q 600 1336 589 1314 l 656 1310 q 605 1220 640 1254 q 517 1186 569 1186 q 469 1196 489 1186 q 422 1225 450 1206 q 388 1249 403 1240 q 354 1257 372 1257 q 319 1246 332 1257 q 290 1211 307 1235 l 236 1236 m 496 1140 l 685 926 l 618 882 l 440 1022 l 257 882 l 197 924 l 388 1140 l 496 1140 z "},"ö":{"ha":874,"x_min":63,"x_max":810,"o":"m 63 385 q 115 607 63 515 q 254 745 167 699 q 444 792 342 792 q 715 684 619 792 q 810 392 810 576 q 758 167 810 260 q 619 30 706 75 q 428 -15 532 -15 q 158 92 254 -15 q 63 385 63 200 m 439 75 q 596 378 596 75 q 558 619 596 536 q 436 701 521 701 q 275 399 275 701 q 315 158 275 240 q 439 75 354 75 m 267 900 q 197 929 222 900 q 172 1001 172 958 q 199 1088 172 1054 q 279 1121 226 1121 q 352 1092 328 1121 q 376 1019 376 1063 q 351 933 376 965 q 267 900 325 900 m 599 900 q 531 931 556 900 q 506 1001 506 961 q 533 1088 506 1054 q 613 1121 560 1121 q 685 1092 661 1121 q 710 1019 710 1063 q 683 933 710 965 q 599 900 657 900 z "},"ọ":{"ha":874,"x_min":63,"x_max":810,"o":"m 63 385 q 115 607 63 515 q 254 745 167 699 q 444 792 342 792 q 715 684 619 792 q 810 392 810 576 q 758 167 810 260 q 619 30 706 75 q 428 -15 532 -15 q 158 92 254 -15 q 63 385 63 200 m 439 75 q 596 378 596 75 q 558 619 596 536 q 436 701 521 701 q 275 399 275 701 q 315 158 275 240 q 439 75 354 75 m 428 -301 q 355 -272 383 -301 q 326 -200 326 -243 q 358 -116 326 -150 q 442 -82 389 -82 q 520 -111 492 -82 q 549 -182 549 -140 q 518 -268 549 -235 q 429 -301 488 -301 l 428 -301 z "},"ò":{"ha":874,"x_min":63,"x_max":810,"o":"m 63 385 q 115 607 63 515 q 254 745 167 699 q 444 792 342 792 q 715 684 619 792 q 810 392 810 576 q 758 167 810 260 q 619 30 706 75 q 428 -15 532 -15 q 158 92 254 -15 q 63 385 63 200 m 439 75 q 596 378 596 75 q 558 619 596 536 q 436 701 521 701 q 275 399 275 701 q 315 158 275 240 q 439 75 354 75 m 479 892 q 385 950 444 906 q 272 1046 326 994 q 196 1133 217 1097 l 315 1240 l 550 951 l 481 892 l 479 892 z "},"ỏ":{"ha":874,"x_min":63,"x_max":810,"o":"m 63 385 q 115 607 63 515 q 254 745 167 699 q 444 792 342 792 q 715 684 619 792 q 810 392 810 576 q 758 167 810 260 q 619 30 706 75 q 428 -15 532 -15 q 158 92 254 -15 q 63 385 63 200 m 439 75 q 596 378 596 75 q 558 619 596 536 q 436 701 521 701 q 275 399 275 701 q 315 158 275 240 q 439 75 354 75 m 410 856 q 391 886 400 867 q 382 922 382 906 q 389 944 382 935 q 411 965 396 953 q 439 992 429 979 q 449 1024 449 1004 q 431 1075 449 1056 q 374 1094 413 1094 q 338 1090 357 1094 q 308 1078 319 1086 l 306 1186 q 403 1207 350 1207 q 535 1166 488 1207 q 583 1051 583 1125 q 567 994 583 1017 q 531 956 551 972 q 500 931 510 939 q 488 910 493 924 q 483 882 483 897 q 488 856 483 871 l 410 856 z "},"ơ":{"ha":844,"x_min":49,"x_max":881,"o":"m 49 385 q 101 607 49 515 q 240 745 153 699 q 431 792 328 792 q 594 760 522 792 q 676 797 644 767 q 722 865 707 826 q 736 933 736 903 q 732 967 736 942 l 876 967 q 881 936 881 953 q 831 770 881 833 q 700 686 781 707 q 772 560 747 635 q 796 392 796 485 q 744 167 796 258 q 604 30 692 75 q 413 -15 517 -15 q 144 92 240 -15 q 49 385 49 200 m 261 399 q 301 158 261 240 q 425 75 340 75 q 582 378 582 75 q 544 619 582 536 q 422 701 507 701 q 261 399 261 701 z "},"ớ":{"ha":844,"x_min":49,"x_max":881,"o":"m 49 385 q 101 607 49 515 q 240 745 153 699 q 431 792 328 792 q 594 760 522 792 q 676 797 644 767 q 722 865 707 826 q 736 933 736 903 q 732 967 736 942 l 876 967 q 881 936 881 953 q 831 770 881 833 q 700 686 781 707 q 772 560 747 635 q 796 392 796 485 q 744 167 796 258 q 604 30 692 75 q 413 -15 517 -15 q 144 92 240 -15 q 49 385 49 200 m 261 399 q 301 158 261 240 q 425 75 340 75 q 582 378 582 75 q 544 619 582 536 q 422 701 507 701 q 261 399 261 701 m 300 953 l 535 1242 l 657 1135 q 527 999 624 1079 q 371 893 431 918 l 300 953 z "},"ợ":{"ha":844,"x_min":49,"x_max":881,"o":"m 49 385 q 101 607 49 515 q 240 745 153 699 q 431 792 328 792 q 594 760 522 792 q 676 797 644 767 q 722 865 707 826 q 736 933 736 903 q 732 967 736 942 l 876 967 q 881 936 881 953 q 831 770 881 833 q 700 686 781 707 q 772 560 747 635 q 796 392 796 485 q 744 167 796 258 q 604 30 692 75 q 413 -15 517 -15 q 144 92 240 -15 q 49 385 49 200 m 261 399 q 301 158 261 240 q 425 75 340 75 q 582 378 582 75 q 544 619 582 536 q 422 701 507 701 q 261 399 261 701 m 413 -301 q 340 -272 368 -301 q 311 -200 311 -243 q 342 -116 311 -150 q 426 -82 374 -82 q 505 -111 476 -82 q 533 -182 533 -140 q 503 -268 533 -235 q 414 -301 472 -301 l 413 -301 z "},"ờ":{"ha":844,"x_min":49,"x_max":881,"o":"m 49 385 q 101 607 49 515 q 240 745 153 699 q 431 792 328 792 q 594 760 522 792 q 676 797 644 767 q 722 865 707 826 q 736 933 736 903 q 732 967 736 942 l 876 967 q 881 936 881 953 q 831 770 881 833 q 700 686 781 707 q 772 560 747 635 q 796 392 796 485 q 744 167 796 258 q 604 30 692 75 q 413 -15 517 -15 q 144 92 240 -15 q 49 385 49 200 m 261 399 q 301 158 261 240 q 425 75 340 75 q 582 378 582 75 q 544 619 582 536 q 422 701 507 701 q 261 399 261 701 m 469 892 q 376 950 435 906 q 262 1046 317 994 q 186 1133 207 1097 l 306 1240 l 540 951 l 471 892 l 469 892 z "},"ở":{"ha":844,"x_min":49,"x_max":881,"o":"m 49 385 q 101 607 49 515 q 240 745 153 699 q 431 792 328 792 q 594 760 522 792 q 676 797 644 767 q 722 865 707 826 q 736 933 736 903 q 732 967 736 942 l 876 967 q 881 936 881 953 q 831 770 881 833 q 700 686 781 707 q 772 560 747 635 q 796 392 796 485 q 744 167 796 258 q 604 30 692 75 q 413 -15 517 -15 q 144 92 240 -15 q 49 385 49 200 m 261 399 q 301 158 261 240 q 425 75 340 75 q 582 378 582 75 q 544 619 582 536 q 422 701 507 701 q 261 399 261 701 m 400 856 q 381 886 390 867 q 372 922 372 906 q 379 944 372 935 q 401 965 386 953 q 429 992 419 979 q 439 1024 439 1004 q 421 1075 439 1056 q 364 1094 403 1094 q 328 1090 347 1094 q 299 1078 310 1086 l 296 1186 q 393 1207 340 1207 q 526 1166 478 1207 q 574 1051 574 1125 q 558 994 574 1017 q 521 956 542 972 q 490 931 500 939 q 478 910 483 924 q 474 882 474 897 q 478 856 474 871 l 400 856 z "}}}
